<?xml version="1.0" encoding="utf-8"?>
<!-- Generator: Adobe Illustrator 22.1.0, SVG Export Plug-In . SVG Version: 6.00 Build 0)  -->
<svg version="1.1" id="Layer_1" xmlns="http://www.w3.org/2000/svg" xmlns:xlink="http://www.w3.org/1999/xlink" x="0px" y="0px"
	 viewBox="0 0 60 60" style="enable-background:new 0 0 60 60;" xml:space="preserve">
<style type="text/css">
	.st0{fill:#FFFFFF;}
	.st1{fill-rule:evenodd;clip-rule:evenodd;fill:#CCCC33;}
	.st2{fill-rule:evenodd;clip-rule:evenodd;fill:url(#SVGID_1_);}
	.st3{fill:#85FFFF;}
</style>
<g>
	<path class="st0" d="M53.2,43.9c-1.8,3.1-4.1,5.7-6.9,7.9c-2.8,2.1-5.9,3.7-9.4,4.6l-0.1-0.4c3.4-0.9,6.5-2.5,9.2-4.6
		c2.7-2.1,5-4.7,6.8-7.7L53.2,43.9L53.2,43.9z M24.7,51.1l-0.5,1.8l-0.4-0.1l0.5-1.8L24.7,51.1L24.7,51.1z M22.9,50.6l-0.7,1.8
		l-0.4-0.2l0.7-1.8L22.9,50.6L22.9,50.6z M21.2,49.9l-0.8,1.7L20,51.4l0.8-1.7L21.2,49.9L21.2,49.9z M19.5,49l-1,1.7l-0.4-0.2l1-1.7
		L19.5,49L19.5,49z M18,48l-1.1,1.6l-0.4-0.2l1.1-1.6L18,48L18,48z M16.5,46.9l-1.2,1.5l-0.3-0.3l1.2-1.5L16.5,46.9L16.5,46.9z
		 M15.1,45.7L13.7,47l-0.3-0.3l1.4-1.4L15.1,45.7L15.1,45.7z M13.8,44.3l-1.5,1.2l-0.3-0.3l1.5-1.2L13.8,44.3L13.8,44.3z M12.7,42.9
		L11.1,44l-0.3-0.4l1.6-1.1L12.7,42.9L12.7,42.9z M11.6,41.3l-1.7,1l-0.2-0.4l1.7-1L11.6,41.3L11.6,41.3z M10.8,39.7L9,40.5
		l-0.2-0.4l1.7-0.8L10.8,39.7L10.8,39.7z M10,38l-1.8,0.7l-0.1-0.4l1.8-0.7L10,38L10,38z M9.5,36.2l-1.8,0.5l-0.1-0.4l1.8-0.5
		L9.5,36.2L9.5,36.2z M9,34.4l-1.9,0.3l-0.1-0.4L9,33.9L9,34.4L9,34.4z M8.8,32.5l-1.9,0.2l0-0.4l1.9-0.2L8.8,32.5L8.8,32.5z
		 M8.7,30.7H6.8v-0.4h1.9V30.7L8.7,30.7z M30,9.6c5.8,0,11,2.3,14.8,6.1c3.8,3.8,6.1,9,6.1,14.8c0,5.8-2.3,11-6.1,14.8
		c-3.8,3.8-9,6.1-14.8,6.1c-5.8,0-11-2.3-14.8-6.1c-3.8-3.8-6.1-9-6.1-14.8c0-5.8,2.3-11,6.1-14.8C19,11.9,24.2,9.6,30,9.6L30,9.6z
		 M44.5,16c-3.7-3.7-8.8-6-14.5-6c-5.6,0-10.8,2.3-14.5,6c-3.7,3.7-6,8.8-6,14.5c0,5.6,2.3,10.8,6,14.5c3.7,3.7,8.8,6,14.5,6
		c5.6,0,10.8-2.3,14.5-6c3.7-3.7,6-8.8,6-14.5C50.4,24.8,48.2,19.7,44.5,16L44.5,16z M30,3.6c1.2,0,2.3,0.1,3.5,0.2
		c1.2,0.2,2.3,0.4,3.4,0.7L36.8,5c-1.1-0.3-2.2-0.5-3.4-0.7c-1.1-0.2-2.3-0.2-3.4-0.2V3.6L30,3.6z M30,5.9c6.8,0,12.9,2.7,17.3,7.2
		c4.4,4.4,7.2,10.6,7.2,17.3c0,6.8-2.7,12.9-7.2,17.4C42.9,52.2,36.8,55,30,55c-6.8,0-12.9-2.7-17.3-7.2c-4.4-4.4-7.2-10.6-7.2-17.4
		c0-6.8,2.7-12.9,7.2-17.3C17.1,8.7,23.2,5.9,30,5.9L30,5.9z M46.7,13.7C42.4,9.5,36.5,6.8,30,6.8c-6.5,0-12.4,2.6-16.7,6.9
		C9,18,6.4,23.9,6.4,30.5c0,6.5,2.6,12.4,6.9,16.7c4.3,4.3,10.2,6.9,16.7,6.9c6.5,0,12.4-2.6,16.7-6.9c4.3-4.3,6.9-10.2,6.9-16.7
		C53.6,23.9,51,18,46.7,13.7L46.7,13.7z M6.8,17.1c1.8-3.1,4.1-5.7,6.9-7.9c2.8-2.1,5.9-3.7,9.4-4.6L23.2,5
		c-3.4,0.9-6.5,2.5-9.2,4.5c-2.7,2.1-5,4.7-6.8,7.7L6.8,17.1L6.8,17.1z"/>
	<path class="st1" d="M48.5,41.1c-0.9,1.6-2.1,3.1-3.4,4.4c-2.7,2.7-6,4.6-9.6,5.5l0.3,1.1l0.2,0.7c0.7-0.2,1.5-0.4,2.2-0.7
		c0.3-0.1,0.7-0.3,1-0.4c2.7-1.2,5.1-2.8,7.2-4.9c1.4-1.4,2.7-3.1,3.7-4.8L48.5,41.1L48.5,41.1z M11.5,19.8c0.9-1.6,2.1-3.1,3.4-4.4
		c2.7-2.7,6-4.6,9.6-5.5l-0.3-1.1L24,8c-0.7,0.2-1.5,0.4-2.2,0.7c-0.3,0.1-0.7,0.3-1,0.4c-2.7,1.2-5.1,2.8-7.2,4.9
		c-1.4,1.4-2.7,3.1-3.7,4.8L11.5,19.8L11.5,19.8z"/>
	<linearGradient id="SVGID_1_" gradientUnits="userSpaceOnUse" x1="42.1512" y1="42.6086" x2="17.8477" y2="18.3052">
		<stop  offset="0" style="stop-color:#00393D"/>
		<stop  offset="1" style="stop-color:#006E78"/>
	</linearGradient>
	<path class="st2" d="M30,13.3c9.5,0,17.2,7.7,17.2,17.2S39.5,47.6,30,47.6c-9.5,0-17.2-7.7-17.2-17.2S20.5,13.3,30,13.3L30,13.3z"
		/>
	<path class="st3" d="M24.3,25.6L22.7,27v6l1.6,1.4h3.5l1.6-1.4v-6l-1.6-1.4H24.3L24.3,25.6z M28,27.5v4.9l-0.7,0.7h-2.4l-0.7-0.7
		v-4.9l0.7-0.7h2.4L28,27.5L28,27.5z M34.5,29.4l2.8-3.2l-1.1-0.9l-3.7,4.2v-4h-1.4v8.9h1.4v-2.8l1-1.2l2.5,4.2l1.2-0.7L34.5,29.4
		L34.5,29.4z"/>
</g>
</svg>
