<?xml version="1.0" encoding="utf-8"?>
<!-- Generator: Adobe Illustrator 22.1.0, SVG Export Plug-In . SVG Version: 6.00 Build 0)  -->
<svg version="1.1" id="Layer_1" xmlns="http://www.w3.org/2000/svg" xmlns:xlink="http://www.w3.org/1999/xlink" x="0px" y="0px"
	 viewBox="0 0 180 170" style="enable-background:new 0 0 180 170;" xml:space="preserve">
<style type="text/css">
	.st0{fill:#EC2B34;}
	.st1{fill:#F2A136;}
	.st2{fill:#C61421;}
	.st3{opacity:0.31;fill:#FFFFFF;}
	.st4{opacity:0.4;fill:#EC2B34;}
	.st5{fill:#FFD9A6;}
	.st6{fill:#F7B634;}
	.st7{fill:#3D372E;}
	.st8{fill:#F4D037;}
	.st9{fill:#414042;}
</style>
<g>
	<path class="st0" d="M74.6,74.3c-2.9-7.5-3.3-15.9-1.1-23.7c0.6-2.2,1.5-4.5,3.1-6.1c1.6-1.7,4.2-2.6,6.4-1.7
		c-1.3,7.5,0.8,15.5,5.3,21.7c0,0,1.6-0.1,2.9,1.3c1.2,1.4,2.1,4.3,3.3,5.1c0.4,0.3,1,0.7,0.9,1.3c0,0.4-0.3,0.7-0.6,1
		c-2.3,2.2-4.7,4.4-7.5,5.8C81.8,81.4,76.8,79.9,74.6,74.3z"/>
	<path class="st0" d="M97.6,125c-6.1,3.1-12.5,6.1-19.4,6.7c-9.6,0.7-19.1-3.7-25.7-10.6c-6.6-7-10.4-16.3-11.9-25.7
		c-0.4-2.3-0.6-4.7-0.2-7c0.4-2.3,1.6-4.6,3.5-6c1.4-1,3.1-1.4,4.8-1.9c9.1-2.3,18.4-4.5,26.9-8.6c2.8-1.3,5.5-2.8,8.1-4.4
		c2.3-1.4,4.8-2.9,7.5-2.7c1.7,0.1,3.4,0.9,4.9,1.9c2.5,1.6,4.7,3.7,6.7,5.9c8.2,8.7,14.7,19,19,30.1c2.4,6.2-1.8,9.1-6.5,12.3
		C109.7,118.7,103.7,121.9,97.6,125z"/>
	<path class="st1" d="M5.1,75.7c-0.6-0.3-1.1-0.6-1.5-1C3.1,74.3,2.8,73.6,3,73c0.2-0.6,0.7-1.1,1.3-1.5c1.8-1.1,3.8-1.8,5.9-2.5
		c1.8-0.6,3.6-1.2,5.4-0.7c0.3,0.1,0.6,0.2,0.9,0.4c0.6,0.5,0.6,1.3,0.8,2c0.2,0.9,0.5,1.7,0.9,2.5c0.3,0.5,0.6,0.9,0.7,1.4
		c0.3,1.1-0.3,2.2-1.2,2.9c-0.9,0.7-2,1-3,1.2c-1.5,0.3-3.3-0.6-4.6-1.1C8.3,77.2,6.7,76.5,5.1,75.7z"/>
	<path class="st1" d="M26.9,112.8c-0.5-0.4-0.9-0.9-1.2-1.4c-0.3-0.6-0.3-1.2,0-1.8c0.3-0.6,1-0.8,1.7-1c2.1-0.6,4.2-0.6,6.4-0.7
		c1.9,0,3.8-0.1,5.4,1c0.3,0.2,0.5,0.4,0.7,0.7c0.4,0.6,0.2,1.4,0.1,2.2c-0.1,0.9-0.1,1.8,0.1,2.6c0.1,0.5,0.3,1.1,0.3,1.6
		c0,1.1-0.9,2-2,2.4c-1,0.4-2.2,0.4-3.3,0.3c-1.5-0.1-2.9-1.6-4.1-2.4C29.6,115.1,28.2,114,26.9,112.8z"/>
	<path class="st1" d="M145,117.5c0.4-0.6,0.6-1.3,0.9-2c0.3-0.6,0.8-1.3,1.5-1.5c0.8-0.3,1.7,0.2,2.1,0.8c0.4,0.7,0.4,1.6,0.1,2.4
		c0.7-0.3,1.3-0.6,2-0.9c0.6-0.3,1.2-0.5,1.9-0.5c0.7,0,1.4,0.4,1.5,1c0.2,0.6-0.4,1.4-1,1.4c0.4,0.2,0.7-0.1,1.1-0.2
		c0.6-0.1,1.2,0.2,1.5,0.7c0.3,0.4,0.5,1,0.3,1.5c-0.2,0.7-1,1-1.6,1.3c0.4-0.1,0.9,0.2,1,0.7c0.1,0.4-0.1,0.9-0.4,1.2
		c-0.5,0.5-1.4,0.7-2.1,0.8c-2.3,0.4-4.6,0.8-6.9,1.1c-1.3,0.2-2.6,0.4-3.8-0.2c-1-0.5-1.7-1.6-2-2.7c-0.3-0.9-0.4-1.9-0.1-2.8
		c0.3-0.7,1.1-1.3,1.9-1.2c0.5,0.1,0.6,0.2,1.1,0C144.3,118.3,144.7,118,145,117.5z"/>
	<path class="st1" d="M85.7,40.6c0.6-0.4,1.3-0.6,1.9-0.9s1.3-0.8,1.5-1.5c0.2-0.8-0.2-1.7-0.9-2.1c-0.7-0.4-1.6-0.4-2.4,0
		c0.3-0.7,0.6-1.4,0.9-2c0.3-0.6,0.5-1.2,0.5-1.9c0-0.7-0.4-1.3-1.1-1.5c-0.6-0.1-1.3,0.4-1.4,1c-0.2-0.3,0.1-0.7,0.2-1.1
		c0.1-0.6-0.2-1.2-0.7-1.5c-0.4-0.3-1-0.4-1.5-0.3c-0.7,0.3-1,1-1.3,1.7c0.1-0.4-0.3-0.9-0.7-1c-0.5-0.1-0.9,0.1-1.2,0.5
		c-0.5,0.6-0.7,1.4-0.8,2.1c-0.3,2.3-0.7,4.6-1,6.9c-0.2,1.3-0.3,2.6,0.3,3.8c0.6,1,1.7,1.6,2.8,2c0.9,0.3,1.9,0.4,2.8,0
		c0.7-0.3,1.2-1.1,1.1-1.9c-0.1-0.5-0.2-0.6,0-1.1C84.9,41.3,85.3,40.9,85.7,40.6z"/>
	<path class="st0" d="M18.5,70.7c-1.4-0.7-3-1.5-4.5-1.1c-2.2,0.5-3.3,3.1-2.9,5.3s1.8,4,3.2,5.7c9.2,10.8,21.5,20.1,35.6,21.7
		c6.7,0.7,13.8-0.5,19.4-4.3c1.9-1.3,3.7-3,4.5-5.2c1.5-4.1-1-8.9-4.7-11.2c-7.7-4.8-16.7-1.1-25-2C35.1,78.5,26.5,74.8,18.5,70.7z"
		/>
	<path class="st0" d="M47.2,123.3c-4.2-2.5-7.1-7-7.7-11.8c-1.8,0.1-5.7-0.4-7.5-0.3c-1.8,8.5,4.2,19.2,11.6,23.6
		c4.7,2.8,10.6,3,16.1,3c13.6,0,27.2-5,37.5-13.9c1.2-1.1,2.5-2.3,2.6-3.9c0.1-1.6-0.9-3.1-2.2-3.9c-1.3-0.8-3-1.1-4.5-1.4
		c-10.8-1.5-29,5-35.2,8.3C55,124.5,50,125,47.2,123.3z"/>
	<path class="st2" d="M127.7,106.6c0,0-1.6,2.9-3.7,4.4c-6,4.2-6.4,2.3-6.4,2.3s-0.5-10.6-5.7-19.5c-11.8-20-23.5-29.4-23.5-29.4
		s4.2-2.3,5.3-3.1c1.1-0.8,2-2.3,2-2.3s15,13.2,23.9,27.9C128.5,101.5,127.7,106.6,127.7,106.6z"/>
	<path class="st0" d="M145,118.4c-0.3,2.7-0.4,3.9-0.1,6.5c-7.6,1.9-14.7,1.9-23.3,1.1c-6.3-0.6-12.4-2.6-18.2-4.9
		c-3.3-1.3-6.9-3.4-7.3-6.9c-0.4-2.7,1.3-5.2,3.2-7.1c1.2-1.1,2.5-2.1,4-2.6c2.6-0.7,5.3,0.3,7.8,1.4c3.3,1.4,4.4,2.7,5.7,5.8
		c1.2,2.8,4.8,3.9,7.5,4.8C126.2,117.2,144.8,120,145,118.4z"/>
	<path class="st2" d="M138.3,117.6c-0.2,0-0.5,0-0.6,0.1c-0.2,0.1-0.3,0.4-0.3,0.7c-0.4,2.5-0.8,5.1,0.1,7.6
		c0.1,0.3,0.2,0.6,0.4,0.7c0.3,0.3,0.8,0.3,1.3,0.3c2-0.1,3.9-0.3,5.9-0.6c0.2,0,0.4-0.1,0.6-0.3c0.1-0.2,0.1-0.4,0-0.7
		c-0.2-1.3-0.5-2.5-0.7-3.8c-0.2-0.8-0.1-2.6-0.8-3.3C143.1,117.4,139.5,117.8,138.3,117.6z"/>
	<path class="st2" d="M52,133.7c6.6,0.5,12.7,0.4,19.1-1.1c11-2.7,22.1-9.5,31.2-16.2c5.9,2.4,12.5,6.8,18.7,8.3s12.7,1.8,19.6,1.1
		c-11.6,4-24.9-0.1-36.5-4c-1.7,1-3.5,1.9-5.2,2.9c-11.6,6.4-23.7,13-36.9,14.2c-5.9,0.5-12.1-0.1-17.4-2.7
		c-5.3-2.6-9.7-7.4-11-13.2c0.8,3.4,4.1,5.7,7,7.4C44,132.3,48,133.4,52,133.7z"/>
	<path class="st2" d="M29.2,91.6c3.6,2,7.5,3.7,11.6,3.4c0.5,2.4,0.9,4.7,1.4,7.1c-5.7-3.8-12.5-5.9-17.7-10.3
		c-1.9-1.6-3.5-3.5-5.2-5.4c-1.8-2.1-3.7-4.1-5.4-6.3C18.8,84.3,23.4,88.4,29.2,91.6z"/>
	<path class="st2" d="M82.2,73.1c-4.9,1.9-7.8,0.6-9.8,0.1c-0.9-5.2-1.5-10.5-1-15.7c0.5-5.2,2.3-10.5,5.7-14.5
		c0.7,2.4-0.6,4.3-1.3,6.5c-0.7,2.3-1.2,4.8-1.4,7.2c-0.2,2.4,0.6,6.9,2.3,9C77.2,66.2,82,73.3,82.2,73.1z"/>
	<path class="st2" d="M74.1,46.3C74,46.5,73.9,46.7,74,47c0.1,0.3,0.4,0.4,0.6,0.6c2.5,1.4,5.1,2.7,7.9,2.7c0.3,0,0.6,0,0.9-0.2
		c0.4-0.3,0.6-0.8,0.7-1.3c0.5-2.2,0.9-4.5,1.3-6.7c0-0.2,0.1-0.5-0.1-0.7c-0.2-0.2-0.4-0.2-0.7-0.3c-1.4-0.2-2.8-0.4-4.2-0.6
		c-0.9-0.1-2.8-0.8-3.6-0.3C75.4,40.8,74.6,44.9,74.1,46.3z"/>
	<g>
		<path class="st2" d="M58.9,79.9c3.2,1.8,5.6,4.5,7.7,7.5c1,1.4,1.9,3.1,2.8,4.7c0.9,1.7,1.7,3.4,2.5,5.1c0.8,1.7,1.5,3.5,2.2,5.2
			c0.7,1.8,1.3,3.5,1.9,5.3c1.2,3.6,2.1,7.3,2.9,11c0.7,3.7,1.3,7.5,1.6,11.3c0,0.2,0,0.5,0.1,0.7c0,0.1,0,0.2,0,0.4
			c0,0,0,0.1,0,0.1c0,0,0,0.2,0,0.1c0,0.4,0.3,0.8,0.8,0.9c0.4,0,0.9-0.3,0.9-0.8c-0.3-3.9-0.7-7.7-1.5-11.6
			c-0.7-3.8-1.6-7.5-2.8-11.2c-1.1-3.7-2.5-7.3-4-10.9c-1.5-3.5-3.2-6.9-5.2-10.1c-2-3.2-4.5-6.2-7.6-8.3c-0.4-0.3-0.8-0.5-1.2-0.7
			c-0.4-0.2-0.9-0.2-1.1,0.2C58.4,79.2,58.5,79.7,58.9,79.9L58.9,79.9z"/>
	</g>
	<g>
		<path class="st2" d="M63.1,78.8c0.8,0.4,1.5,0.9,2.2,1.4c0.7,0.5,1.3,1,1.9,1.6c1.3,1.2,2.4,2.6,3.4,4c1,1.4,1.9,2.9,2.7,4.5
			c0.9,1.6,1.7,3.3,2.4,5c1.6,3.5,3.1,7.1,4.4,10.8c1.3,3.6,2.4,7.3,3.3,11c1,3.9,1.8,7.8,1.9,11.8c0,0.5,0,1,0,1.5
			c0,0.4,0.3,0.8,0.8,0.9c0.4,0,0.8-0.3,0.9-0.8c0.1-2.1-0.1-4.1-0.3-6.2c-0.3-2-0.7-4.1-1.2-6.1c-0.9-3.8-2-7.6-3.3-11.3
			c-1.3-3.7-2.7-7.4-4.3-11c-1.5-3.4-3.1-6.8-5.1-9.9c-2-3-4.3-5.8-7.4-7.8c-0.4-0.2-0.7-0.4-1.1-0.6c-0.4-0.2-0.9-0.2-1.1,0.2
			C62.7,78,62.7,78.6,63.1,78.8L63.1,78.8z"/>
	</g>
	<g>
		<path class="st2" d="M57,125c1.2-0.2,2.5,0,3.7,0.4c1.3,0.4,2.6,1,3.8,1.6c2.4,1.2,4.8,2.8,6.9,4.5c1.2,1,2.3,2.1,3.3,3.2
			c0.3,0.3,0.8,0.4,1.1,0.1c0.3-0.3,0.4-0.8,0.1-1.1c-2-2.2-4.2-4.1-6.7-5.8c-1.2-0.8-2.4-1.5-3.7-2.2c-1.3-0.7-2.7-1.3-4.1-1.8
			c-1.5-0.5-3.2-0.8-4.8-0.5c-0.4,0.1-0.7,0.5-0.6,0.9C56.1,124.8,56.5,125.1,57,125L57,125z"/>
	</g>
	<g>
		<path class="st2" d="M43,93.8c2.5-3.3,4.5-7,5.9-10.9c0.1-0.4-0.1-0.9-0.5-1c-0.4-0.1-0.9,0.1-1,0.5c-1.3,3.8-3.3,7.3-5.7,10.5
			c-0.3,0.3-0.1,0.9,0.2,1.1C42.3,94.2,42.8,94.1,43,93.8L43,93.8z"/>
	</g>
	<path class="st3" d="M12.9,74.8c0.2,0.3,0.5,0.5,0.7,0.7c1.2,0.8,2.4,1.6,3.7,2.3c0.7,0.4,1.3,0.7,2.1,0.7c0.7,0,1.6-0.3,1.8-1
		c0.4-0.9-0.2-1.8-0.8-2.5c-1.1-1.3-3.1-3.3-4.9-3.5C14,71.3,11.9,73.3,12.9,74.8z"/>
	<path class="st3" d="M33.6,115.3c0.2,0.8,0.4,1.7,0.9,2.4c0.5,0.7,1.3,1.2,2.2,1.1c0.1,0,0.2,0,0.3-0.1c0.1-0.1,0.1-0.2,0.1-0.3
		c0.3-2.1,0.2-4.4-0.3-6.4c-0.3-1.1-1.7-1.4-2.6-0.8C32.8,112.1,33.3,114,33.6,115.3z"/>
	<g>
		<g>
			<path class="st2" d="M128.5,99.6c0.2,0.9,0.5,1.6,1,2.4c0.6,1,1.4,2,2.3,2.8c2.5,2.5,3.3,2.9,4.3,4.7c1.2,2.2,1.4,4.4,1.2,6.9
				c-0.2,3.2-1.2,6.7-2.3,9.7c-0.8,2-1.8,4.1-3.3,6.2c-1.9,2.7-3.7,4.1-6.2,5.2c-1.5,0.7-4.1,1.3-6.9,1.2c-2-0.1-3.7-0.3-6.1-1.1
				c-4.8-1.5-7.7-3.5-12-5.5c-2.6-1.3-5.3-2.3-8.1-2.6c-1.5-0.1-3.1,0-4.6,0.5c-0.5,0.2-0.9,0.4-1.2,0.8c-0.2,0.4-0.4,1-0.2,1.4
				c0.1,0.5,0.4,0.9,0.8,1.2c0.4,0.2,0.9,0.4,1.4,0.2c0.7-0.2,1.3-0.3,1.9-0.4c1.5-0.1,2.7,0.1,4.2,0.5c3.1,1,5.3,2.4,8.9,4.2
				c2.4,1.2,4.9,2.4,7.5,3.2c2.5,0.8,5.2,1.3,7.9,1.4c2.7,0,5.4-0.4,8-1.5c4.7-2,8.1-6.2,10.2-10.7c1.1-2.3,2-4.7,2.7-7.2
				c0.7-2.5,1.2-5.1,1.2-7.7c0-2.6-0.5-5.3-1.8-7.7c-0.7-1.2-1.5-2.2-2.5-3.2c-0.8-0.8-1.6-1.5-2.4-2.3c-1.1-1.1-1.8-1.9-2.2-3.3
				c-0.2-1-1.3-1.7-2.2-1.4C128.9,97.6,128.2,98.6,128.5,99.6L128.5,99.6z"/>
		</g>
		<path class="st4" d="M159.1,110.2c-8.1,5.8-26.8,2.8-29.4-0.5c-8.9-10.8-30.1-4-35.2-13.6c-4.9-9.3,1.5-16.9,1.4-32.7
			c-0.1-8.3,6.4-25,14.5-29.3c20.5-10.9,40.5-9.8,59,19.7C181.2,72.4,180.7,94.6,159.1,110.2z"/>
		<path class="st1" d="M136,30.6c3.4,5.4,4.7,12.1,3.7,18.4c-0.2,0.9-6.4,1.1-7.2,1.1c-2.5,0-5-0.5-7.4-1.4
			c-2.2-0.8-3.8-1.8-2.7-4.3c1.2-2.6,3.3-5.1,5.3-7.1C130.1,34.7,132.9,32.5,136,30.6z"/>
		<path class="st5" d="M126.7,42.2c2.2-2.5,4.7-4.8,7.3-6.7c2.3,3.8,3.3,8.3,2.5,12.7c0,0.2-0.1,0.4-0.3,0.6
			c-0.1,0.1-0.3,0.1-0.5,0.2c-2.1,0.3-4.3,0.6-6.3-0.2c-0.9-0.4-1.7-0.9-2.4-1.5c-0.7-0.5-1.8-1-2.3-1.7c-0.5-0.6-0.2-0.7,0.3-1.2
			C125.7,43.6,126.2,42.8,126.7,42.2z"/>
		<path class="st1" d="M172.6,87.2c-3.1-5.6-8.3-10-14.3-12.1c-0.9-0.3-4,5.1-4.4,5.8c-1.2,2.2-2,4.7-2.3,7.1
			c-0.3,2.4-0.2,4.2,2.5,4.4c2.8,0.2,6-0.5,8.8-1.2C166.3,90.4,169.6,89,172.6,87.2z"/>
		<path class="st5" d="M158.1,89.7c3.2-0.7,6.4-1.8,9.4-3.2c-2.2-3.8-5.7-6.9-9.9-8.3c-0.2-0.1-0.4-0.1-0.6,0
			c-0.2,0.1-0.3,0.2-0.4,0.3c-1.3,1.7-2.6,3.5-2.9,5.6c-0.1,0.9,0,1.9,0.1,2.8c0.1,0.8,0.1,2,0.3,2.8c0.2,0.7,0.5,0.5,1.2,0.3
			C156.3,90,157.2,89.9,158.1,89.7z"/>
		<path class="st1" d="M156.7,88c1.7-5.5,2.2-11.4,0.9-17c-0.5-2.3-3.1-6.5-6.2-10.9c-2.8-4.6-5.7-8.6-7.6-10
			c-4.6-3.4-10.3-5.3-16-5.9c-7.3-0.8-14.8,0.3-21.9,2c-0.9,6.1-2.8,12-5.5,17.5c-0.5,1-1,2-0.9,3.1c0.1,0.7,0.4,1.3,0.8,1.8
			c3.5,6,7,12.1,10.8,17.9c3.8,5.8,8,11.5,12.1,17.1c0.4,0.5,0.8,1.1,1.4,1.4c0.9,0.6,2.1,0.5,3.2,0.4c6.1-0.3,12.3,0.3,18.2,1.9
			C150.5,101.4,154.5,95.1,156.7,88z"/>
		<path class="st6" d="M150.3,63.4c0.9-0.7,1.7-1.1,2.4-1.5c-0.4-0.6-0.8-1.2-1.3-1.8c-2.8-4.6-5.7-8.6-7.6-10
			c-4.6-3.4-10.3-5.3-16-5.9c-7.3-0.8-14.8,0.3-21.9,2c0,0,0,0.1,0,0.1c2.7,0,11.7-0.6,15.3,1.2c5.2,2.6,7.9,5.7,8.8,9.7
			c0.9,4.1-0.2,8.5-5.2,13.9c-1.5,1.6-2.4,3-4.2,4.4c1,1.4,2.3,4.1,3,5.6C132.7,75.9,142,69.9,150.3,63.4z"/>
		<path class="st6" d="M147.9,59.8c1-0.5,1.7-1.1,2.4-1.6c0.4,0.6,0.8,1.3,1.2,1.9c3.1,4.4,5.6,8.7,6.2,10.9
			c1.3,5.6,0.8,11.6-0.9,17c-2.2,7.1-6.1,13.4-10.6,19.3c0,0-0.1,0-0.1,0c1.1-2.5,5.2-10.5,5-14.5c-0.3-5.8-2.1-9.5-5.4-11.9
			c-3.4-2.5-7.9-3.2-14.8-0.7c-2.1,0.7-3.7,1-5.7,2.1c-0.8-1.5-2.9-3.6-4.1-4.8C129.4,71.1,138.6,64.8,147.9,59.8z"/>
		<path class="st7" d="M123.6,73.4c-0.2-0.1-0.3-0.3-0.6-0.3c-0.4-0.1-0.9,0.1-1.1,0.4c-0.3,0.3-0.4,0.8-0.5,1.2
			c-0.4,1.7-0.7,3.5-0.6,5.2c0,0.3,0,0.7,0.3,0.9c0.2,0.2,0.4,0.2,0.6,0.3c1.9,0.5,3.8,0.9,5.8,0.7c0.2,0,0.3,0,0.5-0.1
			c0.3-0.2,0.3-0.6,0.2-1c-0.3-1.4-0.9-2.8-1.7-3.9C125.6,75.5,124.8,74.4,123.6,73.4z"/>
		<g>
			<path class="st7" d="M122.3,79.3c-1,0.9-2.2,1.8-3.6,1.6c-1.3-0.1-2-1.3-2.4-2.5c-0.1-0.3-0.6-0.1-0.5,0.3
				c0.5,1.3,1.3,2.5,2.8,2.7c1.6,0.2,2.9-0.8,4.1-1.8C122.9,79.5,122.5,79.1,122.3,79.3L122.3,79.3z"/>
		</g>
		<g>
			<path class="st7" d="M121.8,79.5c-0.6,0.5-1.3,1-1.9,1.6c-0.6,0.5-1,1-1.1,1.7c-0.3,1.5,0.6,2.8,1.7,3.7c0.3,0.2,0.7-0.1,0.4-0.4
				c-1-0.8-1.8-2-1.5-3.3c0.2-0.7,0.6-1.1,1.1-1.5c0.6-0.5,1.2-0.9,1.8-1.4C122.4,79.7,122.1,79.3,121.8,79.5L121.8,79.5z"/>
		</g>
		<path class="st3" d="M120.9,32.7c-2.1,0.3-4.4,1.8-4.2,3.9c0.3,2.1,2.8,3,5,3.2c4.4,0.2,8.8-1,13.2-1c7,0,13.5,3.2,19.4,6.9
			c0.7,0.4,1.5,0.9,2.2,0.5c0.9-0.4,0.9-1.8,0.6-2.7c-1.2-3.2-4.3-5.1-7.3-6.6c-4.4-2.3-9.1-4.3-14-5.2c-4.9-0.9-10.1-0.7-14.7,1.3
			c0.8-0.3,1.6-0.6,2.5-0.9L120.9,32.7z"/>
		<path class="st3" d="M163,49.3c-0.5-0.4-1.1-0.8-1.7-1c-0.6-0.2-1.4,0-1.7,0.6c-0.3,0.4-0.2,1-0.1,1.5c0.3,1.2,0.9,2.3,1.7,3.2
			c0.5,0.6,1.2,1.1,2,1.2c0.8,0.1,1.6-0.1,2-0.8c0.4-0.7,0.2-1.7-0.1-2.5c-0.4-1-1-2.1-2-2.2c0-0.2,0-0.3-0.1-0.5L163,49.3z"/>
		<g>
			<path class="st8" d="M131,50.8c0.9,0.7,1.7,1.6,2.2,2.7c0.1,0.3,0.6,0.1,0.5-0.3c-0.5-1.1-1.3-2.1-2.3-2.9
				c-0.1-0.1-0.3,0-0.4,0.1C130.8,50.5,130.9,50.7,131,50.8L131,50.8z"/>
		</g>
		<g>
			<path class="st8" d="M134.3,57.8c0.3,0.8,0.4,1.6,0.2,2.4c0,0.1,0,0.3,0.2,0.3c0.1,0,0.3,0,0.3-0.2c0.2-1,0.1-1.9-0.3-2.9
				c-0.1-0.1-0.2-0.2-0.4-0.1C134.3,57.5,134.2,57.6,134.3,57.8L134.3,57.8z"/>
		</g>
		<g>
			<path class="st8" d="M132.5,63.6c-0.6,1.4-1.4,2.7-2.2,3.9c-0.2,0.3,0.3,0.6,0.5,0.3c0.9-1.2,1.6-2.5,2.2-3.9
				c0.1-0.1,0-0.3-0.1-0.4C132.8,63.4,132.6,63.4,132.5,63.6L132.5,63.6z"/>
		</g>
		<g>
			<path class="st8" d="M136.8,63.2c-0.6,1.1-1.2,2.1-1.9,3.1c-0.2,0.3,0.3,0.6,0.5,0.3c0.7-1,1.3-2,1.9-3.1
				C137.4,63.2,136.9,62.9,136.8,63.2L136.8,63.2z"/>
		</g>
		<g>
			<path class="st8" d="M140.3,55.7c-0.3,0.7-0.6,1.4-0.8,2.2c0,0.1,0,0.3,0.2,0.3c0.1,0,0.3,0,0.3-0.2c0.1-0.4,0.2-0.7,0.3-1.1
				c0.1-0.3,0.3-0.7,0.4-1c0.1-0.1,0-0.3-0.1-0.4C140.5,55.5,140.4,55.5,140.3,55.7L140.3,55.7z"/>
		</g>
		<g>
			<path class="st8" d="M137.6,49.6c0.3,0.7,0.5,1.4,0.8,2.1c0.1,0.1,0.2,0.2,0.3,0.2c0.1,0,0.3-0.2,0.2-0.3
				c-0.3-0.7-0.5-1.4-0.8-2.1c-0.1-0.1-0.2-0.2-0.3-0.2C137.7,49.3,137.6,49.5,137.6,49.6L137.6,49.6z"/>
		</g>
		<g>
			<path class="st8" d="M121.4,46.5c1,0.3,1.9,0.7,2.8,1.2c0.3,0.2,0.6-0.3,0.3-0.5c-0.9-0.6-1.9-1-2.9-1.2
				C121.2,45.9,121.1,46.5,121.4,46.5L121.4,46.5z"/>
		</g>
		<g>
			<path class="st8" d="M129.2,46.6c0.5,0.3,1,0.6,1.5,0.9c0.1,0.1,0.3,0,0.4-0.1c0.1-0.1,0-0.3-0.1-0.4c-0.5-0.3-1-0.6-1.5-0.9
				c-0.1-0.1-0.3,0-0.4,0.1C129.1,46.4,129.1,46.5,129.2,46.6L129.2,46.6z"/>
		</g>
		<g>
			<path class="st8" d="M139.5,66.6c-0.1,0.5-0.2,1-0.3,1.6c0,0.1,0,0.3,0.2,0.3c0.1,0,0.3,0,0.3-0.2c0.1-0.5,0.2-1,0.3-1.6
				c0-0.1,0-0.3-0.2-0.3C139.7,66.3,139.6,66.4,139.5,66.6L139.5,66.6z"/>
		</g>
		<g>
			<path class="st8" d="M134.7,71.1c-1,1.1-2.2,2.1-3.5,2.9c-0.3,0.2,0,0.6,0.3,0.5c1.4-0.8,2.6-1.8,3.6-3
				C135.3,71.2,134.9,70.8,134.7,71.1L134.7,71.1z"/>
		</g>
		<g>
			<path class="st8" d="M129.7,70.9c-0.9,1-1.8,2.1-2.7,3c-0.2,0.2,0.1,0.6,0.4,0.4c1-1,1.9-2,2.7-3c0.1-0.1,0.1-0.3,0-0.4
				C130,70.8,129.8,70.8,129.7,70.9L129.7,70.9z"/>
		</g>
		<g>
			<path class="st8" d="M130.1,78.6c1.1-0.6,2.4-1.1,3.6-1.4c0.3-0.1,0.2-0.6-0.1-0.5c-1.3,0.3-2.6,0.8-3.8,1.4
				C129.5,78.3,129.8,78.7,130.1,78.6L130.1,78.6z"/>
		</g>
		<g>
			<path class="st8" d="M136.7,73.1c1.2-0.6,2.5-0.8,3.8-0.5c0.3,0.1,0.5-0.4,0.2-0.5c-1.4-0.3-2.9-0.2-4.2,0.5
				C136.2,72.8,136.4,73.3,136.7,73.1L136.7,73.1z"/>
		</g>
		<g>
			<path class="st8" d="M139.1,76.8c1.1,0,2.2,0.1,3.3,0.1c0.3,0,0.4-0.5,0-0.5c-1.1,0-2.2-0.1-3.3-0.1
				C138.7,76.3,138.7,76.8,139.1,76.8L139.1,76.8z"/>
		</g>
		<g>
			<path class="st8" d="M146.8,77.8c1.4,1,2.6,2.4,3.4,3.8c0.2,0.3,0.7,0,0.5-0.3c-0.9-1.6-2.2-2.9-3.6-4
				C146.8,77.1,146.5,77.5,146.8,77.8L146.8,77.8z"/>
		</g>
		<g>
			<path class="st8" d="M143.6,72.6c1-0.1,2-0.1,3,0c0.3,0,0.4-0.5,0-0.5c-1-0.1-2,0-3,0c-0.1,0-0.3,0.1-0.3,0.3
				C143.4,72.5,143.5,72.6,143.6,72.6L143.6,72.6z"/>
		</g>
		<g>
			<path class="st8" d="M144.9,69.3c0.8-0.6,1.7-1,2.6-1.2c0.3-0.1,0.2-0.6-0.1-0.5c-1.1,0.2-2.1,0.6-2.9,1.3
				C144.2,69.2,144.6,69.6,144.9,69.3L144.9,69.3z"/>
		</g>
		<g>
			<path class="st8" d="M142.7,64.3c0.8-0.7,1.5-1.4,2.3-2.1c0.3-0.2-0.1-0.6-0.4-0.4c-0.8,0.7-1.5,1.4-2.3,2.1
				C142.1,64.2,142.5,64.6,142.7,64.3L142.7,64.3z"/>
		</g>
		<g>
			<path class="st8" d="M144.3,58c0.5-0.5,0.9-1.2,1.2-1.8c0.1-0.1,0-0.3-0.1-0.4c-0.1-0.1-0.3,0-0.4,0.1c-0.3,0.6-0.7,1.2-1.1,1.7
				c-0.1,0.1-0.1,0.3,0,0.4C144,58.1,144.2,58.1,144.3,58L144.3,58z"/>
		</g>
		<g>
			<path class="st8" d="M149.4,67c0.6-0.3,1.3-0.3,2-0.1c0.1,0,0.3,0,0.3-0.2c0-0.1,0-0.3-0.2-0.3c-0.8-0.3-1.6-0.2-2.4,0.1
				c-0.1,0.1-0.2,0.2-0.1,0.4C149.1,67,149.2,67,149.4,67L149.4,67z"/>
		</g>
		<g>
			<path class="st8" d="M151,72.2c1,0,1.9,0.3,2.6,1c0.2,0.2,0.6-0.1,0.4-0.4c-0.8-0.8-1.9-1.2-3-1.2c-0.1,0-0.3,0.1-0.3,0.3
				C150.7,72.1,150.8,72.2,151,72.2L151,72.2z"/>
		</g>
		<g>
			<path class="st8" d="M152.7,77.4c0.9,0.8,1.7,1.8,2.3,2.8c0.2,0.3,0.7,0,0.5-0.3c-0.7-1.1-1.5-2-2.4-2.9
				C152.9,76.8,152.5,77.2,152.7,77.4L152.7,77.4z"/>
		</g>
		<g>
			<path class="st8" d="M152.4,85.8c0.3,1.1,0.6,2.1,0.7,3.2c0.1,0.3,0.6,0.2,0.5-0.1c-0.2-1.1-0.4-2.2-0.7-3.2
				C152.8,85.4,152.3,85.5,152.4,85.8L152.4,85.8z"/>
		</g>
		<g>
			<path class="st8" d="M152,94.3c0,0.6,0,1.3,0,1.9c0,0.1,0.1,0.3,0.3,0.3c0.1,0,0.3-0.1,0.3-0.3c0-0.6,0-1.3,0-1.9
				c0-0.1-0.1-0.3-0.3-0.3C152.1,94.1,152,94.2,152,94.3L152,94.3z"/>
		</g>
		<g>
			<path class="st8" d="M155.5,85.5c-0.1,0.7,0,1.4,0.2,2c0,0.1,0.2,0.2,0.3,0.2c0.1,0,0.2-0.2,0.2-0.3c-0.2-0.6-0.3-1.2-0.2-1.9
				c0-0.1-0.1-0.3-0.3-0.3C155.6,85.2,155.5,85.3,155.5,85.5L155.5,85.5z"/>
		</g>
		<g>
			<path class="st6" d="M128.1,98.8c1.1,0.8,2,1.9,2.6,3.1c0.2,0.3,0.6,0,0.5-0.3c-0.7-1.3-1.7-2.4-2.8-3.3
				C128.1,98.1,127.8,98.6,128.1,98.8L128.1,98.8z"/>
		</g>
		<g>
			<path class="st6" d="M132.2,99c0.9,0.9,1.6,1.9,2.2,3c0.2,0.3,0.6,0.1,0.5-0.3c-0.6-1.1-1.4-2.2-2.3-3.1
				C132.3,98.4,131.9,98.7,132.2,99L132.2,99z"/>
		</g>
		<g>
			<path class="st6" d="M137.5,99.9c0.6,0.8,1.1,1.7,1.5,2.6c0.1,0.3,0.6,0.1,0.5-0.3c-0.4-0.9-0.9-1.8-1.6-2.7
				c-0.1-0.1-0.3-0.1-0.4,0C137.4,99.6,137.4,99.8,137.5,99.9L137.5,99.9z"/>
		</g>
		<g>
			<path class="st6" d="M107.7,50c1.2,0.6,2.1,1.7,2.4,3.1c0.1,0.3,0.6,0.2,0.5-0.1c-0.3-1.5-1.3-2.8-2.7-3.4
				C107.6,49.4,107.3,49.9,107.7,50L107.7,50z"/>
		</g>
		<g>
			<path class="st6" d="M107.6,55c0.9,0.6,1.8,1.2,2.5,2c0.2,0.2,0.6-0.1,0.4-0.4c-0.8-0.8-1.7-1.5-2.6-2.1
				C107.6,54.4,107.3,54.8,107.6,55L107.6,55z"/>
		</g>
		<g>
			<path class="st6" d="M106.4,60.6c0.8,0.6,1.5,1.4,2,2.2c0.2,0.3,0.7,0,0.5-0.3c-0.6-0.9-1.3-1.7-2.2-2.4c-0.1-0.1-0.3,0-0.4,0.1
				C106.2,60.4,106.3,60.5,106.4,60.6L106.4,60.6z"/>
		</g>
		<g>
			<g>
				<path class="st9" d="M123.4,53.7c0,1.1,0.1,2.2,0.2,3.3c0,0.4,0.1,0.8,0.2,1.2c0.1,0.4,0.4,1.1-0.1,1.3c-0.1,0-0.8-0.3-0.9-0.4
					c-0.6-0.2-1.1-0.5-1.7-0.7c-1-0.4-2-0.7-3-1c-0.3-0.1-0.5,0.4-0.1,0.5c1.3,0.4,2.6,0.8,3.8,1.3c0.6,0.2,1.9,1.2,2.6,0.9
					c0.1,0,0.2-0.1,0.2-0.3c0.1-0.9-0.3-2.1-0.4-3c-0.1-1.1-0.2-2.2-0.2-3.3C123.9,53.3,123.4,53.3,123.4,53.7L123.4,53.7z"/>
			</g>
		</g>
		<g>
			<g>
				<path class="st9" d="M147.2,86.7c-1.2-0.4-2.3-0.9-3.4-1.4c-0.8-0.4-1.5-1-2.3-1.2c-0.1,0-0.2,0-0.3,0.1
					c-0.5,0.5-0.1,1.7-0.1,2.4c0.1,1.5,0,3,0,4.5c0,0.3,0.5,0.3,0.5,0c0.1-1.1,0.1-2.3,0.1-3.4c0-0.6,0-1.2-0.1-1.8
					c0-0.2,0-0.3,0-0.5c-0.2-0.6-0.1-0.7,0.3-0.3c0.8,0.2,1.7,0.9,2.5,1.3c0.9,0.4,1.8,0.8,2.7,1.1
					C147.4,87.3,147.5,86.8,147.2,86.7L147.2,86.7z"/>
			</g>
		</g>
	</g>
</g>
</svg>
