<?xml version="1.0" encoding="utf-8"?>
<!-- Generator: Adobe Illustrator 22.1.0, SVG Export Plug-In . SVG Version: 6.00 Build 0)  -->
<svg version="1.1" id="Layer_1" xmlns="http://www.w3.org/2000/svg" xmlns:xlink="http://www.w3.org/1999/xlink" x="0px" y="0px"
	 viewBox="0 0 310 360" style="enable-background:new 0 0 310 360;" xml:space="preserve">
<style type="text/css">
	.st0{fill-rule:evenodd;clip-rule:evenodd;fill:url(#SVGID_1_);}
	.st1{fill-rule:evenodd;clip-rule:evenodd;fill:url(#SVGID_2_);}
	.st2{fill-rule:evenodd;clip-rule:evenodd;fill:url(#SVGID_3_);}
	.st3{fill-rule:evenodd;clip-rule:evenodd;fill:#C61421;}
	.st4{fill-rule:evenodd;clip-rule:evenodd;fill:url(#SVGID_4_);}
	.st5{fill-rule:evenodd;clip-rule:evenodd;fill:url(#SVGID_5_);}
	.st6{fill-rule:evenodd;clip-rule:evenodd;fill:url(#SVGID_6_);}
	.st7{fill-rule:evenodd;clip-rule:evenodd;fill:url(#SVGID_7_);}
	.st8{fill-rule:evenodd;clip-rule:evenodd;fill:url(#SVGID_8_);}
	.st9{fill-rule:evenodd;clip-rule:evenodd;fill:url(#SVGID_9_);}
	.st10{fill-rule:evenodd;clip-rule:evenodd;fill:url(#SVGID_10_);}
	.st11{fill-rule:evenodd;clip-rule:evenodd;fill:url(#SVGID_11_);}
	.st12{fill-rule:evenodd;clip-rule:evenodd;fill:url(#SVGID_12_);}
	.st13{fill-rule:evenodd;clip-rule:evenodd;fill:url(#SVGID_13_);}
	.st14{fill-rule:evenodd;clip-rule:evenodd;fill:url(#SVGID_14_);}
	.st15{fill-rule:evenodd;clip-rule:evenodd;fill:url(#SVGID_15_);}
	.st16{fill-rule:evenodd;clip-rule:evenodd;fill:url(#SVGID_16_);}
	.st17{fill-rule:evenodd;clip-rule:evenodd;fill:#FFFFFF;}
	.st18{fill-rule:evenodd;clip-rule:evenodd;fill:url(#SVGID_17_);}
	.st19{fill-rule:evenodd;clip-rule:evenodd;fill:url(#SVGID_18_);}
	.st20{fill-rule:evenodd;clip-rule:evenodd;fill:url(#SVGID_19_);}
	.st21{fill-rule:evenodd;clip-rule:evenodd;fill:#CCCC33;}
	.st22{fill-rule:evenodd;clip-rule:evenodd;fill:url(#SVGID_20_);}
	.st23{fill-rule:evenodd;clip-rule:evenodd;fill:url(#SVGID_21_);}
	.st24{fill-rule:evenodd;clip-rule:evenodd;fill:url(#SVGID_22_);}
	.st25{fill-rule:evenodd;clip-rule:evenodd;fill:url(#SVGID_23_);}
	.st26{fill-rule:evenodd;clip-rule:evenodd;fill:url(#SVGID_24_);}
	.st27{fill-rule:evenodd;clip-rule:evenodd;fill:url(#SVGID_25_);}
	.st28{fill-rule:evenodd;clip-rule:evenodd;fill:url(#SVGID_26_);}
	.st29{fill-rule:evenodd;clip-rule:evenodd;fill:url(#SVGID_27_);}
	.st30{fill-rule:evenodd;clip-rule:evenodd;fill:url(#SVGID_28_);}
	.st31{fill-rule:evenodd;clip-rule:evenodd;fill:url(#SVGID_29_);}
	.st32{fill-rule:evenodd;clip-rule:evenodd;fill:url(#SVGID_30_);}
	.st33{fill-rule:evenodd;clip-rule:evenodd;fill:url(#SVGID_31_);}
	.st34{fill-rule:evenodd;clip-rule:evenodd;fill:url(#SVGID_32_);}
	.st35{fill-rule:evenodd;clip-rule:evenodd;fill:url(#SVGID_33_);}
	.st36{fill-rule:evenodd;clip-rule:evenodd;fill:url(#SVGID_34_);}
	.st37{fill-rule:evenodd;clip-rule:evenodd;fill:url(#SVGID_35_);}
	.st38{fill-rule:evenodd;clip-rule:evenodd;fill:#808080;}
	.st39{fill-rule:evenodd;clip-rule:evenodd;fill:url(#SVGID_36_);}
	.st40{fill-rule:evenodd;clip-rule:evenodd;fill:url(#SVGID_37_);}
	.st41{fill-rule:evenodd;clip-rule:evenodd;fill:url(#SVGID_38_);}
	.st42{fill-rule:evenodd;clip-rule:evenodd;fill:url(#SVGID_39_);}
	.st43{fill-rule:evenodd;clip-rule:evenodd;fill:url(#SVGID_40_);}
	.st44{fill-rule:evenodd;clip-rule:evenodd;fill:url(#SVGID_41_);}
	.st45{fill-rule:evenodd;clip-rule:evenodd;fill:url(#SVGID_42_);}
	.st46{fill-rule:evenodd;clip-rule:evenodd;fill:url(#SVGID_43_);}
	.st47{fill-rule:evenodd;clip-rule:evenodd;fill:url(#SVGID_44_);}
	.st48{fill-rule:evenodd;clip-rule:evenodd;fill:url(#SVGID_45_);}
	.st49{fill-rule:evenodd;clip-rule:evenodd;fill:url(#SVGID_46_);}
	.st50{fill-rule:evenodd;clip-rule:evenodd;fill:url(#SVGID_47_);}
	.st51{fill-rule:evenodd;clip-rule:evenodd;fill:url(#SVGID_48_);}
	.st52{fill-rule:evenodd;clip-rule:evenodd;fill:url(#SVGID_49_);}
	.st53{fill-rule:evenodd;clip-rule:evenodd;fill:url(#SVGID_50_);}
	.st54{fill-rule:evenodd;clip-rule:evenodd;fill:url(#SVGID_51_);}
	.st55{fill-rule:evenodd;clip-rule:evenodd;fill:url(#SVGID_52_);}
	.st56{fill-rule:evenodd;clip-rule:evenodd;fill:url(#SVGID_53_);}
	.st57{fill-rule:evenodd;clip-rule:evenodd;fill:url(#SVGID_54_);}
	.st58{fill-rule:evenodd;clip-rule:evenodd;fill:url(#SVGID_55_);}
	.st59{fill-rule:evenodd;clip-rule:evenodd;fill:url(#SVGID_56_);}
	.st60{fill-rule:evenodd;clip-rule:evenodd;fill:url(#SVGID_57_);}
	.st61{fill-rule:evenodd;clip-rule:evenodd;fill:url(#SVGID_58_);}
	.st62{fill-rule:evenodd;clip-rule:evenodd;fill:url(#SVGID_59_);}
	.st63{fill-rule:evenodd;clip-rule:evenodd;fill:url(#SVGID_60_);}
	.st64{fill-rule:evenodd;clip-rule:evenodd;fill:url(#SVGID_61_);}
	.st65{fill-rule:evenodd;clip-rule:evenodd;fill:url(#SVGID_62_);}
	.st66{fill-rule:evenodd;clip-rule:evenodd;fill:#999999;}
	.st67{fill-rule:evenodd;clip-rule:evenodd;fill:url(#SVGID_63_);}
	.st68{fill-rule:evenodd;clip-rule:evenodd;fill:url(#SVGID_64_);}
	.st69{fill:url(#SVGID_65_);}
	.st70{fill:url(#SVGID_66_);}
	.st71{fill-rule:evenodd;clip-rule:evenodd;fill:url(#SVGID_67_);}
	.st72{fill-rule:evenodd;clip-rule:evenodd;fill:url(#SVGID_68_);}
	.st73{fill-rule:evenodd;clip-rule:evenodd;fill:url(#SVGID_69_);}
	.st74{fill-rule:evenodd;clip-rule:evenodd;fill:url(#SVGID_70_);}
	.st75{fill-rule:evenodd;clip-rule:evenodd;fill:url(#SVGID_71_);}
	.st76{fill-rule:evenodd;clip-rule:evenodd;fill:url(#SVGID_72_);}
	.st77{fill-rule:evenodd;clip-rule:evenodd;fill:url(#SVGID_73_);}
	.st78{fill-rule:evenodd;clip-rule:evenodd;fill:url(#SVGID_74_);}
	.st79{fill-rule:evenodd;clip-rule:evenodd;fill:url(#SVGID_75_);}
	.st80{fill:#FFFFFF;}
	.st81{font-family:'Nunito-Bold';}
	.st82{font-size:19.2633px;}
</style>
<g>
	<linearGradient id="SVGID_1_" gradientUnits="userSpaceOnUse" x1="50.8295" y1="355.3616" x2="50.8295" y2="344.9327">
		<stop  offset="0" style="stop-color:#204954"/>
		<stop  offset="1" style="stop-color:#1B3840"/>
	</linearGradient>
	<polygon class="st0" points="24.1,344.9 77.5,344.9 68.3,355.4 32.2,353.5 24.1,344.9 	"/>
	<linearGradient id="SVGID_2_" gradientUnits="userSpaceOnUse" x1="259.1702" y1="355.3616" x2="259.1702" y2="344.9327">
		<stop  offset="0" style="stop-color:#204954"/>
		<stop  offset="1" style="stop-color:#1B3840"/>
	</linearGradient>
	<polygon class="st1" points="285.9,344.9 232.5,344.9 241.7,355.4 277.8,353.5 285.9,344.9 	"/>
	<linearGradient id="SVGID_3_" gradientUnits="userSpaceOnUse" x1="155.0007" y1="357.5592" x2="155.0007" y2="344.9327">
		<stop  offset="0" style="stop-color:#204954"/>
		<stop  offset="1" style="stop-color:#1B3840"/>
	</linearGradient>
	<polygon class="st2" points="101.3,344.9 208.7,344.9 197.5,357.6 112.5,357.6 101.3,344.9 	"/>
	<polygon class="st3" points="6.5,37.2 303.5,37.2 303.5,343.2 6.5,343.2 6.5,37.2 	"/>
	<linearGradient id="SVGID_4_" gradientUnits="userSpaceOnUse" x1="3.1071" y1="35.6744" x2="3.1071" y2="31.9342">
		<stop  offset="0" style="stop-color:#6287C9"/>
		<stop  offset="1" style="stop-color:#3B597D"/>
	</linearGradient>
	<polygon class="st4" points="1.2,34.6 3.9,35.7 5,34.6 3.9,31.9 1.2,34.6 	"/>
	<linearGradient id="SVGID_5_" gradientUnits="userSpaceOnUse" x1="5.205" y1="37.2254" x2="5.205" y2="34.5784">
		<stop  offset="0" style="stop-color:#6287C9"/>
		<stop  offset="1" style="stop-color:#3B597D"/>
	</linearGradient>
	<polygon class="st5" points="5,34.6 3.9,35.7 6.5,37.2 5,34.6 	"/>
	<linearGradient id="SVGID_6_" gradientUnits="userSpaceOnUse" x1="154.9986" y1="357.5592" x2="154.9986" y2="345.8713">
		<stop  offset="0" style="stop-color:#204270"/>
		<stop  offset="1" style="stop-color:#335D94"/>
	</linearGradient>
	<polygon class="st6" points="305,345.9 5,345.9 3.9,348.5 29.3,348.5 32.2,353.5 68.3,355.4 72.3,348.5 107.2,348.5 112.5,357.6 
		197.5,357.6 202.8,348.5 237.7,348.5 241.7,355.4 277.8,353.5 280.7,348.5 306.1,348.5 305,345.9 	"/>
	<linearGradient id="SVGID_7_" gradientUnits="userSpaceOnUse" x1="155.0003" y1="345.8713" x2="155.0003" y2="343.2258">
		<stop  offset="0" style="stop-color:#87B5F5"/>
		<stop  offset="1" style="stop-color:#4E76A6"/>
	</linearGradient>
	<polygon class="st7" points="5,345.9 305,345.9 303.5,343.2 155,343.2 6.5,343.2 5,345.9 	"/>
	<linearGradient id="SVGID_8_" gradientUnits="userSpaceOnUse" x1="303.4708" y1="190.2255" x2="306.1149" y2="190.2255">
		<stop  offset="0" style="stop-color:#4E76A6"/>
		<stop  offset="1" style="stop-color:#87B5F5"/>
	</linearGradient>
	<polygon class="st8" points="303.5,37.2 303.5,343.2 306.1,344.8 306.1,35.7 303.5,37.2 	"/>
	<linearGradient id="SVGID_9_" gradientUnits="userSpaceOnUse" x1="3.8823" y1="190.2255" x2="6.5278" y2="190.2255">
		<stop  offset="0" style="stop-color:#335D94"/>
		<stop  offset="1" style="stop-color:#204270"/>
	</linearGradient>
	<polygon class="st9" points="6.5,37.2 6.5,343.2 3.9,344.8 3.9,35.7 6.5,37.2 	"/>
	<linearGradient id="SVGID_10_" gradientUnits="userSpaceOnUse" x1="155.0003" y1="37.2254" x2="155.0003" y2="34.5784">
		<stop  offset="0" style="stop-color:#204270"/>
		<stop  offset="1" style="stop-color:#335D94"/>
	</linearGradient>
	<polygon class="st10" points="5,34.6 305,34.6 303.5,37.2 6.5,37.2 5,34.6 	"/>
	<linearGradient id="SVGID_11_" gradientUnits="userSpaceOnUse" x1="306.8931" y1="348.5168" x2="306.8931" y2="344.7766">
		<stop  offset="0" style="stop-color:#6287C9"/>
		<stop  offset="1" style="stop-color:#3B597D"/>
	</linearGradient>
	<polygon class="st11" points="308.8,345.9 306.1,344.8 305,345.9 306.1,348.5 308.8,345.9 	"/>
	<linearGradient id="SVGID_12_" gradientUnits="userSpaceOnUse" x1="304.7928" y1="345.8713" x2="304.7928" y2="343.2258">
		<stop  offset="0" style="stop-color:#6287C9"/>
		<stop  offset="1" style="stop-color:#3B597D"/>
	</linearGradient>
	<polygon class="st12" points="305,345.9 306.1,344.8 303.5,343.2 305,345.9 	"/>
	<linearGradient id="SVGID_13_" gradientUnits="userSpaceOnUse" x1="3.1071" y1="348.5168" x2="3.1071" y2="344.7766">
		<stop  offset="0" style="stop-color:#6287C9"/>
		<stop  offset="1" style="stop-color:#3B597D"/>
	</linearGradient>
	<polygon class="st13" points="1.2,345.9 3.9,344.8 5,345.9 3.9,348.5 1.2,345.9 	"/>
	<linearGradient id="SVGID_14_" gradientUnits="userSpaceOnUse" x1="5.205" y1="345.8713" x2="5.205" y2="343.2258">
		<stop  offset="0" style="stop-color:#6287C9"/>
		<stop  offset="1" style="stop-color:#3B597D"/>
	</linearGradient>
	<polygon class="st14" points="5,345.9 3.9,344.8 6.5,343.2 5,345.9 	"/>
	<linearGradient id="SVGID_15_" gradientUnits="userSpaceOnUse" x1="306.8931" y1="35.6744" x2="306.8931" y2="31.9342">
		<stop  offset="0" style="stop-color:#6287C9"/>
		<stop  offset="1" style="stop-color:#3B597D"/>
	</linearGradient>
	<polygon class="st15" points="308.8,34.6 306.1,35.7 305,34.6 306.1,31.9 308.8,34.6 	"/>
	<linearGradient id="SVGID_16_" gradientUnits="userSpaceOnUse" x1="304.7928" y1="37.2254" x2="304.7928" y2="34.5784">
		<stop  offset="0" style="stop-color:#6287C9"/>
		<stop  offset="1" style="stop-color:#3B597D"/>
	</linearGradient>
	<polygon class="st16" points="305,34.6 306.1,35.7 303.5,37.2 305,34.6 	"/>
	<path class="st17" d="M165.8,47.8h3.1l-3.1,3.1h3.1l3.1-3.1h12.5l1.6,1.6l21.5,0l1.6,1.6h28l5.2,5.2h42.4V96l5.2,5.2v3.1v12.3
		l3.1,3.1v43.1l-3.1,3.1v28.4v3.1l-5.2,5.2v43.9l5.2,5.2v3.1v74.9h-62.6l-1.5,1.5h-3.1l1.5-1.5h-3.1l-2.5,2.4h-3.1l2.5-2.4H215
		l-3.1,3.1h-3.1l3.1-3.1h-3.1l-3.1,3.1h-3.1l3.1-3.1h-3.1l-3.1,3.1h-3.1l3.1-3.1h-3.1l-3.1,3.1h-42h-4.3h-37l-2.5-2.5H80.6l-2.5,2.5
		H40.4l-3.1-3.1H20.2v-48.2l-3.1-3.1v-36.1V232v-14.1v-11.5v-9.1l3.1-3.1v-85.7l-2.5-2.5V78.8l2.5-2.5V50.9h22.5h3.1l5.2,5.2h60.6
		l5.2-5.2h3.1l1.5-1.5h3.1l-1.5,1.5h3.1l2.5-2.5h3.1l-2.5,2.5h3.1l3.1-3.1h3.1l-3.1,3.1h3.1l3.1-3.1h3.1l-3.1,3.1h3.1l3.1-3.1h3.1
		l-3.1,3.1h3.1l3.1-3.1h3.1l-3.1,3.1h3.1l3.1-3.1h3.1l-3.1,3.1h3.1L165.8,47.8L165.8,47.8z M287.8,252.7v55.1l-3.2,3.2v-61.5
		L287.8,252.7L287.8,252.7z M287.8,310.8v16.8h-16.8l3.2-3.2h10.3V314L287.8,310.8L287.8,310.8z M268,327.6H83.2l3.2-3.2h184.8
		L268,327.6L268,327.6z M80.2,327.6H38.4l-3.2-3.2h48.2L80.2,327.6L80.2,327.6z M35.3,327.6H22.2v-44.3V232v-14.1v-25.7v-81.7
		l3.2,3.2v210.7h6.7L35.3,327.6L35.3,327.6z M22.2,107.4V52.9h22.5l3.2,3.2H25.4v54.6L22.2,107.4L22.2,107.4z M20.2,195.5v7.8
		l-2.2,2.2v-7.8L20.2,195.5L20.2,195.5z M18,243.1l2.2,2.2V280l-2.2-2.2V243.1L18,243.1z M117.9,52.9H236l3.2,3.2H114.6L117.9,52.9
		L117.9,52.9z M287.8,102.2v94l-3.2,3.2V99L287.8,102.2L287.8,102.2z M27.4,58.1v264.3H155h127.6V97.1V94V58.1h-38.4h-3.1H27.4
		L27.4,58.1z"/>
	<linearGradient id="SVGID_17_" gradientUnits="userSpaceOnUse" x1="203.8317" y1="54.4724" x2="239.1683" y2="54.4724">
		<stop  offset="0" style="stop-color:#00393D"/>
		<stop  offset="1" style="stop-color:#006E78"/>
	</linearGradient>
	<polygon class="st18" points="236,52.9 207,52.9 203.8,56.1 239.2,56.1 236,52.9 	"/>
	<linearGradient id="SVGID_18_" gradientUnits="userSpaceOnUse" x1="35.1642" y1="325.9787" x2="83.3897" y2="325.9787">
		<stop  offset="0" style="stop-color:#006E78"/>
		<stop  offset="1" style="stop-color:#000000"/>
	</linearGradient>
	<polygon class="st19" points="83.4,324.4 35.2,324.4 38.4,327.6 80.2,327.6 83.4,324.4 	"/>
	<linearGradient id="SVGID_19_" gradientUnits="userSpaceOnUse" x1="287.8294" y1="327.5829" x2="279.4508" y2="319.2044">
		<stop  offset="0" style="stop-color:#00393D"/>
		<stop  offset="1" style="stop-color:#006E78"/>
	</linearGradient>
	<polygon class="st20" points="274.3,324.4 271.1,327.6 287.8,327.6 287.8,310.8 284.6,314 284.6,324.4 274.3,324.4 	"/>
	<polygon class="st21" points="289.8,248.4 289.8,200.5 287.3,203 287.3,245.9 289.8,248.4 	"/>
	<polygon class="st21" points="50.2,50.9 52.7,53.4 109.8,53.4 112.3,50.9 50.2,50.9 	"/>
	<linearGradient id="SVGID_20_" gradientUnits="userSpaceOnUse" x1="44.6472" y1="91.3782" x2="14.1534" y2="60.8844">
		<stop  offset="0" style="stop-color:#006E78"/>
		<stop  offset="1" style="stop-color:#00393D"/>
	</linearGradient>
	<polygon class="st22" points="47.9,56.1 44.7,52.9 22.2,52.9 22.2,107.4 25.4,110.6 25.4,56.1 47.9,56.1 	"/>
	<polygon class="st21" points="252.4,50.9 254.9,53.4 289.2,53.4 291.8,50.9 252.4,50.9 	"/>
	<path class="st21" d="M11.4,310.9v-3.1l4,4v3.1L11.4,310.9L11.4,310.9z M11.4,304.8v-3.1l4,4v3.1L11.4,304.8L11.4,304.8z
		 M11.4,298.7v-3.1l4,4v3.1L11.4,298.7L11.4,298.7z"/>
	<path class="st21" d="M287.8,75v3.1l4-4v-3.1L287.8,75L287.8,75z M287.8,68.9V72l4-4v-3.1L287.8,68.9L287.8,68.9z M287.8,62.8v3.1
		l4-4v-3.1L287.8,62.8L287.8,62.8z"/>
	<linearGradient id="SVGID_21_" gradientUnits="userSpaceOnUse" x1="19.2951" y1="239.4435" x2="19.2951" y2="205.1482">
		<stop  offset="0" style="stop-color:#FFFFFF"/>
		<stop  offset="1" style="stop-color:#000000"/>
	</linearGradient>
	<polygon class="st23" points="20.2,205.1 18.4,206.9 18.4,237.7 20.2,239.4 20.2,205.1 	"/>
	<linearGradient id="SVGID_22_" gradientUnits="userSpaceOnUse" x1="40.3574" y1="330.4588" x2="60.0143" y2="330.4588">
		<stop  offset="0" style="stop-color:#FFFFFF"/>
		<stop  offset="1" style="stop-color:#000000"/>
	</linearGradient>
	<polygon class="st24" points="40.4,329.6 42.1,331.3 58.2,331.3 60,329.6 40.4,329.6 	"/>
	<linearGradient id="SVGID_23_" gradientUnits="userSpaceOnUse" x1="110.1524" y1="330.4588" x2="150.1595" y2="330.4588">
		<stop  offset="0" style="stop-color:#FFFFFF"/>
		<stop  offset="1" style="stop-color:#000000"/>
	</linearGradient>
	<polygon class="st25" points="110.2,329.6 111.9,331.3 148.4,331.3 150.2,329.6 110.2,329.6 	"/>
	<linearGradient id="SVGID_24_" gradientUnits="userSpaceOnUse" x1="151.9338" y1="330.4588" x2="165.1603" y2="330.4588">
		<stop  offset="0" style="stop-color:#FFFFFF"/>
		<stop  offset="1" style="stop-color:#000000"/>
	</linearGradient>
	<polygon class="st26" points="151.9,329.6 153.7,331.3 163.4,331.3 165.2,329.6 151.9,329.6 	"/>
	<linearGradient id="SVGID_25_" gradientUnits="userSpaceOnUse" x1="166.9346" y1="330.4588" x2="188.5624" y2="330.4588">
		<stop  offset="0" style="stop-color:#FFFFFF"/>
		<stop  offset="1" style="stop-color:#000000"/>
	</linearGradient>
	<polygon class="st27" points="166.9,329.6 168.7,331.3 186.8,331.3 188.6,329.6 166.9,329.6 	"/>
	<linearGradient id="SVGID_26_" gradientUnits="userSpaceOnUse" x1="154.8681" y1="34.5784" x2="154.8681" y2="2.4408">
		<stop  offset="0" style="stop-color:#273F5E"/>
		<stop  offset="1" style="stop-color:#4E688C"/>
	</linearGradient>
	<path class="st28" d="M20.1,34.6h269.6L264.5,6c-2.1-2.4-4.8-3.6-7.9-3.6H53.2c-3.1,0-5.9,1.2-7.9,3.6L20.1,34.6L20.1,34.6z"/>
	<linearGradient id="SVGID_27_" gradientUnits="userSpaceOnUse" x1="154.9986" y1="34.5784" x2="154.9986" y2="2.4408">
		<stop  offset="0" style="stop-color:#4E76A6"/>
		<stop  offset="1" style="stop-color:#87B5F5"/>
	</linearGradient>
	<path class="st29" d="M305,34.6h-25H29.7H5l-1.1-2.6h21.3c3.9,0,7.2-1.9,9.1-5.3L46.1,6.4c1.5-2.5,4-3.9,6.9-3.9h203.8
		c2.9,0,5.4,1.4,6.9,3.9l11.8,20.3c2,3.3,5.3,5.3,9.1,5.3h21.5L305,34.6L305,34.6z"/>
	<linearGradient id="SVGID_28_" gradientUnits="userSpaceOnUse" x1="44.6272" y1="18.5069" x2="74.0403" y2="18.5069">
		<stop  offset="0.1747" style="stop-color:#FFFFFF"/>
		<stop  offset="0.2975" style="stop-color:#FAFBFB"/>
		<stop  offset="0.4335" style="stop-color:#EDEEF0"/>
		<stop  offset="0.5759" style="stop-color:#D7D9DD"/>
		<stop  offset="0.7226" style="stop-color:#B8BCC3"/>
		<stop  offset="0.8711" style="stop-color:#9196A2"/>
		<stop  offset="1" style="stop-color:#687080"/>
	</linearGradient>
	<polygon class="st30" points="52.8,11.5 74,11.5 65.9,25.5 44.6,25.5 52.8,11.5 	"/>
	<linearGradient id="SVGID_29_" gradientUnits="userSpaceOnUse" x1="235.7" y1="18.5069" x2="265.1118" y2="18.5069">
		<stop  offset="1.100000e-07" style="stop-color:#687080"/>
		<stop  offset="0.1289" style="stop-color:#9196A2"/>
		<stop  offset="0.2774" style="stop-color:#B8BCC3"/>
		<stop  offset="0.4241" style="stop-color:#D7D9DD"/>
		<stop  offset="0.5665" style="stop-color:#EDEEF0"/>
		<stop  offset="0.7025" style="stop-color:#FAFBFB"/>
		<stop  offset="0.8253" style="stop-color:#FFFFFF"/>
	</linearGradient>
	<polygon class="st31" points="257,11.5 235.7,11.5 243.9,25.5 265.1,25.5 257,11.5 	"/>
	<linearGradient id="SVGID_30_" gradientUnits="userSpaceOnUse" x1="44.6272" y1="23.8254" x2="65.8871" y2="23.8254">
		<stop  offset="0" style="stop-color:#000000"/>
		<stop  offset="1" style="stop-color:#56788A"/>
	</linearGradient>
	<polygon class="st32" points="44.6,25.5 63.9,22.1 65.9,25.5 44.6,25.5 	"/>
	<linearGradient id="SVGID_31_" gradientUnits="userSpaceOnUse" x1="52.779" y1="13.1897" x2="74.0403" y2="13.1897">
		<stop  offset="0" style="stop-color:#FFFFFF"/>
		<stop  offset="1" style="stop-color:#ADC9D9"/>
	</linearGradient>
	<polygon class="st33" points="68.2,14.9 74,11.5 52.8,11.5 68.2,14.9 	"/>
	<linearGradient id="SVGID_32_" gradientUnits="userSpaceOnUse" x1="68.9951" y1="25.5085" x2="68.9951" y2="11.5052">
		<stop  offset="0" style="stop-color:#739CB0"/>
		<stop  offset="1" style="stop-color:#476B96"/>
	</linearGradient>
	<polygon class="st34" points="68.2,14.9 63.9,22.1 65.9,25.5 74,11.5 68.2,14.9 	"/>
	<linearGradient id="SVGID_33_" gradientUnits="userSpaceOnUse" x1="243.8532" y1="23.8254" x2="265.1118" y2="23.8254">
		<stop  offset="0" style="stop-color:#56788A"/>
		<stop  offset="1" style="stop-color:#000000"/>
	</linearGradient>
	<polygon class="st35" points="265.1,25.5 245.8,22.1 243.9,25.5 265.1,25.5 	"/>
	<linearGradient id="SVGID_34_" gradientUnits="userSpaceOnUse" x1="235.7" y1="13.1897" x2="256.9578" y2="13.1897">
		<stop  offset="0" style="stop-color:#ADC9D9"/>
		<stop  offset="1" style="stop-color:#FFFFFF"/>
	</linearGradient>
	<polygon class="st36" points="241.6,14.9 235.7,11.5 257,11.5 241.6,14.9 	"/>
	<linearGradient id="SVGID_35_" gradientUnits="userSpaceOnUse" x1="240.7442" y1="25.5085" x2="240.7442" y2="11.5052">
		<stop  offset="0" style="stop-color:#739CB0"/>
		<stop  offset="1" style="stop-color:#476B96"/>
	</linearGradient>
	<polygon class="st37" points="241.6,14.9 245.8,22.1 243.9,25.5 235.7,11.5 241.6,14.9 	"/>
	<polygon class="st38" points="133.3,348.5 176.7,348.5 173.5,354 136.5,354 133.3,348.5 	"/>
	<radialGradient id="SVGID_36_" cx="154.9996" cy="351.246" r="20.4659" gradientUnits="userSpaceOnUse">
		<stop  offset="0" style="stop-color:#F8FC86"/>
		<stop  offset="1" style="stop-color:#EDCE20"/>
	</radialGradient>
	<polygon class="st39" points="135.6,349.8 174.4,349.8 172.8,352.7 137.2,352.7 135.6,349.8 	"/>
	<radialGradient id="SVGID_37_" cx="155.0004" cy="351.2447" r="27.2858" gradientUnits="userSpaceOnUse">
		<stop  offset="0" style="stop-color:#EFFF57"/>
		<stop  offset="1" style="stop-color:#000000"/>
	</radialGradient>
	<path class="st40" d="M137.6,350.5h34.7c0.2,0,0.4,0.1,0.5,0.3c0.1,0.2,0.1,0.4,0,0.5l-0.2,0.3c-0.2,0.3-0.5,0.5-0.8,0.5h-33.7
		c-0.3,0-0.6-0.2-0.8-0.5l-0.2-0.3c-0.1-0.2-0.1-0.4,0-0.5C137.3,350.6,137.4,350.5,137.6,350.5L137.6,350.5z"/>
	<radialGradient id="SVGID_38_" cx="154.9997" cy="351.244" r="21.9569" gradientUnits="userSpaceOnUse">
		<stop  offset="0" style="stop-color:#FEFFCB"/>
		<stop  offset="1" style="stop-color:#000000"/>
	</radialGradient>
	<path class="st41" d="M137.9,351.1h34.3l0,0.1c-0.1,0.1-0.1,0.1-0.2,0.1h-33.7C138,351.3,138,351.3,137.9,351.1L137.9,351.1
		L137.9,351.1z"/>
	<linearGradient id="SVGID_39_" gradientUnits="userSpaceOnUse" x1="135.2471" y1="353.9971" x2="135.2471" y2="348.4949">
		<stop  offset="0" style="stop-color:#739CB0"/>
		<stop  offset="1" style="stop-color:#476B96"/>
	</linearGradient>
	<polygon class="st42" points="135.6,349.8 137.2,352.7 136.5,354 133.3,348.5 135.6,349.8 	"/>
	<linearGradient id="SVGID_40_" gradientUnits="userSpaceOnUse" x1="154.9996" y1="353.9971" x2="154.9996" y2="352.675">
		<stop  offset="0" style="stop-color:#99B2BF"/>
		<stop  offset="1" style="stop-color:#9BBD67"/>
	</linearGradient>
	<polygon class="st43" points="137.2,352.7 155,352.7 172.8,352.7 173.5,354 155,354 136.5,354 137.2,352.7 	"/>
	<linearGradient id="SVGID_41_" gradientUnits="userSpaceOnUse" x1="155.0006" y1="349.817" x2="155.0006" y2="348.4949">
		<stop  offset="0" style="stop-color:#94885C"/>
		<stop  offset="1" style="stop-color:#2C507A"/>
	</linearGradient>
	<polygon class="st44" points="176.7,348.5 174.4,349.8 155,349.8 135.6,349.8 133.3,348.5 155,348.5 176.7,348.5 	"/>
	<linearGradient id="SVGID_42_" gradientUnits="userSpaceOnUse" x1="174.7535" y1="353.9971" x2="174.7535" y2="348.4949">
		<stop  offset="0" style="stop-color:#739CB0"/>
		<stop  offset="1" style="stop-color:#476B96"/>
	</linearGradient>
	<polygon class="st45" points="174.4,349.8 176.7,348.5 173.5,354 172.8,352.7 174.4,349.8 	"/>
	<linearGradient id="SVGID_43_" gradientUnits="userSpaceOnUse" x1="110.9868" y1="351.246" x2="130.8911" y2="351.246">
		<stop  offset="0.1747" style="stop-color:#FFFFFF"/>
		<stop  offset="0.2975" style="stop-color:#FAFBFB"/>
		<stop  offset="0.4335" style="stop-color:#EDEEF0"/>
		<stop  offset="0.5759" style="stop-color:#D7D9DD"/>
		<stop  offset="0.7226" style="stop-color:#B8BCC3"/>
		<stop  offset="0.8711" style="stop-color:#9196A2"/>
		<stop  offset="1" style="stop-color:#687080"/>
	</linearGradient>
	<polygon class="st46" points="114.2,354 130.9,354 127.7,348.5 111,348.5 114.2,354 	"/>
	<linearGradient id="SVGID_44_" gradientUnits="userSpaceOnUse" x1="179.1082" y1="351.246" x2="199.0146" y2="351.246">
		<stop  offset="1.100000e-07" style="stop-color:#687080"/>
		<stop  offset="0.1289" style="stop-color:#9196A2"/>
		<stop  offset="0.2774" style="stop-color:#B8BCC3"/>
		<stop  offset="0.4241" style="stop-color:#D7D9DD"/>
		<stop  offset="0.5665" style="stop-color:#EDEEF0"/>
		<stop  offset="0.7025" style="stop-color:#FAFBFB"/>
		<stop  offset="0.8253" style="stop-color:#FFFFFF"/>
	</linearGradient>
	<polygon class="st47" points="195.8,354 179.1,354 182.3,348.5 199,348.5 195.8,354 	"/>
	<linearGradient id="SVGID_45_" gradientUnits="userSpaceOnUse" x1="110.9868" y1="349.156" x2="127.6898" y2="349.156">
		<stop  offset="0" style="stop-color:#FFFFFF"/>
		<stop  offset="1" style="stop-color:#ADC9D9"/>
	</linearGradient>
	<polygon class="st48" points="111,348.5 126.9,349.8 127.7,348.5 111,348.5 	"/>
	<linearGradient id="SVGID_46_" gradientUnits="userSpaceOnUse" x1="114.1879" y1="353.3361" x2="130.8911" y2="353.3361">
		<stop  offset="0" style="stop-color:#000000"/>
		<stop  offset="1" style="stop-color:#56788A"/>
	</linearGradient>
	<polygon class="st49" points="128.6,352.7 130.9,354 114.2,354 128.6,352.7 	"/>
	<linearGradient id="SVGID_47_" gradientUnits="userSpaceOnUse" x1="128.9093" y1="353.9971" x2="128.9093" y2="348.4949">
		<stop  offset="0" style="stop-color:#3A6278"/>
		<stop  offset="1" style="stop-color:#273361"/>
	</linearGradient>
	<polygon class="st50" points="128.6,352.7 126.9,349.8 127.7,348.5 130.9,354 128.6,352.7 	"/>
	<linearGradient id="SVGID_48_" gradientUnits="userSpaceOnUse" x1="182.3114" y1="349.156" x2="199.0146" y2="349.156">
		<stop  offset="0" style="stop-color:#ADC9D9"/>
		<stop  offset="1" style="stop-color:#FFFFFF"/>
	</linearGradient>
	<polygon class="st51" points="199,348.5 183.1,349.8 182.3,348.5 199,348.5 	"/>
	<linearGradient id="SVGID_49_" gradientUnits="userSpaceOnUse" x1="179.1082" y1="353.3361" x2="195.8114" y2="353.3361">
		<stop  offset="0" style="stop-color:#56788A"/>
		<stop  offset="1" style="stop-color:#000000"/>
	</linearGradient>
	<polygon class="st52" points="181.4,352.7 179.1,354 195.8,354 181.4,352.7 	"/>
	<linearGradient id="SVGID_50_" gradientUnits="userSpaceOnUse" x1="181.09" y1="353.9971" x2="181.09" y2="348.4949">
		<stop  offset="0" style="stop-color:#3A6278"/>
		<stop  offset="1" style="stop-color:#273361"/>
	</linearGradient>
	<polygon class="st53" points="181.4,352.7 183.1,349.8 182.3,348.5 179.1,354 181.4,352.7 	"/>
	<g>
		<radialGradient id="SVGID_51_" cx="50.8294" cy="350.2246" r="9.7287" gradientUnits="userSpaceOnUse">
			<stop  offset="0" style="stop-color:#F8FC86"/>
			<stop  offset="1" style="stop-color:#EDCE20"/>
		</radialGradient>
		<polygon class="st54" points="58.8,351.5 60.3,348.9 41.3,348.9 42.4,350.7 58.8,351.5 		"/>
		<radialGradient id="SVGID_52_" cx="50.8301" cy="350.215" r="10.4963" gradientUnits="userSpaceOnUse">
			<stop  offset="0" style="stop-color:#EFFF57"/>
			<stop  offset="1" style="stop-color:#000000"/>
		</radialGradient>
		<polygon class="st55" points="58.4,350.9 42.8,350 42.5,349.6 59.2,349.6 58.4,350.9 		"/>
		<linearGradient id="SVGID_53_" gradientUnits="userSpaceOnUse" x1="40.7088" y1="351.9707" x2="40.7088" y2="347.5784">
			<stop  offset="0" style="stop-color:#739CB0"/>
			<stop  offset="1" style="stop-color:#476B96"/>
		</linearGradient>
		<polygon class="st56" points="41.6,352 42.4,350.7 41.3,348.9 39,347.6 41.6,352 		"/>
		<linearGradient id="SVGID_54_" gradientUnits="userSpaceOnUse" x1="60.7001" y1="352.912" x2="60.7001" y2="347.5784">
			<stop  offset="0" style="stop-color:#739CB0"/>
			<stop  offset="1" style="stop-color:#476B96"/>
		</linearGradient>
		<polygon class="st57" points="58.8,351.5 59.5,352.9 62.6,347.6 60.3,348.9 58.8,351.5 		"/>
		<linearGradient id="SVGID_55_" gradientUnits="userSpaceOnUse" x1="50.5558" y1="352.912" x2="50.5558" y2="350.687">
			<stop  offset="0" style="stop-color:#99B2BF"/>
			<stop  offset="1" style="stop-color:#9BBD67"/>
		</linearGradient>
		<polygon class="st58" points="59.5,352.9 58.8,351.5 42.4,350.7 41.6,352 59.5,352.9 		"/>
		<linearGradient id="SVGID_56_" gradientUnits="userSpaceOnUse" x1="50.8295" y1="348.9018" x2="50.8295" y2="347.5784">
			<stop  offset="0" style="stop-color:#94885C"/>
			<stop  offset="1" style="stop-color:#2C507A"/>
		</linearGradient>
		<polygon class="st59" points="41.3,348.9 60.3,348.9 62.6,347.6 39,347.6 41.3,348.9 		"/>
	</g>
	<g>
		
			<radialGradient id="SVGID_57_" cx="102.765" cy="350.2246" r="9.7273" gradientTransform="matrix(-1 0 0 1 361.9355 0)" gradientUnits="userSpaceOnUse">
			<stop  offset="0" style="stop-color:#F8FC86"/>
			<stop  offset="1" style="stop-color:#EDCE20"/>
		</radialGradient>
		<polygon class="st60" points="251.2,351.5 249.7,348.9 268.7,348.9 267.6,350.7 251.2,351.5 		"/>
		
			<radialGradient id="SVGID_58_" cx="102.7653" cy="350.215" r="10.4949" gradientTransform="matrix(-1 0 0 1 361.9355 0)" gradientUnits="userSpaceOnUse">
			<stop  offset="0" style="stop-color:#EFFF57"/>
			<stop  offset="1" style="stop-color:#000000"/>
		</radialGradient>
		<polygon class="st61" points="251.6,350.9 267.2,350 267.5,349.6 250.8,349.6 251.6,350.9 		"/>
		
			<linearGradient id="SVGID_59_" gradientUnits="userSpaceOnUse" x1="92.6437" y1="351.9707" x2="92.6437" y2="347.5784" gradientTransform="matrix(-1 0 0 1 361.9355 0)">
			<stop  offset="0" style="stop-color:#739CB0"/>
			<stop  offset="1" style="stop-color:#476B96"/>
		</linearGradient>
		<polygon class="st62" points="268.4,352 267.6,350.7 268.7,348.9 271,347.6 268.4,352 		"/>
		
			<linearGradient id="SVGID_60_" gradientUnits="userSpaceOnUse" x1="112.6356" y1="352.912" x2="112.6356" y2="347.5784" gradientTransform="matrix(-1 0 0 1 361.9355 0)">
			<stop  offset="0" style="stop-color:#739CB0"/>
			<stop  offset="1" style="stop-color:#476B96"/>
		</linearGradient>
		<polygon class="st63" points="251.2,351.5 250.5,352.9 247.4,347.6 249.7,348.9 251.2,351.5 		"/>
		
			<linearGradient id="SVGID_61_" gradientUnits="userSpaceOnUse" x1="102.4923" y1="352.912" x2="102.4923" y2="350.687" gradientTransform="matrix(-1 0 0 1 361.9355 0)">
			<stop  offset="0" style="stop-color:#99B2BF"/>
			<stop  offset="1" style="stop-color:#9BBD67"/>
		</linearGradient>
		<polygon class="st64" points="250.5,352.9 251.2,351.5 267.6,350.7 268.4,352 250.5,352.9 		"/>
		
			<linearGradient id="SVGID_62_" gradientUnits="userSpaceOnUse" x1="102.7653" y1="348.9018" x2="102.7653" y2="347.5784" gradientTransform="matrix(-1 0 0 1 361.9355 0)">
			<stop  offset="0" style="stop-color:#94885C"/>
			<stop  offset="1" style="stop-color:#2C507A"/>
		</linearGradient>
		<polygon class="st65" points="268.7,348.9 249.7,348.9 247.4,347.6 271,347.6 268.7,348.9 		"/>
	</g>
	<path class="st66" d="M83.2,7.4L71.3,28c-0.5,0.8-0.5,1.8,0,2.7c0.5,0.8,1.3,1.3,2.3,1.3h162.6c1,0,1.8-0.5,2.3-1.3
		c0.5-0.8,0.5-1.8,0-2.7l-12-20.6c-0.4-0.7-1-1.3-1.7-1.7c-0.7-0.4-1.5-0.6-2.3-0.6H87.2c-0.8,0-1.6,0.2-2.3,0.6
		C84.2,6.1,83.7,6.7,83.2,7.4L83.2,7.4z"/>
	<path class="st3" d="M73.6,29.3L73.6,29.3h162.6l0,0l-12-20.6c-0.4-0.6-1-1-1.7-1H87.2c-0.4,0-0.7,0.1-1,0.2
		c-0.3,0.2-0.5,0.4-0.7,0.7L73.6,29.3L73.6,29.3z"/>
	<linearGradient id="SVGID_63_" gradientUnits="userSpaceOnUse" x1="154.8692" y1="11.6449" x2="154.8692" y2="8.3938">
		<stop  offset="0" style="stop-color:#000000"/>
		<stop  offset="1" style="stop-color:#1068FF"/>
	</linearGradient>
	<path class="st67" d="M225.2,11.6L223.6,9c-0.3-0.4-0.6-0.7-1.1-0.7H87.2c-0.2,0-0.5,0-0.7,0.2c-0.2,0.1-0.4,0.3-0.5,0.5l-1.5,2.6
		H225.2L225.2,11.6z"/>
	<linearGradient id="SVGID_64_" gradientUnits="userSpaceOnUse" x1="154.8691" y1="28.6241" x2="154.8691" y2="26.2926">
		<stop  offset="0" style="stop-color:#1068FF"/>
		<stop  offset="1" style="stop-color:#000000"/>
	</linearGradient>
	<path class="st68" d="M74.7,28.6H235C233.2,25.5,76.5,25.5,74.7,28.6L74.7,28.6z"/>
	<linearGradient id="SVGID_65_" gradientUnits="userSpaceOnUse" x1="74.6042" y1="18.5309" x2="106.1956" y2="18.5309">
		<stop  offset="1.100000e-07" style="stop-color:#0098CF"/>
		<stop  offset="1" style="stop-color:#000000"/>
	</linearGradient>
	<path class="st69" d="M85,9.6l21.2,0.1L84.9,9.8L85,9.6L85,9.6z M83.9,11.5l22.3,0.1l-22.4,0.1L83.9,11.5L83.9,11.5z M82.7,13.5
		l23.5,0.1l-23.6,0.1L82.7,13.5L82.7,13.5z M81.6,15.5l24.6,0.1l-24.7,0.1L81.6,15.5L81.6,15.5z M80.5,17.4l25.7,0.1l-25.9,0.1
		L80.5,17.4L80.5,17.4z M79.3,19.4l26.9,0.1l-27,0.1L79.3,19.4L79.3,19.4z M78.2,21.3l28,0.1L78,21.6L78.2,21.3L78.2,21.3z
		 M77.1,23.3l29.1,0.1l-29.3,0.1L77.1,23.3L77.1,23.3z M75.9,25.2l30.3,0.1l-30.4,0.1L75.9,25.2L75.9,25.2z M74.8,27.2l31.4,0.1
		l-31.6,0.1L74.8,27.2L74.8,27.2z"/>
	<linearGradient id="SVGID_66_" gradientUnits="userSpaceOnUse" x1="203.5433" y1="18.5309" x2="235.1342" y2="18.5309">
		<stop  offset="1.200000e-07" style="stop-color:#000000"/>
		<stop  offset="1" style="stop-color:#0098CF"/>
	</linearGradient>
	<path class="st70" d="M224.7,9.6l-21.2,0.1l21.3,0.1L224.7,9.6L224.7,9.6z M225.9,11.5l-22.3,0.1l22.4,0.1L225.9,11.5L225.9,11.5z
		 M227,13.5l-23.5,0.1l23.6,0.1L227,13.5L227,13.5z M228.1,15.5l-24.6,0.1l24.7,0.1L228.1,15.5L228.1,15.5z M229.3,17.4l-25.7,0.1
		l25.9,0.1L229.3,17.4L229.3,17.4z M230.4,19.4l-26.9,0.1l27,0.1L230.4,19.4L230.4,19.4z M231.5,21.3l-28,0.1l28.2,0.1L231.5,21.3
		L231.5,21.3z M232.7,23.3l-29.1,0.1l29.3,0.1L232.7,23.3L232.7,23.3z M233.8,25.2l-30.3,0.1l30.4,0.1L233.8,25.2L233.8,25.2z
		 M235,27.2l-31.4,0.1l31.6,0.1L235,27.2L235,27.2z"/>
	<linearGradient id="SVGID_67_" gradientUnits="userSpaceOnUse" x1="154.814" y1="31.9342" x2="154.814" y2="29.2844">
		<stop  offset="0" style="stop-color:#ADC9D9"/>
		<stop  offset="1" style="stop-color:#4597ED"/>
	</linearGradient>
	<path class="st71" d="M238.4,30.8l-2.2-1.5H73.6l-2.3,1.3c0.5,0.8,1.3,1.3,2.3,1.3h162.6C237.1,31.9,237.9,31.5,238.4,30.8
		L238.4,30.8z"/>
	<linearGradient id="SVGID_68_" gradientUnits="userSpaceOnUse" x1="231.1702" y1="30.7764" x2="231.1702" y2="5.6865">
		<stop  offset="0" style="stop-color:#739CB0"/>
		<stop  offset="1" style="stop-color:#476B96"/>
	</linearGradient>
	<path class="st72" d="M236.2,29.3l2.2,1.5c0-0.1,0.1-0.1,0.1-0.2c0.5-0.8,0.5-1.8,0-2.7l-12-20.6c-0.4-0.7-1-1.3-1.7-1.7L223.5,8
		c0.3,0.2,0.5,0.4,0.7,0.7l0.5,0.9l0.1,0.2l1,1.8l0.1,0.2l1,1.7l0.1,0.2l1,1.7l0.1,0.2l1,1.7l0.1,0.2l1,1.7l0.1,0.3l1,1.7l0.2,0.3
		l1,1.7l0.2,0.3l1,1.7l0.2,0.3l1,1.7l0.2,0.3L236.2,29.3L236.2,29.3z"/>
	<linearGradient id="SVGID_69_" gradientUnits="userSpaceOnUse" x1="154.8695" y1="7.98" x2="154.8695" y2="5.0865">
		<stop  offset="0" style="stop-color:#4680B0"/>
		<stop  offset="1" style="stop-color:#2C507A"/>
	</linearGradient>
	<path class="st73" d="M87.2,7.7h135.3c0.4,0,0.7,0.1,1,0.2l1.3-2.3c-0.7-0.4-1.5-0.6-2.3-0.6H87.2c-0.8,0-1.6,0.2-2.3,0.6L86.2,8
		C86.5,7.8,86.9,7.7,87.2,7.7L87.2,7.7z"/>
	<linearGradient id="SVGID_70_" gradientUnits="userSpaceOnUse" x1="78.5688" y1="30.6037" x2="78.5688" y2="5.6865">
		<stop  offset="0" style="stop-color:#739CB0"/>
		<stop  offset="1" style="stop-color:#476B96"/>
	</linearGradient>
	<path class="st74" d="M83.9,11.5l1-1.8L85,9.6l0.5-0.9C85.7,8.4,86,8.1,86.2,8l-1.3-2.3c-0.7,0.4-1.3,1-1.7,1.7L71.3,28
		c-0.5,0.8-0.5,1.8,0,2.7l2.3-1.3l1.1-1.8l0.2-0.3l1-1.7l0.2-0.3l1-1.7l0.2-0.3l1-1.7l0.2-0.3l1-1.7l0.1-0.3l1-1.7l0.1-0.2l1-1.7
		l0.1-0.2l1-1.7l0.1-0.2l1-1.7L83.9,11.5L83.9,11.5z"/>
	
		<radialGradient id="SVGID_71_" cx="184.6295" cy="-5896.6553" r="99.576" gradientTransform="matrix(0.815 0 0 2.280000e-02 4.5273 142.8368)" gradientUnits="userSpaceOnUse">
		<stop  offset="0" style="stop-color:#00EAFF"/>
		<stop  offset="0.1286" style="stop-color:#00BDCE"/>
		<stop  offset="0.307" style="stop-color:#008490"/>
		<stop  offset="0.4782" style="stop-color:#00555D"/>
		<stop  offset="0.6376" style="stop-color:#003034"/>
		<stop  offset="0.7825" style="stop-color:#001618"/>
		<stop  offset="0.908" style="stop-color:#000606"/>
		<stop  offset="1" style="stop-color:#000000"/>
	</radialGradient>
	<path class="st75" d="M236.1,8.4c0,1.3-36.3,2.3-81.1,2.3c-44.8,0-81.1-1-81.1-2.3c0-1.3,36.3-2.3,81.1-2.3
		C199.8,6.1,236.1,7.1,236.1,8.4z"/>
	
		<radialGradient id="SVGID_72_" cx="596.1949" cy="110.6916" r="20.0303" gradientTransform="matrix(0.5104 0 0 1.4427 -14.4805 -91.2376)" gradientUnits="userSpaceOnUse">
		<stop  offset="0" style="stop-color:#E0B700"/>
		<stop  offset="5.151123e-02" style="stop-color:#C09D00"/>
		<stop  offset="0.1335" style="stop-color:#937800"/>
		<stop  offset="0.2213" style="stop-color:#6C5800"/>
		<stop  offset="0.3139" style="stop-color:#4A3D00"/>
		<stop  offset="0.4125" style="stop-color:#2F2600"/>
		<stop  offset="0.5192" style="stop-color:#1A1500"/>
		<stop  offset="0.6384" style="stop-color:#0B0900"/>
		<stop  offset="0.7797" style="stop-color:#030200"/>
		<stop  offset="1" style="stop-color:#000000"/>
	</radialGradient>
	<path class="st76" d="M300,68.5c0,16-4.6,28.9-10.2,28.9c-5.6,0-10.2-12.9-10.2-28.9s4.6-28.9,10.2-28.9
		C295.5,39.6,300,52.5,300,68.5z"/>
	
		<radialGradient id="SVGID_73_" cx="334.373" cy="-1912.9037" r="123.2202" gradientTransform="matrix(0.2522 0 0 4.380000e-02 -3.0659 134.6679)" gradientUnits="userSpaceOnUse">
		<stop  offset="0" style="stop-color:#CCCC14"/>
		<stop  offset="0.2009" style="stop-color:#90900E"/>
		<stop  offset="0.3983" style="stop-color:#5C5C09"/>
		<stop  offset="0.582" style="stop-color:#343405"/>
		<stop  offset="0.7491" style="stop-color:#181802"/>
		<stop  offset="0.8939" style="stop-color:#060601"/>
		<stop  offset="1" style="stop-color:#000000"/>
	</radialGradient>
	<path class="st77" d="M112.3,50.9c0,3-13.9,5.4-31.1,5.4c-17.2,0-31.1-2.4-31.1-5.4c0-3,13.9-5.4,31.1-5.4
		C98.4,45.5,112.3,47.9,112.3,50.9z"/>
	
		<radialGradient id="SVGID_74_" cx="1282.2316" cy="-1912.9037" r="123.2189" gradientTransform="matrix(0.1662 0 0 4.380000e-02 58.9768 134.6679)" gradientUnits="userSpaceOnUse">
		<stop  offset="0" style="stop-color:#CCCC14"/>
		<stop  offset="0.2009" style="stop-color:#90900E"/>
		<stop  offset="0.3983" style="stop-color:#5C5C09"/>
		<stop  offset="0.582" style="stop-color:#343405"/>
		<stop  offset="0.7491" style="stop-color:#181802"/>
		<stop  offset="0.8939" style="stop-color:#060601"/>
		<stop  offset="1" style="stop-color:#000000"/>
	</radialGradient>
	<path class="st78" d="M292.6,50.9c0,3-9.2,5.4-20.5,5.4c-11.3,0-20.5-2.4-20.5-5.4c0-3,9.2-5.4,20.5-5.4
		C283.4,45.5,292.6,47.9,292.6,50.9z"/>
	
		<radialGradient id="SVGID_75_" cx="858.2128" cy="-2371.4819" r="123.1785" gradientTransform="matrix(0 0.202 -3.030000e-02 0 217.9581 51.0865)" gradientUnits="userSpaceOnUse">
		<stop  offset="0" style="stop-color:#CCCC14"/>
		<stop  offset="0.2009" style="stop-color:#90900E"/>
		<stop  offset="0.3983" style="stop-color:#5C5C09"/>
		<stop  offset="0.582" style="stop-color:#343405"/>
		<stop  offset="0.7491" style="stop-color:#181802"/>
		<stop  offset="0.8939" style="stop-color:#060601"/>
		<stop  offset="1" style="stop-color:#000000"/>
	</radialGradient>
	<path class="st79" d="M289.8,249.3c-2.1,0-3.7-11.1-3.7-24.9c0-13.7,1.7-24.9,3.7-24.9c2.1,0,3.7,11.1,3.7,24.9
		C293.5,238.2,291.9,249.3,289.8,249.3z"/>
	<text transform="matrix(1 0 0 1 122.5393 23.8248)" class="st80 st81 st82">LOGIN</text>
</g>
</svg>
