<?xml version="1.0" encoding="utf-8"?>
<!-- Generator: Adobe Illustrator 22.1.0, SVG Export Plug-In . SVG Version: 6.00 Build 0)  -->
<svg version="1.1" id="Layer_1" xmlns="http://www.w3.org/2000/svg" xmlns:xlink="http://www.w3.org/1999/xlink" x="0px" y="0px"
	 viewBox="0 0 180 170" style="enable-background:new 0 0 180 170;" xml:space="preserve">
<style type="text/css">
	.st0{fill:#C61421;}
	.st1{fill:#F2A136;}
	.st2{fill:#EC2B34;}
	.st3{opacity:0.31;fill:#FFFFFF;}
	.st4{opacity:0.4;fill:#EC2B34;}
	.st5{fill:#FFD9A6;}
	.st6{fill:#F7B634;}
	.st7{fill:#3D372E;}
	.st8{fill:#FFFFFF;}
	.st9{fill:#F4D037;}
</style>
<g>
	<g>
		<path class="st0" d="M109.9,70.7c1.8,1.3,3.9,1.5,6,1.6c3.2,0.2,5-0.1,7.5,1.4c1,0.6,1.6,1.1,2.5,1.9c1.3,1.3,2.6,3,4.2,6
			c1.2,2.4,2.2,4.8,2.8,7.1c1.2,4.5,1.4,9-0.9,13.1c-3.1,5.5-9.1,8.2-15.3,9.8c-1.6,0.4-3.3,0.8-4.9,1.2c-1.5,0.4-3,0.8-4.4,1.3
			c-1.5,0.5-3.1,1.2-4.4,2.1c-1.6,1.1-3,2.4-4,4.1c-0.5,0.8-0.2,2.1,0.7,2.6c0.9,0.5,2,0.2,2.6-0.7c0.6-1.1,1.4-1.9,2.8-2.8
			c1.3-0.8,2.4-1.3,3.5-1.6c2.4-0.8,4.7-1.3,7.4-2c7.3-1.8,14.5-4.6,18.8-11.2c3.2-4.9,3.4-10.7,1.9-16.4c-0.7-2.7-1.8-5.3-3-7.9
			c-1.5-3.1-3.7-6.5-6.4-8.6c-1.1-0.9-2.3-1.6-3.6-2.1c-2.4-1-5-1-7.5-1.1c-1.8-0.1-3-0.2-4.3-1.2c-0.7-0.5-2.1-0.3-2.6,0.7
			C108.7,69.1,109,70,109.9,70.7L109.9,70.7z"/>
	</g>
	<path class="st1" d="M39.7,55.1c0.3-0.6,0.8-1.2,1.3-1.7c0.4-0.6,0.7-1.3,0.6-2c-0.2-0.8-1-1.4-1.8-1.4c-0.8,0-1.6,0.4-2.1,1.1
		c-0.1-0.7-0.1-1.5-0.2-2.2c-0.1-0.7-0.1-1.3-0.5-1.9c-0.3-0.6-1-1-1.6-0.8c-0.6,0.2-1,1-0.7,1.6c-0.3-0.2-0.3-0.7-0.4-1.1
		c-0.2-0.6-0.7-0.9-1.3-1c-0.5-0.1-1.1,0.1-1.5,0.5c-0.5,0.5-0.4,1.4-0.4,2.1c-0.1-0.4-0.7-0.7-1.1-0.6c-0.4,0.1-0.8,0.5-0.9,1
		c-0.2,0.7,0.1,1.5,0.3,2.2c0.8,2.2,1.6,4.4,2.4,6.6c0.4,1.2,0.9,2.5,2,3.2c1,0.6,2.2,0.6,3.4,0.4c0.9-0.2,1.9-0.5,2.4-1.3
		c0.4-0.6,0.6-1.6,0.1-2.2c-0.3-0.4-0.5-0.4-0.5-0.9C39.3,56.1,39.4,55.6,39.7,55.1z"/>
	<path class="st2" d="M39.7,58.6c-1.7,0.8-3.4,1.6-5.1,2.4c-0.2,0.1-0.5,0.2-0.6,0.5c-0.2,0.3,0,0.7,0.1,1c4,10.1,10.9,18.8,19,26
		c2.6,2.3,5.6,4.6,9,4.7c2.6,0.1,5.2-1.1,6.5-3.3c1.9-3.1,0.8-6.5-2.2-8c-3.5-1.8-6.9-3.8-10.2-6.1C49.8,71,44.2,65.2,39.7,58.6z"/>
	<path class="st2" d="M137.9,61.5c1.6,1,3.2,2.1,4.7,3.1c0.2,0.1,0.4,0.3,0.5,0.5c0.1,0.3-0.1,0.7-0.2,1c-5.4,9.4-13.5,17-22.5,23
		c-2.9,1.9-6.2,3.8-9.6,3.4c-2.5-0.3-5-1.9-6-4.2c-1.5-3.3,0.1-6.5,3.3-7.6c3.8-1.3,7.4-2.8,10.9-4.6
		C126.1,72.4,132.5,67.4,137.9,61.5z"/>
	<path class="st2" d="M61.8,125.7c2.8,9.2,4.9,2.8,13.7,6.5c8.9,3.6,18.9,3.8,28.3,1.8c2.3-0.5,4.6-1.2,6.6-2.4
		c2-1.2,4.9-3.8,5.4-6.1c0.4-1.7,3.6-46.2,1.3-50.7c-0.8-1.6-5.3-2-6.7-3c-2.4-1.7-5.1-3-7.9-4.1c-11.1-4.5-15.8-1.2-27.8-1.2
		c-6.6,0-13.1,0.6-14.4,6.2C58.8,79.3,59.8,119.2,61.8,125.7z"/>
	<path class="st2" d="M72.6,161.6c2.3-0.9,6.9-2,9-3.3c-0.5-6.8-0.3-24.8,0.7-28.3c1.3-4.3,1-8.9-0.5-13.2c-1-3-3.7-5.1-6.5-6.6
		c-2.7-1.5-5.7-2.7-8.8-2.8c-3.5-0.1-4.9,0.5-5.1,3.8c-0.5,7.1-0.2,14.1,1.1,21.1C63.4,136.1,69.6,155.5,72.6,161.6z"/>
	<path class="st0" d="M43.1,62c0.1,0.2,0.3,0.5,0.2,0.7c0,0.3-0.3,0.5-0.5,0.7c-2.3,1.7-4.7,3.4-7.5,3.7c-0.3,0-0.6,0-0.9-0.1
		c-0.5-0.2-0.7-0.7-0.9-1.2c-0.8-2.1-1.5-4.3-2.2-6.5c-0.1-0.2-0.1-0.5,0-0.7c0.1-0.2,0.4-0.3,0.6-0.4c1.4-0.4,2.7-0.8,4.1-1.2
		c0.9-0.3,2.6-1.2,3.6-0.8C41,56.7,42.3,60.7,43.1,62z"/>
	<path class="st1" d="M139.3,57.2c-0.2-0.7-0.6-1.3-0.9-2c-0.3-0.7-0.5-1.4-0.2-2.1c0.3-0.8,1.2-1.2,2-1c0.8,0.1,1.5,0.8,1.8,1.5
		c0.2-0.7,0.4-1.4,0.7-2.1c0.2-0.6,0.4-1.3,0.8-1.8c0.4-0.5,1.2-0.8,1.8-0.5c0.6,0.3,0.8,1.2,0.4,1.7c0.3-0.2,0.4-0.6,0.6-1
		c0.3-0.5,0.9-0.7,1.5-0.7c0.5,0,1.1,0.3,1.3,0.8c0.4,0.6,0.1,1.4-0.1,2.1c0.2-0.4,0.8-0.5,1.2-0.3c0.4,0.2,0.6,0.7,0.6,1.2
		c0,0.8-0.4,1.5-0.8,2.1c-1.2,2-2.5,4-3.7,5.9c-0.7,1.1-1.4,2.2-2.6,2.7c-1.1,0.4-2.3,0.2-3.4-0.3c-0.9-0.4-1.7-0.9-2.1-1.8
		c-0.3-0.7-0.2-1.6,0.4-2.2c0.4-0.3,0.5-0.3,0.7-0.8C139.4,58.2,139.4,57.7,139.3,57.2z"/>
	<path class="st0" d="M134.5,63.2c-0.2,0.2-0.3,0.4-0.4,0.7c0,0.3,0.2,0.5,0.4,0.8c1.9,2.1,3.9,4.3,6.5,5.2c0.3,0.1,0.6,0.2,0.9,0.1
		c0.5-0.1,0.8-0.6,1.1-1c1.2-1.9,2.4-3.9,3.5-5.9c0.1-0.2,0.2-0.5,0.2-0.7c-0.1-0.2-0.3-0.4-0.5-0.5c-1.2-0.7-2.5-1.3-3.7-2
		c-0.8-0.4-2.3-1.7-3.3-1.6C137.6,58.5,135.5,62.1,134.5,63.2z"/>
	<path class="st1" d="M69.3,163.8c-0.3,0.5-0.7,1.1-0.8,1.7c-0.1,0.6,0,1.3,0.4,1.7c0.5,0.5,1.2,0.6,1.9,0.6c2.1,0,4.2-0.5,6.3-1
		c1.8-0.4,3.7-0.9,5-2.3c0.2-0.2,0.4-0.5,0.5-0.8c0.2-0.7-0.2-1.4-0.4-2.1c-0.3-0.8-0.5-1.7-0.5-2.6c0-0.5,0-1.1-0.1-1.6
		c-0.3-1.1-1.4-1.7-2.5-1.8c-1.1-0.1-2.2,0.2-3.2,0.5c-1.4,0.5-2.4,2.2-3.4,3.4C71.3,160.8,70.2,162.3,69.3,163.8z"/>
	<path class="st3" d="M77.9,156.7c-0.4,0.5-0.5,1.2-0.5,1.9c0,1.1,0.3,2.3,0.9,3.3c0.3,0.5,0.7,1,1.2,1c0.3,0,0.5-0.1,0.7-0.3
		c0.5-0.4,0.8-1,0.8-1.7c0-0.6-0.1-1.3-0.3-1.9C80.5,157.9,79.5,154.8,77.9,156.7z"/>
	<path class="st2" d="M123,159c-2.5,0.3-7.1,1.5-9.5,1.3c-2.8-6.2-11.4-22-14-24.6c-3.2-3.2-5.1-7.4-5.8-11.9
		c-0.5-3.1,0.9-6.2,2.6-8.9c1.6-2.6,3.7-5.1,6.4-6.6c3-1.7,14.3-3.5,14.5-0.2c0.5,9.4,1.1,17.5,1.5,20.7
		C119.2,132.8,122.8,152.2,123,159z"/>
	<path class="st1" d="M126.2,161.1c0.4,0.4,0.9,0.9,1.1,1.5c0.2,0.6,0.3,1.3-0.1,1.8c-0.4,0.6-1.1,0.8-1.7,0.9
		c-2.1,0.4-4.2,0.4-6.4,0.3c-1.9-0.1-3.8-0.2-5.3-1.2c-0.3-0.2-0.5-0.4-0.7-0.7c-0.3-0.7-0.1-1.4,0-2.2c0.1-0.9,0.1-1.8,0-2.6
		c-0.1-0.5-0.2-1.1-0.2-1.6c0.1-1.1,1.1-2,2.1-2.3c1-0.3,2.2-0.2,3.3-0.1c1.5,0.2,2.8,1.7,4,2.7
		C123.6,158.6,124.9,159.8,126.2,161.1z"/>
	<path class="st3" d="M116,157.1c0.6,0.2,1,0.8,1.3,1.4c0.5,1,0.8,2.2,0.8,3.3c0,0.5-0.1,1.2-0.6,1.4c-0.2,0.1-0.5,0.1-0.8,0.1
		c-0.6-0.1-1.2-0.6-1.5-1.1c-0.3-0.5-0.5-1.2-0.6-1.8C114.4,159.4,113.8,156.2,116,157.1z"/>
	<g>
		<path class="st0" d="M61.2,91.8c1.7-3.7,3.1-7.8,2-11.9c-0.3-1-0.7-2-1.4-2.9c-0.2-0.2-0.4-0.3-0.7-0.2c-0.2,0.1-0.3,0.5-0.2,0.7
			c2.2,3.1,1.8,7.2,0.6,10.6c-0.4,1.1-0.8,2.1-1.3,3.2c-0.1,0.2-0.1,0.5,0.2,0.7C60.8,92.1,61.1,92,61.2,91.8L61.2,91.8z"/>
	</g>
	<g>
		<path class="st0" d="M118.1,89.6c-1-1.8-2.1-3.7-2.6-5.7c-0.4-1.9-0.3-3.8,0.2-5.6c0.3-1,0.8-2,1.4-2.9c0.3-0.5-0.5-1-0.8-0.5
			c-1.1,1.7-1.8,3.7-1.9,5.8c-0.2,2.1,0.3,4.2,1.1,6.1c0.5,1.2,1.1,2.3,1.8,3.4C117.5,90.7,118.4,90.2,118.1,89.6L118.1,89.6z"/>
	</g>
	<path class="st0" d="M60.2,65.7c0,0-1.5,3-1.6,5.6c-0.2,7.4,1.6,6.6,1.6,6.6s9.1-5.5,19.4-6.1c23.2-1.3,38,5.2,38,5.2
		s1.3-2.5,1.3-6.8c0-1.5-1.4-4.3-1.4-4.3s-19.3-5.2-36.4-4.4C64,62.2,60.2,65.7,60.2,65.7z"/>
	<g>
		<path class="st0" d="M61.2,108.6c3.5,1.4,7.1,2.4,10.8,3.1c3.7,0.7,7.5,1.1,11.3,1.2c3.8,0.1,7.6-0.2,11.3-0.6
			c3.6-0.5,7.3-1.2,10.8-2.2c3.5-1.1,6.8-2.5,9.8-4.5c0.4-0.2,0.7-0.5,1.1-0.8c0.2-0.2,0.3-0.4,0.2-0.7c-0.1-0.2-0.5-0.3-0.7-0.2
			c-2.9,2.1-6.1,3.6-9.5,4.8c-3.4,1.1-7,1.9-10.5,2.4c-3.7,0.5-7.4,0.8-11.2,0.8c-3.7,0-7.4-0.3-11.1-0.9c-3.7-0.6-7.3-1.6-10.8-2.9
			c-0.4-0.2-0.9-0.3-1.3-0.5c-0.2-0.1-0.5,0.1-0.6,0.3C60.8,108.3,60.9,108.5,61.2,108.6L61.2,108.6z"/>
	</g>
	<g>
		<path class="st0" d="M60.8,111.6c0.6,0.6,1.4,0.9,2.2,1.1c0.9,0.3,1.8,0.5,2.7,0.7c1.9,0.5,3.7,0.9,5.6,1.3
			c3.8,0.8,7.5,1.4,11.4,1.7c3.8,0.3,7.6,0.2,11.3-0.3c3.7-0.5,7.3-1.6,10.7-3c3.5-1.4,6.8-3.1,10.1-4.8c0.4-0.2,0.8-0.4,1.2-0.6
			c0.6-0.3,0.1-1.1-0.5-0.8c-3.2,1.7-6.5,3.4-9.8,4.8c-3.3,1.4-6.8,2.6-10.4,3.2c-3.7,0.7-7.4,0.8-11.1,0.7
			c-3.7-0.2-7.5-0.7-11.1-1.4c-1.8-0.4-3.7-0.8-5.5-1.2c-0.9-0.2-1.8-0.4-2.7-0.7c-0.8-0.2-1.7-0.4-2.5-0.7
			c-0.3-0.1-0.7-0.3-0.9-0.6C61,110.5,60.3,111.2,60.8,111.6L60.8,111.6z"/>
	</g>
	<g>
		<path class="st0" d="M99.9,134.9c1.5-2.3,3.4-4.4,5.5-6.1c2.1-1.7,4.5-3.1,7.1-4c1.5-0.5,3-1,4.5-1.2c0.3,0,0.4-0.4,0.3-0.6
			c-0.1-0.3-0.3-0.4-0.6-0.3c-2.8,0.5-5.5,1.4-8,2.8c-2.5,1.4-4.8,3.1-6.8,5.2c-1.1,1.2-2.1,2.5-3,3.8
			C98.7,134.9,99.6,135.4,99.9,134.9L99.9,134.9z"/>
	</g>
	<g>
		<path class="st0" d="M62.9,125.4c2.8-0.8,5.8-0.6,8.6,0.3c2.6,0.9,5,2.4,7,4.2c1.1,1,2.2,2.2,3.1,3.4c0.2,0.2,0.4,0.3,0.7,0.2
			c0.2-0.1,0.3-0.5,0.2-0.7c-1.8-2.3-3.8-4.4-6.3-6c-2.5-1.6-5.4-2.7-8.4-2.9c-1.7-0.1-3.5,0-5.1,0.5
			C62.1,124.6,62.3,125.6,62.9,125.4L62.9,125.4z"/>
	</g>
	<path class="st3" d="M62.2,103.4c-0.6,11.2,1,22.4,4.5,33.1c0.5,1.4,1.2,3,2.6,3.5c0.3,0.1,0.7,0.2,1,0c1-0.4,1-1.7,0.8-2.8
		c-1.7-8.6-2-17.5-1.1-26.3c0.3-2.4,0.6-4.9,0-7.3C68.7,98.7,62.5,97.1,62.2,103.4z"/>
	<path class="st3" d="M64.3,90c-0.1,1.7-0.1,3.4,0.9,4.8c0.5,0.7,1.4,1.2,2.1,0.8c0.4-0.2,0.7-0.7,0.9-1.1c1.6-3.2,2.5-6.7,2.8-10.3
		c0.1-1,0-2-0.6-2.7c-1.2-1.3-3.8-1.3-4.8,0.1C64,83.5,64.4,87.6,64.3,90z"/>
	<g>
		<g>
			<path class="st0" d="M110.4,61.3c0.8,0.3,1.7,0.4,2.5,0.4c1.2,0,2.4-0.2,3.6-0.4c3.4-0.8,4.2-1.3,6.3-1.1
				c2.5,0.1,4.5,1.1,6.5,2.6c2.6,1.9,5.1,4.6,6.9,7.1c1.3,1.8,2.5,3.7,3.5,6c1.3,3,1.5,5.3,1.1,8c-0.2,1.7-1.1,4.1-2.7,6.5
				c-1.1,1.6-2.2,2.9-4.2,4.6c-3.8,3.3-7,4.7-11.1,7.2c-2.4,1.5-4.8,3.2-6.5,5.5c-0.9,1.2-1.7,2.7-2,4.2c-0.1,0.5-0.1,1,0.1,1.5
				c0.2,0.4,0.6,0.8,1.1,0.9c0.5,0.1,1,0.2,1.5-0.1c0.4-0.2,0.8-0.6,0.9-1.1c0.2-0.7,0.4-1.3,0.7-1.9c0.7-1.4,1.5-2.2,2.7-3.3
				c2.5-2.2,4.8-3.2,8.2-5.3c2.3-1.4,4.6-2.9,6.7-4.7c2-1.7,3.9-3.7,5.3-5.9c1.5-2.3,2.5-4.8,3-7.5c0.8-5-0.9-10.1-3.6-14.4
				c-1.4-2.2-2.9-4.2-4.7-6.1c-1.8-1.9-3.7-3.7-5.9-5.1c-2.2-1.4-4.8-2.4-7.5-2.6c-1.4-0.1-2.7,0.1-4.1,0.4
				c-1.1,0.3-2.2,0.6-3.3,0.8c-1.5,0.3-2.6,0.5-3.9,0.1c-0.9-0.3-2.1,0.2-2.4,1.1C108.9,59.9,109.4,61,110.4,61.3L110.4,61.3z"/>
		</g>
		<path class="st4" d="M135.6,41.1c0.6,9.9-11.9,24.2-16,24.7c-13.9,1.8-19.4,23.3-30.3,22.5c-10.5-0.8-13.5-10.3-27-18.6
			c-7-4.4-17.8-18.7-17.1-27.9C46.9,18.6,58.4,2.3,93.3,2.3C115.3,2.3,133.9,14.5,135.6,41.1z"/>
		<path class="st1" d="M55.9,18.3c6.4,0,12.8,2.4,17.6,6.6c0.7,0.6-2.5,6-2.9,6.7c-1.4,2.1-3.1,4-5.1,5.5c-1.9,1.4-3.5,2.2-5.1,0
			c-1.6-2.4-2.5-5.5-3.2-8.2C56.3,25.4,55.9,21.9,55.9,18.3z"/>
		<path class="st5" d="M60.8,32.3c-1-3.2-1.6-6.5-1.8-9.8c4.4,0.1,8.8,1.6,12,4.6c0.2,0.1,0.3,0.3,0.3,0.5c0,0.2,0,0.3-0.1,0.5
			c-0.9,1.9-1.8,4-3.5,5.2c-0.8,0.6-1.7,0.9-2.5,1.3c-0.8,0.3-1.8,0.9-2.6,1.1c-0.7,0.1-0.7-0.2-0.9-0.9
			C61.4,33.9,61,33.1,60.8,32.3z"/>
		<path class="st1" d="M123.3,17.4c-6.4-0.3-12.9,1.7-17.9,5.7c-0.8,0.6,2.1,6.1,2.5,6.8c1.3,2.2,2.9,4.1,4.8,5.8
			c1.8,1.5,3.4,2.4,5.1,0.2c1.7-2.3,2.8-5.4,3.7-8.1C122.6,24.4,123.3,20.9,123.3,17.4z"/>
		<path class="st5" d="M117.8,31c1.1-3.1,1.9-6.4,2.4-9.7c-4.4-0.2-8.9,1.2-12.3,4c-0.2,0.1-0.3,0.3-0.4,0.5c0,0.2,0,0.3,0.1,0.5
			c0.8,2,1.6,4.1,3.2,5.4c0.7,0.6,1.6,1,2.5,1.4c0.8,0.3,1.8,1,2.6,1.2c0.7,0.2,0.7-0.2,0.9-0.9C117,32.6,117.5,31.8,117.8,31z"/>
		<path class="st1" d="M115.6,31.3c-3.7-4.3-8.5-7.9-13.9-9.8c-2.2-0.8-7.2-0.9-12.5-0.6c-5.4-0.1-10.3,0.2-12.5,1.1
			c-5.3,2.1-10,5.9-13.5,10.4C58.5,38.1,55.5,45,53.1,52c4.6,4,8.6,8.7,11.8,14c0.6,0.9,1.2,1.9,2.2,2.4c0.6,0.3,1.3,0.3,2,0.3
			c7,0.3,14,0.5,21,0.4c7-0.1,14-0.7,20.9-1.2c0.7-0.1,1.4-0.1,1.9-0.4c1-0.5,1.5-1.5,2.1-2.4c3-5.3,6.8-10.2,11.3-14.4
			C123.7,43.6,120.4,36.9,115.6,31.3z"/>
		<path class="st6" d="M91.3,23.6c-0.1-1.1-0.1-2,0-2.9c-0.7,0-1.5,0.1-2.2,0.1c-5.4-0.1-10.3,0.2-12.5,1.1
			c-5.3,2.1-10,5.9-13.5,10.4C58.5,38.1,55.5,45,53.1,52c0,0,0,0,0.1,0.1c1.4-2.3,5.7-10.2,9.2-12.3c5-3.1,9.1-3.6,12.9-2.3
			c3.9,1.4,7.1,4.7,9,11.8c0.6,2.1,1.3,3.6,1.5,5.9c1.7-0.2,4.7,0.2,6.4,0.5C92.6,45.1,92.4,34.1,91.3,23.6z"/>
		<path class="st6" d="M87,23.7c0.1-1.1,0-2-0.1-2.9c0.7,0,1.5,0,2.2,0c5.4-0.3,10.3-0.2,12.5,0.6c5.4,1.9,10.2,5.5,13.9,9.8
			c4.8,5.6,8.1,12.3,10.7,19.2c0,0,0,0-0.1,0.1c-1.5-2.2-6.1-10-9.7-11.9c-5.1-2.9-9.2-3.3-12.9-1.7c-3.9,1.6-6.9,4.9-8.5,12.2
			c-0.5,2.1-1.2,3.7-1.2,6c-1.7-0.1-4.5,0.5-6.2,0.9C86.7,45.4,86.3,34.2,87,23.7z"/>
		<g>
			<path class="st7" d="M72.4,43c0,1.7-1.1,3.2-2.4,3.2c-1.4,0-2.5-1.4-2.6-3.1c0-1.7,1.1-3.2,2.4-3.2C71.3,39.8,72.4,41.2,72.4,43z
				"/>
			<path class="st8" d="M70.2,40.7c-0.2-0.1-0.8,0-0.8,0c-0.7,0.4-1.1,1.3-1,2.1c0,0.2,0.1,0.4,0.2,0.5c0.2,0.2,0.5,0.2,0.7,0.1
				c0.2-0.1,0.4-0.3,0.5-0.6C70.1,42.2,70.6,41,70.2,40.7z"/>
		</g>
		<g>
			<path class="st7" d="M110.4,41.8c0,1.7-1.1,3.2-2.4,3.2c-1.4,0-2.5-1.4-2.6-3.1c0-1.7,1.1-3.2,2.4-3.2S110.4,40.1,110.4,41.8z"/>
			<path class="st8" d="M108.1,39.6c-0.2-0.1-0.8,0-0.8,0c-0.7,0.4-1.1,1.3-1,2.1c0,0.2,0.1,0.4,0.2,0.5c0.2,0.2,0.5,0.2,0.7,0.1
				c0.2-0.1,0.4-0.3,0.5-0.6C108.1,41.1,108.6,39.9,108.1,39.6z"/>
		</g>
		<path class="st7" d="M85.6,51.5c-0.2,0.1-0.4,0.1-0.6,0.3c-0.3,0.3-0.4,0.8-0.2,1.2c0.1,0.4,0.4,0.7,0.7,1
			c1.2,1.3,2.6,2.4,4.1,3.3c0.3,0.2,0.6,0.3,0.9,0.2c0.2-0.1,0.4-0.2,0.6-0.4c1.4-1.4,2.8-2.8,3.7-4.5c0.1-0.1,0.1-0.3,0.1-0.5
			c0-0.3-0.4-0.6-0.7-0.7c-1.3-0.5-2.8-0.7-4.2-0.6C88.4,51,87,51.1,85.6,51.5z"/>
		<g>
			<path class="st7" d="M89.9,55.8c0.2,1.3,0.3,2.8-0.5,3.9c-0.8,1.1-2.2,1-3.4,0.8c-0.3-0.1-0.4,0.5,0,0.5c1.4,0.3,2.9,0.2,3.8-0.9
				c1-1.2,0.9-2.9,0.7-4.4C90.3,55.4,89.8,55.5,89.9,55.8L89.9,55.8z"/>
		</g>
		<g>
			<path class="st7" d="M89.8,56.3c0.1,0.8,0.2,1.7,0.3,2.5c0.1,0.7,0.3,1.4,0.8,1.9c1.1,1,2.7,1,4,0.6c0.3-0.1,0.2-0.6-0.1-0.5
				c-1.2,0.4-2.6,0.5-3.6-0.5c-0.5-0.5-0.6-1.1-0.6-1.7c-0.1-0.8-0.2-1.5-0.3-2.3C90.3,55.8,89.7,56,89.8,56.3L89.8,56.3z"/>
		</g>
		<path class="st3" d="M49.7,32.2c-0.9,1.9-0.8,4.7,1.1,5.6c1.9,0.9,4.1-0.8,5.3-2.5c2.6-3.6,3.9-8,6.2-11.7
			c3.7-5.9,9.9-9.8,16.2-12.8c0.7-0.3,1.5-0.8,1.6-1.6c0.1-1-1-1.7-2-1.9c-3.3-0.7-6.6,1-9.5,2.7c-4.3,2.5-8.4,5.4-11.8,9.1
			c-3.4,3.7-6,8.2-6.7,13.1c0.2-0.9,0.4-1.7,0.6-2.6L49.7,32.2z"/>
		<path class="st3" d="M86.1,5.3c-0.6,0.2-1.3,0.5-1.7,0.9c-0.5,0.5-0.7,1.2-0.4,1.8c0.2,0.4,0.7,0.7,1.2,0.8
			c1.2,0.4,2.4,0.5,3.6,0.2c0.8-0.2,1.5-0.4,2.1-1c0.5-0.6,0.8-1.5,0.4-2.2c-0.4-0.8-1.3-1.1-2.2-1.2C88.1,4.5,86.8,4.4,86.1,5.3
			c-0.1-0.2-0.2-0.2-0.4-0.3L86.1,5.3z"/>
		<g>
			<path class="st9" d="M70.3,33.2c1.1-0.4,2.3-0.5,3.4-0.4c0.3,0,0.4-0.5,0-0.5c-1.2-0.1-2.5,0-3.7,0.5C70,32.8,69.9,33,70,33.1
				C70,33.3,70.2,33.3,70.3,33.2L70.3,33.2z"/>
		</g>
		<g>
			<path class="st9" d="M78,34.2c0.8,0.1,1.6,0.5,2.2,1.1c0.1,0.1,0.3,0.1,0.4,0c0.1-0.1,0.1-0.3,0-0.4c-0.7-0.7-1.6-1.1-2.6-1.3
				c-0.1,0-0.3,0.1-0.3,0.2C77.8,34,77.9,34.2,78,34.2L78,34.2z"/>
		</g>
		<g>
			<path class="st9" d="M82,38.7c0.8,1.2,1.5,2.6,2.1,3.9c0.1,0.3,0.6,0.1,0.5-0.2c-0.6-1.4-1.3-2.7-2.1-3.9
				c-0.1-0.1-0.2-0.2-0.4-0.1C82,38.4,81.9,38.6,82,38.7L82,38.7z"/>
		</g>
		<g>
			<path class="st9" d="M83.9,35c0.6,1,1.2,2.1,1.6,3.3c0.1,0.3,0.6,0.1,0.5-0.2c-0.5-1.1-1-2.2-1.6-3.3
				C84.2,34.4,83.8,34.7,83.9,35L83.9,35z"/>
		</g>
		<g>
			<path class="st9" d="M79.4,28c0.4,0.7,0.9,1.3,1.4,1.8c0.1,0.1,0.3,0.1,0.4,0c0.1-0.1,0.1-0.3,0-0.4c-0.3-0.3-0.5-0.5-0.7-0.8
				c-0.2-0.3-0.4-0.6-0.6-0.9c-0.1-0.1-0.2-0.2-0.4-0.1C79.4,27.7,79.4,27.9,79.4,28L79.4,28z"/>
		</g>
		<g>
			<path class="st9" d="M72.9,27c0.7,0.2,1.5,0.3,2.2,0.5c0.1,0,0.3,0,0.3-0.2c0-0.1,0-0.3-0.2-0.3c-0.7-0.2-1.5-0.3-2.2-0.5
				c-0.1,0-0.3,0-0.3,0.2C72.7,26.8,72.7,27,72.9,27L72.9,27z"/>
		</g>
		<g>
			<path class="st9" d="M61.7,39.1c0.7-0.7,1.6-1.3,2.5-1.7c0.3-0.2,0.1-0.6-0.2-0.5c-1,0.5-1.8,1.1-2.6,1.8
				C61.1,39,61.4,39.4,61.7,39.1L61.7,39.1z"/>
		</g>
		<g>
			<path class="st9" d="M65.9,32.5c0.5-0.3,1.1-0.5,1.6-0.8c0.1-0.1,0.2-0.2,0.1-0.4c-0.1-0.1-0.2-0.2-0.4-0.1
				c-0.5,0.3-1.1,0.5-1.6,0.8c-0.1,0.1-0.2,0.2-0.1,0.4C65.6,32.5,65.7,32.6,65.9,32.5L65.9,32.5z"/>
		</g>
		<g>
			<path class="st9" d="M88.3,34.4c0.4,0.4,0.8,0.8,1.1,1.1c0.1,0.1,0.3,0.1,0.4,0c0.1-0.1,0.1-0.3,0-0.4c-0.4-0.4-0.8-0.8-1.1-1.1
				c-0.1-0.1-0.3-0.1-0.4,0C88.2,34.1,88.2,34.3,88.3,34.4L88.3,34.4z"/>
		</g>
		<g>
			<path class="st9" d="M89.5,40.9c0.4,1.5,0.6,3,0.6,4.5c0,0.3,0.5,0.4,0.5,0c0.1-1.6-0.1-3.1-0.6-4.7C90,40.5,89.4,40.6,89.5,40.9
				L89.5,40.9z"/>
		</g>
		<g>
			<path class="st9" d="M86.7,45c0.4,1.3,0.8,2.6,1.1,3.9c0.1,0.3,0.6,0.2,0.5-0.1c-0.3-1.3-0.7-2.6-1.1-3.9c0-0.1-0.2-0.2-0.3-0.2
				C86.8,44.8,86.7,44.9,86.7,45L86.7,45z"/>
		</g>
		<g>
			<path class="st9" d="M93.4,48.8c0.1-1.3,0.3-2.6,0.7-3.8c0.1-0.3-0.4-0.5-0.5-0.2c-0.4,1.3-0.7,2.6-0.8,3.9
				C92.9,49.1,93.4,49.2,93.4,48.8L93.4,48.8z"/>
		</g>
		<g>
			<path class="st9" d="M92.3,40.3c0.1-1.3,0.7-2.5,1.6-3.4c0.2-0.2-0.1-0.6-0.4-0.4c-1,1-1.7,2.4-1.8,3.8
				C91.8,40.6,92.3,40.6,92.3,40.3L92.3,40.3z"/>
		</g>
		<g>
			<path class="st9" d="M96.7,40.3c0.6-0.9,1.2-1.8,1.8-2.8c0.2-0.3-0.3-0.6-0.4-0.3c-0.6,0.9-1.2,1.8-1.8,2.8
				C96.1,40.3,96.5,40.6,96.7,40.3L96.7,40.3z"/>
		</g>
		<g>
			<path class="st9" d="M101.6,34.2c1.6-0.6,3.4-0.9,5.1-0.9c0.3,0,0.4-0.5,0-0.5c-1.8,0-3.6,0.3-5.4,0.9
				C101,33.8,101.3,34.3,101.6,34.2L101.6,34.2z"/>
		</g>
		<g>
			<path class="st9" d="M95.6,34.2c0.5-0.9,1-1.7,1.5-2.5c0.2-0.3-0.2-0.6-0.4-0.3c-0.6,0.8-1.1,1.7-1.5,2.5
				c-0.1,0.1-0.1,0.3,0.1,0.4C95.3,34.3,95.5,34.3,95.6,34.2L95.6,34.2z"/>
		</g>
		<g>
			<path class="st9" d="M93.5,31.4c-0.1-1,0-2,0.4-2.9c0.1-0.3-0.4-0.5-0.5-0.2c-0.4,1-0.6,2.1-0.4,3.1C93,31.8,93.5,31.7,93.5,31.4
				L93.5,31.4z"/>
		</g>
		<g>
			<path class="st9" d="M88.1,30.5c-0.2-1-0.4-2-0.6-3.1c-0.1-0.3-0.6-0.2-0.5,0.1c0.2,1,0.4,2,0.6,3.1C87.6,31,88.1,30.8,88.1,30.5
				L88.1,30.5z"/>
		</g>
		<g>
			<path class="st9" d="M83.6,25.8c-0.2-0.7-0.5-1.4-0.9-2c-0.1-0.1-0.2-0.2-0.4-0.1c-0.1,0.1-0.2,0.2-0.1,0.4
				c0.4,0.6,0.7,1.2,0.9,1.8c0,0.1,0.2,0.2,0.3,0.2C83.5,26.1,83.6,25.9,83.6,25.8L83.6,25.8z"/>
		</g>
		<g>
			<path class="st9" d="M93.8,26.3c0.1-0.7,0.4-1.3,1-1.7c0.1-0.1,0.1-0.3,0-0.4c-0.1-0.1-0.3-0.1-0.4,0c-0.6,0.5-1.1,1.3-1.1,2.1
				c0,0.1,0.1,0.3,0.2,0.3C93.7,26.6,93.8,26.5,93.8,26.3L93.8,26.3z"/>
		</g>
		<g>
			<path class="st9" d="M99.2,27.7c0.5-0.8,1.3-1.5,2.2-1.7c0.3-0.1,0.2-0.6-0.1-0.5c-1.1,0.2-2,0.9-2.6,1.9
				c-0.1,0.1-0.1,0.3,0.1,0.4C98.9,27.9,99.1,27.9,99.2,27.7L99.2,27.7z"/>
		</g>
		<g>
			<path class="st9" d="M104.5,29c1.2-0.3,2.4-0.5,3.6-0.5c0.3,0,0.4-0.5,0-0.5c-1.3,0-2.5,0.2-3.7,0.5
				C104.1,28.6,104.2,29.1,104.5,29L104.5,29z"/>
		</g>
		<g>
			<path class="st9" d="M111.4,33.8c1.1,0.3,2.1,0.6,3.1,1.1c0.3,0.1,0.5-0.4,0.2-0.5c-1-0.4-2.1-0.8-3.1-1.1
				C111.3,33.2,111.1,33.7,111.4,33.8L111.4,33.8z"/>
		</g>
		<g>
			<path class="st9" d="M118.4,38.6c0.5,0.3,1.1,0.7,1.6,1c0.1,0.1,0.3,0.1,0.4-0.1c0.1-0.1,0.1-0.3-0.1-0.4c-0.5-0.3-1.1-0.7-1.6-1
				c-0.1-0.1-0.3-0.1-0.4,0.1C118.3,38.4,118.3,38.5,118.4,38.6L118.4,38.6z"/>
		</g>
		<g>
			<path class="st9" d="M112.8,30.9c0.5,0.4,1.1,0.8,1.8,0.9c0.1,0,0.3,0,0.3-0.2c0-0.1,0-0.3-0.2-0.3c-0.6-0.2-1.2-0.4-1.7-0.9
				c-0.1-0.1-0.3,0-0.4,0.1C112.6,30.7,112.7,30.9,112.8,30.9L112.8,30.9z"/>
		</g>
		<g>
			<path class="st6" d="M109.5,61.3c1.3-0.5,2.6-0.7,4-0.6c0.3,0,0.4-0.5,0-0.5c-1.5-0.1-2.9,0.1-4.3,0.6
				C108.9,60.9,109.1,61.4,109.5,61.3L109.5,61.3z"/>
		</g>
		<g>
			<path class="st6" d="M111.8,57.9c1.2-0.3,2.5-0.4,3.7-0.3c0.3,0,0.4-0.5,0-0.5c-1.3-0.1-2.6,0-3.9,0.3
				C111.3,57.4,111.5,58,111.8,57.9L111.8,57.9z"/>
		</g>
		<g>
			<path class="st6" d="M115.4,53.8c1-0.1,2,0,2.9,0.1c0.3,0,0.4-0.5,0-0.5c-1-0.1-2.1-0.2-3.1-0.1c-0.1,0-0.2,0.2-0.2,0.3
				C115.1,53.8,115.2,53.9,115.4,53.8L115.4,53.8z"/>
		</g>
		<g>
			<path class="st6" d="M57.3,52.6c1.2-0.7,2.6-0.9,3.9-0.4c0.3,0.1,0.5-0.4,0.2-0.5c-1.4-0.5-3-0.4-4.3,0.4
				C56.8,52.3,57,52.8,57.3,52.6L57.3,52.6z"/>
		</g>
		<g>
			<path class="st6" d="M61.5,55.3c1-0.5,2-0.8,3.1-1.1c0.3-0.1,0.2-0.6-0.1-0.5c-1.1,0.2-2.2,0.6-3.2,1.1
				C60.9,55,61.2,55.5,61.5,55.3L61.5,55.3z"/>
		</g>
		<g>
			<path class="st6" d="M65.6,59.3c0.9-0.3,1.9-0.5,2.9-0.5c0.3,0,0.4-0.5,0-0.5c-1.1,0-2.2,0.2-3.2,0.6c-0.1,0.1-0.2,0.2-0.1,0.4
				C65.3,59.3,65.5,59.3,65.6,59.3L65.6,59.3z"/>
		</g>
	</g>
</g>
</svg>
