<?xml version="1.0" encoding="utf-8"?>
<!-- Generator: Adobe Illustrator 22.1.0, SVG Export Plug-In . SVG Version: 6.00 Build 0)  -->
<svg version="1.1" id="Layer_1" xmlns="http://www.w3.org/2000/svg" xmlns:xlink="http://www.w3.org/1999/xlink" x="0px" y="0px"
	 viewBox="0 0 180 170" style="enable-background:new 0 0 180 170;" xml:space="preserve">
<style type="text/css">
	.st0{fill:#EC2B34;}
	.st1{fill:#F2A136;}
	.st2{fill:#C61421;}
	.st3{opacity:0.31;fill:#FFFFFF;}
	.st4{opacity:0.4;fill:#EC2B34;}
	.st5{fill:#FFD9A6;}
	.st6{fill:#F7B634;}
	.st7{fill:#3D372E;}
	.st8{fill:#FFFFFF;}
	.st9{fill:#F4D037;}
</style>
<g>
	<path class="st0" d="M62.8,135.1c2,6.9,57.1,8.5,60.7,1.3c1.2-2.4,1.8-5.1,2-7.7c0.3-3.7-0.2-7.4-0.7-11.1
		c-1.5-11.5-3-23.2-7.4-33.9c-0.4-1-0.8-2-1.6-2.7c-0.8-0.8-1.8-1.2-2.8-1.5c-3.9-1.2-8.1-1.1-12.1-1c-4.6,0.1-9.1,0.3-13.7,0.5
		c-3.4,0.2-6.8,0.5-10.1,1.1c-2.4,0.5-4.8,1.1-7.2,2c-2.4,0.9-2.5,1.1-2.5,3.6c0,4.1-0.4,8.1-1.1,12.2c-1.3,8-3.3,15.9-4,24.1
		C61.9,126.2,61.5,130.8,62.8,135.1z"/>
	<path class="st0" d="M58.1,117c-1.6-0.2-3.3-0.5-4.9,0c-3.5,1.1-5.2,5-6.2,8.5c-1.8,6.4-3,13-3.5,19.7c-0.1,1.1-0.1,2.2,0.6,3.1
		c0.4,0.4,0.9,0.7,1.4,1c1.6,0.8,3.2,1.7,4.8,2.5c1.2-3,2.8-5.9,5-8.2c2.2-2.3,5.2-4.1,8.4-4.5c2.7-0.3,5.4,0.2,8,0.7
		c6.1,1.1,12.4,1.4,18.6,1c-1.2,0.1-3.7-1.8-4.8-2.4c-1.6-0.9-3.1-1.8-4.5-2.8c-3.1-2.1-5.9-4.6-8.5-7.3c-2.6-2.7-4.5-5.6-6.8-8.5
		C63.8,117.4,61,117.4,58.1,117z"/>
	<path class="st0" d="M129,118.1c1.6-0.2,3.4-0.3,4.9,0.2c3.5,1.2,5,5.2,5.8,8.8c1.6,6.5,2.5,13.1,2.7,19.8c0,1.1,0,2.2-0.7,3
		c-0.4,0.4-0.9,0.7-1.4,0.9c-1.6,0.8-3.2,1.6-4.9,2.4c-1.1-3-2.5-6-4.7-8.4c-2.1-2.4-5-4.3-8.2-4.8c-2.7-0.4-5.4,0-8,0.4
		c-6.2,0.8-12.5,0.9-18.7,0.3c1.2,0.1,3.8-1.7,4.9-2.2c1.6-0.8,3.1-1.7,4.6-2.7c3.2-2,6.1-4.4,8.8-7c2.7-2.6,4.7-5.5,7.1-8.3
		C123.3,118.3,126.1,118.4,129,118.1z"/>
	<path class="st0" d="M60.9,111.8c-7.6-2.9-13.5-9.2-18.6-15.6c-0.2-0.3-0.5-0.6-0.5-1c-0.1-0.5,0.2-0.9,0.5-1.3
		c0.8-1.1,1.5-2.3,2.3-3.4c6.3,6.7,17.1,8.7,25.3,4.7c0.9,4.6,3,9.1,2.1,13.7C70.8,115.5,65.3,113.5,60.9,111.8z"/>
	<path class="st0" d="M126.4,99.6c6.5-5,10.3-12.7,13.4-20.3c0.1-0.3,0.3-0.7,0.2-1.1c-0.1-0.4-0.4-0.8-0.8-1.1
		c-1-0.9-2.1-1.8-3.1-2.7c-4.1,8.2-13.9,13.2-23,11.7c0.4,4.6-0.2,9.6,1.9,13.8C118,105.9,122.7,102.5,126.4,99.6z"/>
	<path class="st1" d="M46.7,153.6c-1.4-0.1-2.7-0.8-3.9-1.6c-2.8-1.9-5.3-4.5-7.2-7.3c-0.6-1-1.2-2.1-1-3.2c0.1-0.6,0.4-1.1,0.7-1.5
		c1-1.5,2.8-2.7,4.6-2.3c0.8,0.2,1.6,0.7,2.3,1.2c2.1,1.6,4,3.4,5.6,5.3C49.9,146.7,52.9,154,46.7,153.6z"/>
	<path class="st1" d="M148.7,141c0.3,1.4-0.1,2.9-0.5,4.2c-1.1,3.2-2.9,6.3-5.2,8.8c-0.8,0.9-1.7,1.7-2.8,1.8
		c-0.6,0.1-1.1-0.1-1.6-0.3c-1.7-0.6-3.3-2-3.4-3.8c-0.1-0.9,0.2-1.7,0.6-2.5c1-2.4,2.2-4.7,3.6-6.9
		C141.1,139.7,147.4,134.9,148.7,141z"/>
	<path class="st2" d="M117.5,75.5c0,0-3.5-2.8-17.6-2c-3.4,0.2-6.9,0.7-10.2,1.4c-3.3,0.5-6.8,1.2-10,2.3
		c-13.5,4.2-15.8,8.1-15.8,8.1s-0.6,2.9,0,5.3c1.4,6.6,2.7,5.6,2.7,5.6s6-6.8,14.1-9.4c3.8-1.2,7.4-2.2,10.6-2.8
		c3.3-0.5,6.9-0.9,10.9-1.1c8.5-0.4,16.5,3.8,16.5,3.8s1.5,0.5,0.6-6.2C119,78.1,117.5,75.5,117.5,75.5z"/>
	<path class="st1" d="M37.9,94c-1.8-0.3-3.7-0.2-5.5-0.2c-0.4,0-0.9,0-1.3-0.2c-0.4-0.2-0.6-0.7-0.4-1.1c0.1-0.2,0.4-0.3,0.7-0.4
		c0.9-0.3,1.8-0.6,2.6-1c-1.4-0.5-2.7-1.4-3.6-2.7c-0.3-0.4-0.5-0.9-0.3-1.3c0.3-0.5,1-0.5,1.5-0.5c1.4,0.1,2.9,0.5,4.2,1
		c-0.8-1-1.2-2.3-1.3-3.6c0-0.6,0.1-1.3,0.7-1.5c0.4-0.1,0.8,0,1.2,0.2c1.2,0.7,3.2,2.6,4.2,3.9c-0.2-1.4,0.1-2.9,1-3.7
		c0.3-0.3,0.5-0.8,0.9-0.8c0.7,0,1.2,0.8,1.2,1.5c0,0.7-0.3,1.4-0.4,2.2c-0.2,1.4,0.6,2.7,1.4,3.9c0.8,1.2,1.7,2.3,2,3.7
		c0.5,2.2-1.2,4.1-3.3,3.2C41.6,95.7,40.2,94.4,37.9,94z"/>
	<path class="st1" d="M143.5,74.8c1.6-0.9,3.3-1.6,5-2.3c0.4-0.2,0.8-0.3,1.1-0.7c0.3-0.3,0.3-0.9-0.1-1.2c-0.2-0.2-0.5-0.2-0.8-0.2
		c-0.9,0-1.9,0.1-2.8,0.1c1.2-1,2-2.4,2.3-3.8c0.1-0.5,0.1-1-0.3-1.3c-0.4-0.4-1.1-0.1-1.6,0.1c-1.3,0.7-2.5,1.5-3.5,2.5
		c0.3-1.2,0.3-2.6-0.2-3.8c-0.2-0.6-0.6-1.1-1.2-1.1c-0.4,0-0.7,0.3-1,0.7c-0.9,1.1-2,3.7-2.5,5.2c-0.3-1.3-1.2-2.6-2.3-3.1
		c-0.4-0.2-0.7-0.5-1.1-0.4c-0.7,0.3-0.8,1.2-0.5,1.9c0.3,0.7,0.8,1.2,1.2,1.8c0.7,1.2,0.5,2.8,0.2,4.1c-0.3,1.4-0.7,2.8-0.5,4.2
		c0.4,2.2,2.6,3.4,4.3,1.7C140.7,77.7,141.5,76,143.5,74.8z"/>
	<path class="st2" d="M138.1,81.3c0.3,0.2,0.6,0.3,0.9,0.5c-2.8,8.6-8.7,16.2-16.4,21c-0.2-1.4-0.9-2.8-1.9-3.8
		c1.5,0,3.3-1.2,4.6-1.9c1.5-0.8,2.8-1.8,4.1-2.9c2.6-2.2,4.8-4.8,6.4-7.8C136.1,86,138.4,81.5,138.1,81.3z"/>
	<path class="st2" d="M131.4,78.4c-0.1,0.2-0.3,0.3-0.2,0.5c0,0.2,0.3,0.4,0.5,0.6c2,1.5,4.2,3,6.9,3.4c0.3,0,0.6,0.1,0.9,0
		c0.4-0.1,0.7-0.5,0.9-0.9c0.8-1.6,1.6-3.3,2.3-5c0.1-0.2,0.2-0.4,0-0.6c-0.1-0.2-0.4-0.3-0.6-0.3c-1.3-0.4-2.5-0.8-3.8-1.2
		c-0.8-0.3-2.4-1.1-3.3-0.9C133.6,74.4,132.2,77.4,131.4,78.4z"/>
	<path class="st2" d="M63.3,112.8c0.1-1,0.6-2,1.3-2.7c-4.4-1.3-8.8-2.7-12.5-5.4c-2.9-2.1-5.2-4.8-7.6-7.4
		c-0.2-0.2-0.5-0.5-0.8-0.6c-1.2-0.3-0.6,1-0.2,1.4c0.4,0.5,1,0.9,1.4,1.5c1.2,1.4,2.4,2.8,3.8,4.1c2.7,2.6,5.7,4.8,9,6.6
		C58.2,110.6,63.3,112.7,63.3,112.8z"/>
	<path class="st2" d="M50.5,92.8c0.2,0.1,0.4,0.2,0.4,0.4c0.1,0.2-0.1,0.5-0.2,0.7c-1.3,2.1-2.8,4.3-5.1,5.7
		c-0.3,0.2-0.5,0.3-0.8,0.3c-0.5,0-0.8-0.2-1.1-0.5c-1.4-1.2-2.7-2.4-4-3.7c-0.1-0.1-0.3-0.3-0.3-0.5c0-0.2,0.2-0.4,0.4-0.5
		c1-0.8,2-1.7,3-2.5c0.7-0.5,1.8-1.9,2.7-2.1C46.9,90,49.4,92.2,50.5,92.8z"/>
	<path class="st1" d="M135.5,152.3c0.2-1,0.7-1.9,1.3-2.7c2.4-3.6,5.7-6.6,9.3-9.2c0.5-0.3,1-0.7,1.6-0.6c0.6,0.1,1,0.5,1.2,1
		c0.2,0.5,0.2,1.1,0.2,1.6c-0.2,3.7-2,7.1-4.2,10c-1.5,2.1-3.6,4-6.3,4C136.6,156.3,135.1,154.2,135.5,152.3z"/>
	<path class="st1" d="M34.3,142.4c0.2,0.7,2.3,5.8,9,10.7c2,1.4,5.1,1.2,6.7-0.5c0.2-0.2,0.4-0.5,0.5-0.8c0.1-0.3,0-0.7-0.1-1
		c-0.8-2.4-2.8-4.2-4.8-5.7c-1.9-1.5-3.9-2.9-6.2-3.8C37.9,140.7,33.4,139.3,34.3,142.4z"/>
	<g>
		<path class="st2" d="M65.2,118.5c1.2-1.4,2.7-2.3,4.4-3.1c0.8-0.4,1.5-0.7,2.4-1c1-0.3,2-0.6,3-0.9c4.1-1.2,8.2-2.1,12.4-2.7
			c4-0.6,8.1-0.8,12.2-0.5c3.7,0.2,7.3,0.7,10.9,1.8c3.4,1,6.8,2.6,9.6,4.9c0.3,0.3,0.7,0.6,1,0.9c0.3,0.3,0.8,0.3,1,0
			c0.3-0.3,0.3-0.8,0-1c-2.8-2.6-6.2-4.4-9.7-5.6c-3.6-1.3-7.5-1.9-11.3-2.2c-4.1-0.3-8.3-0.2-12.4,0.3c-4.3,0.5-8.5,1.4-12.7,2.5
			c-2,0.6-4,1.1-5.9,1.9c-1.8,0.7-3.6,1.7-5.1,3c-0.3,0.3-0.6,0.6-0.9,0.9c-0.3,0.3-0.3,0.7,0,1C64.4,118.8,65,118.8,65.2,118.5
			L65.2,118.5z"/>
	</g>
	<g>
		<path class="st2" d="M67.3,121.2c1.6-1,3.2-1.8,4.9-2.6c1.7-0.8,3.3-1.4,5.1-2c3.5-1.2,7.2-2,10.9-2.5c0.8-0.1,1.7-0.2,2.6-0.3
			c0.9-0.1,1.8-0.1,2.8-0.1c1.8-0.1,3.6,0,5.4,0.1c3.4,0.2,6.7,0.8,10,1.7c0.8,0.2,1.5,0.5,2.3,0.8c0.4,0.1,0.7,0.3,1.1,0.4
			c0.1,0,0.2,0.1,0.3,0.1c0,0,0.1,0,0.1,0.1c0.1,0-0.1,0,0,0c0.2,0.1,0.4,0.2,0.5,0.2c1.4,0.6,2.7,1.3,4,2.2
			c0.3,0.2,0.6,0.4,0.9,0.6c0.3,0.2,0.8,0.1,1-0.3c0.2-0.4,0.1-0.8-0.3-1c-2.6-1.8-5.5-3.2-8.4-4.1c-3.3-1.1-6.7-1.7-10.1-2.1
			c-3.6-0.3-7.3-0.3-10.9,0.1c-3.8,0.4-7.5,1.1-11.2,2.2c-3.6,1.1-7.2,2.6-10.5,4.4c-0.4,0.2-0.8,0.5-1.2,0.7
			c-0.3,0.2-0.5,0.7-0.3,1C66.5,121.3,66.9,121.4,67.3,121.2L67.3,121.2z"/>
	</g>
	<g>
		<path class="st2" d="M63.3,118.6c1.7,1.2,3.5,2.6,4.7,4.4c1.6,2.3,2.1,5.2,2.1,6.3c0,1.1-0.2,2.1-0.7,3.1c-1,2.1-2.9,3.6-4.9,4.8
			c-0.3,0.2-0.5,0.7-0.3,1c0.2,0.3,0.7,0.5,1,0.3c2.1-1.2,4.1-2.8,5.3-5c0.8-1.5,1.2-3.2,1-5c-0.3-2.2-1-4.4-2.2-6.2
			c-1.4-2-3.3-3.6-5.3-5c-0.3-0.2-0.8-0.1-1,0.3C62.8,118,63,118.4,63.3,118.6L63.3,118.6z"/>
	</g>
	<g>
		<path class="st2" d="M120.3,138.5c-1.7-1.5-2.9-3.4-3.6-5.5c-0.7-2-1.1-4.2-0.9-6.3c0.1-1.7,0.6-3.1,1.4-4.3
			c0.7-1,1.5-1.9,2.5-2.7c0.6-0.5,1.2-0.8,2.1-1.1c0.4-0.1,0.9-0.2,1.4-0.1c0.1,0,0.2,0.1,0.3,0.1c0.4,0.1,0.8-0.2,0.9-0.5
			c0.1-0.4-0.1-0.8-0.5-0.9c-0.8-0.3-1.8-0.2-2.6,0.1c-0.7,0.2-1.4,0.5-1.9,0.9c-1.1,0.8-2.1,1.8-3,2.9c-1,1.4-1.6,3-1.9,4.7
			c-0.1,1-0.1,2,0,3.1c0.1,1.2,0.3,2.5,0.7,3.6c0.8,2.7,2.2,5.1,4.2,7c0.3,0.3,0.8,0.3,1,0C120.6,139.3,120.6,138.8,120.3,138.5
			L120.3,138.5z"/>
	</g>
	<g>
		<path class="st2" d="M65,107.2c1.7-2.4,2.8-5.1,3.2-8c0.1-0.8,0.2-1.6,0.2-2.4c0-0.4-0.3-0.7-0.7-0.8c-0.4,0-0.8,0.3-0.8,0.7
			c0,1.8-0.2,3.4-0.8,5.1c-0.5,1.6-1.3,3.2-2.3,4.6c-0.2,0.3-0.1,0.8,0.3,1C64.4,107.7,64.8,107.6,65,107.2L65,107.2z"/>
	</g>
	<g>
		<path class="st2" d="M115.6,87.3c-0.2,3.2,0.7,6.6,2.4,9.3c0.5,0.8,1.1,1.6,1.7,2.3c0.2,0.3,0.7,0.3,1,0.1
			c0.3-0.2,0.3-0.6,0.2-0.9c0-0.1-0.1-0.2-0.1-0.3c-0.2-0.4-0.7-0.5-1-0.3c-0.4,0.2-0.4,0.6-0.3,1c0,0.1,0.1,0.2,0.1,0.3
			c0.4-0.3,0.8-0.6,1.2-0.9c-2-2.2-3.3-5-3.6-8c-0.1-0.8-0.1-1.7-0.1-2.5c0-0.4-0.3-0.7-0.7-0.8C116,86.6,115.7,86.9,115.6,87.3
			L115.6,87.3z"/>
	</g>
	<path class="st3" d="M47.6,134.9c0,0.6,0.1,1.3,0.6,1.7c0.8,0.5,1.7-0.3,2.1-1.1c1.5-2.9,1.2-6.7,3.5-8.9c0.9-0.9,2.1-1.4,2.9-2.3
		c0.9-0.9,1.3-2.5,0.4-3.3c-2.1-2.1-6.4,0.3-7.3,2.3C48.2,126.7,47.6,131.1,47.6,134.9z"/>
	<path class="st3" d="M129.3,121.9c-0.2,0.9,0.1,1.8,0.5,2.5c0.5,0.8,1.1,1.4,1.6,2.1c1.9,2.5,2.6,5.6,3.8,8.4
		c0.2,0.4,0.5,0.9,0.9,0.7c0.1-3.8-0.2-7.7-0.7-11.5c-0.2-1.2-0.4-2.4-1.2-3.3C133,119.6,129.8,120,129.3,121.9z"/>
	<g>
		<g>
			<path class="st2" d="M109.1,71.1c0.9,0.2,1.7,0.3,2.6,0.2c1.2-0.1,2.4-0.4,3.5-0.8c3.3-1.1,4-1.7,6.1-1.7c2.5-0.1,4.6,0.7,6.7,2
				c2.8,1.6,5.5,4.1,7.6,6.4c1.5,1.6,2.9,3.4,4.1,5.7c1.5,2.9,1.9,5.2,1.9,7.8c-0.1,1.7-0.7,4.2-2.1,6.7c-0.9,1.7-2,3.1-3.7,4.9
				c-3.5,3.6-6.6,5.3-10.3,8.2c-2.3,1.7-4.5,3.6-6,6.1c-0.8,1.3-1.4,2.8-1.6,4.3c-0.1,0.5-0.1,1,0.2,1.4c0.2,0.4,0.7,0.7,1.1,0.8
				c0.5,0.1,1,0.1,1.4-0.2c0.4-0.3,0.8-0.7,0.8-1.1c0.1-0.7,0.3-1.3,0.5-1.9c0.6-1.5,1.3-2.4,2.4-3.5c2.3-2.4,4.5-3.7,7.7-6
				c2.2-1.6,4.3-3.3,6.2-5.3c1.9-1.9,3.5-4.1,4.8-6.4c1.3-2.4,2-5,2.2-7.8c0.4-5.1-1.9-10-4.9-14c-1.6-2-3.3-3.9-5.2-5.6
				c-1.9-1.7-4-3.4-6.4-4.5c-2.4-1.2-5-2-7.7-1.9c-1.4,0.1-2.7,0.4-4,0.8c-1.1,0.4-2.1,0.8-3.2,1.1c-1.4,0.5-2.6,0.8-3.9,0.5
				c-1-0.2-2.1,0.4-2.3,1.4C107.6,69.8,108.1,70.9,109.1,71.1L109.1,71.1z"/>
		</g>
		<path class="st4" d="M132.3,48.6c1.5,9.8-9.6,25.2-13.7,26.1c-13.7,3.1-17.1,25-28,25.3c-10.5,0.2-14.4-9-28.6-16
			c-7.4-3.7-19.5-17-19.7-26.2c-0.5-23.2,9.5-40.6,44.2-43.8C108.5,11.8,128.2,22.3,132.3,48.6z"/>
		<path class="st1" d="M50.9,33.4c6.4-0.6,12.9,1.2,18.1,5c0.8,0.6-1.9,6.2-2.3,6.9c-1.2,2.2-2.7,4.3-4.6,6
			c-1.7,1.6-3.3,2.6-5.1,0.4c-1.8-2.2-3-5.3-4-7.9C51.9,40.4,51.2,36.9,50.9,33.4z"/>
		<path class="st5" d="M57.1,46.8c-1.2-3.1-2.2-6.3-2.7-9.6c4.4-0.3,8.9,0.8,12.4,3.5c0.2,0.1,0.3,0.3,0.4,0.5c0,0.2,0,0.3-0.1,0.5
			c-0.7,2-1.4,4.1-3,5.5c-0.7,0.6-1.6,1.1-2.4,1.5c-0.8,0.4-1.7,1.1-2.5,1.3c-0.7,0.2-0.7-0.2-0.9-0.8
			C57.8,48.4,57.4,47.6,57.1,46.8z"/>
		<path class="st1" d="M117.9,26.1c-6.4,0.3-12.7,2.9-17.3,7.3c-0.7,0.7,2.7,5.9,3.2,6.5c1.5,2,3.3,3.9,5.3,5.3
			c1.9,1.4,3.6,2.1,5.1-0.2c1.5-2.4,2.3-5.6,2.9-8.4C117.9,33.2,118.2,29.7,117.9,26.1z"/>
		<path class="st5" d="M113.6,40.2c0.8-3.2,1.3-6.5,1.4-9.9c-4.4,0.2-8.8,2-11.9,5.1c-0.1,0.1-0.3,0.3-0.3,0.5
			c0,0.2,0.1,0.3,0.1,0.5c0.9,1.9,2,3.9,3.7,5.1c0.8,0.5,1.7,0.9,2.6,1.2c0.8,0.3,1.8,0.9,2.7,1c0.7,0.1,0.7-0.3,0.8-0.9
			C113.1,41.9,113.4,41.1,113.6,40.2z"/>
		<path class="st1" d="M111.5,40.7c-4.1-4-9.2-7.1-14.8-8.5c-2.2-0.6-7.2-0.2-12.5,0.6c-5.3,0.4-10.3,1.2-12.3,2.3
			c-5.1,2.6-9.4,6.8-12.5,11.6c-4,6.2-6.4,13.3-8.1,20.5c5,3.6,9.4,7.9,13.1,12.8c0.6,0.9,1.3,1.8,2.4,2.1c0.6,0.2,1.3,0.2,2,0.1
			c7-0.4,14-0.8,20.9-1.6c6.9-0.8,13.8-2,20.7-3.1c0.7-0.1,1.3-0.2,1.9-0.6c0.9-0.6,1.4-1.6,1.8-2.6c2.5-5.6,5.8-10.8,9.9-15.4
			C120.7,52.3,116.8,45.8,111.5,40.7z"/>
		<path class="st6" d="M86.6,35.4c-0.2-1.1-0.2-2-0.3-2.8c-0.7,0.1-1.5,0.2-2.2,0.3c-5.3,0.4-10.3,1.2-12.3,2.3
			c-5.1,2.6-9.4,6.8-12.5,11.6c-4,6.2-6.4,13.3-8.1,20.5c0,0,0,0,0.1,0.1c1.2-2.4,4.8-10.7,8-13.1c4.7-3.5,8.7-4.4,12.6-3.5
			c4.1,1,7.5,4,10.1,10.9c0.8,2.1,1.6,3.5,2,5.8c1.7-0.3,4.7-0.2,6.4-0.1C89.9,56.7,88.7,45.7,86.6,35.4z"/>
		<path class="st6" d="M82.3,35.9c0-1.1-0.2-2-0.4-2.8c0.7-0.1,1.5-0.1,2.2-0.2c5.3-0.8,10.3-1.1,12.5-0.6
			c5.6,1.4,10.7,4.5,14.8,8.5c5.3,5.1,9.2,11.5,12.5,18.2c0,0,0,0-0.1,0.1c-1.7-2.1-7-9.3-10.7-11c-5.3-2.4-9.5-2.4-13-0.5
			c-3.7,1.9-6.4,5.6-7.3,12.9c-0.3,2.2-0.8,3.7-0.7,6.1c-1.7,0.1-4.5,1-6.1,1.5C84.1,57.5,82.6,46.4,82.3,35.9z"/>
		<g>
			<path class="st7" d="M69.7,56.4c0.2,1.7-0.8,3.3-2.1,3.4c-1.4,0.2-2.6-1.1-2.8-2.8c-0.2-1.7,0.8-3.3,2.1-3.4
				C68.2,53.4,69.5,54.6,69.7,56.4z"/>
			<path class="st8" d="M67.2,54.4c-0.2-0.1-0.8,0.1-0.8,0.1c-0.7,0.5-1,1.4-0.8,2.2c0,0.2,0.1,0.4,0.2,0.5c0.2,0.2,0.5,0.1,0.7,0
				c0.2-0.1,0.3-0.4,0.4-0.6C67.3,55.9,67.7,54.6,67.2,54.4z"/>
		</g>
		<g>
			<path class="st7" d="M107.3,51.7c0.2,1.7-0.8,3.3-2.1,3.4c-1.4,0.2-2.6-1.1-2.8-2.8c-0.2-1.7,0.8-3.3,2.1-3.4
				C105.9,48.7,107.1,50,107.3,51.7z"/>
			<path class="st8" d="M104.9,49.7c-0.2-0.1-0.8,0.1-0.8,0.1c-0.7,0.5-1,1.4-0.8,2.2c0,0.2,0.1,0.4,0.2,0.5c0.2,0.2,0.5,0.1,0.7,0
				c0.2-0.1,0.3-0.4,0.4-0.6C105,51.2,105.3,49.9,104.9,49.7z"/>
		</g>
		<path class="st7" d="M83.5,63.6c-0.2,0.1-0.4,0.2-0.6,0.3c-0.3,0.3-0.3,0.8-0.1,1.2c0.2,0.4,0.5,0.7,0.8,1
			c1.3,1.1,2.8,2.2,4.4,2.9c0.3,0.1,0.6,0.3,0.9,0.2c0.2-0.1,0.4-0.3,0.5-0.4c1.3-1.5,2.5-3,3.2-4.8c0.1-0.2,0.1-0.3,0.1-0.5
			c-0.1-0.3-0.4-0.5-0.8-0.6c-1.4-0.4-2.9-0.5-4.3-0.2C86.3,62.9,84.9,63.1,83.5,63.6z"/>
		<g>
			<path class="st7" d="M88.2,67.5c0.3,1.3,0.6,2.8-0.2,3.9c-0.7,1.1-2.1,1.2-3.3,1.1c-0.3,0-0.3,0.5,0,0.5c1.4,0.1,2.9,0,3.7-1.3
				c0.9-1.3,0.6-3,0.3-4.4C88.6,67.1,88.1,67.2,88.2,67.5L88.2,67.5z"/>
		</g>
		<g>
			<path class="st7" d="M88.2,68c0.2,0.8,0.3,1.6,0.5,2.4c0.2,0.7,0.4,1.3,1,1.8c1.2,0.9,2.7,0.7,4,0.2c0.3-0.1,0.2-0.7-0.2-0.5
				c-1.1,0.5-2.6,0.7-3.6-0.1c-0.5-0.4-0.7-1-0.8-1.7c-0.2-0.7-0.3-1.5-0.5-2.2C88.6,67.5,88.1,67.7,88.2,68L88.2,68z"/>
		</g>
		<path class="st3" d="M46,47.7c-0.7,2-0.4,4.7,1.6,5.5c2,0.7,4-1.2,5.1-3c2.2-3.8,3.1-8.3,5.1-12.3c3.2-6.2,8.9-10.7,14.9-14.2
			c0.7-0.4,1.5-0.9,1.5-1.7c0-1-1.2-1.6-2.2-1.7c-3.4-0.4-6.5,1.6-9.2,3.6c-4,2.9-7.9,6.2-10.9,10.1c-3,4-5.2,8.7-5.4,13.7
			c0.1-0.9,0.2-1.7,0.3-2.6L46,47.7z"/>
		<path class="st3" d="M79.7,17.6c-0.6,0.3-1.2,0.6-1.6,1.1c-0.4,0.5-0.6,1.3-0.2,1.8c0.3,0.4,0.8,0.6,1.3,0.7
			c1.2,0.3,2.5,0.2,3.6-0.1c0.7-0.2,1.5-0.6,2-1.2c0.5-0.6,0.6-1.5,0.2-2.2c-0.5-0.7-1.4-0.9-2.3-1C81.6,16.6,80.4,16.7,79.7,17.6
			c-0.1-0.1-0.3-0.2-0.4-0.2L79.7,17.6z"/>
		<g>
			<path class="st9" d="M66.6,46.9c1-0.5,2.2-0.7,3.3-0.7c0.3,0,0.3-0.5,0-0.5c-1.3,0-2.5,0.3-3.6,0.8c-0.1,0.1-0.2,0.3-0.1,0.4
				C66.4,46.9,66.5,47,66.6,46.9L66.6,46.9z"/>
		</g>
		<g>
			<path class="st9" d="M74.4,47.1c0.8,0.1,1.6,0.4,2.3,0.9c0.1,0.1,0.3,0.1,0.4,0c0.1-0.1,0.1-0.3,0-0.4c-0.8-0.6-1.7-1-2.7-1.1
				c-0.1,0-0.3,0.1-0.3,0.3C74.1,47,74.2,47.1,74.4,47.1L74.4,47.1z"/>
		</g>
		<g>
			<path class="st9" d="M78.8,51.3c0.9,1.2,1.8,2.4,2.5,3.7c0.2,0.3,0.6,0,0.5-0.3c-0.7-1.3-1.5-2.6-2.5-3.7
				c-0.1-0.1-0.2-0.2-0.4-0.1C78.7,51,78.7,51.2,78.8,51.3L78.8,51.3z"/>
		</g>
		<g>
			<path class="st9" d="M80.3,47.3c0.7,1,1.4,2,1.9,3.1c0.2,0.3,0.6,0,0.5-0.3c-0.6-1.1-1.2-2.1-1.9-3.1
				C80.6,46.8,80.1,47.1,80.3,47.3L80.3,47.3z"/>
		</g>
		<g>
			<path class="st9" d="M75.2,40.8c0.5,0.6,1,1.2,1.6,1.7c0.1,0.1,0.3,0.1,0.4,0c0.1-0.1,0.1-0.3,0-0.4c-0.3-0.2-0.6-0.5-0.8-0.8
				c-0.3-0.3-0.5-0.5-0.7-0.8c-0.1-0.1-0.2-0.2-0.4-0.1C75.2,40.5,75.1,40.7,75.2,40.8L75.2,40.8z"/>
		</g>
		<g>
			<path class="st9" d="M68.6,40.5c0.8,0.1,1.5,0.2,2.3,0.3c0.1,0,0.3,0,0.3-0.2c0-0.1-0.1-0.3-0.2-0.3c-0.8-0.1-1.5-0.2-2.3-0.3
				c-0.1,0-0.3,0-0.3,0.2C68.4,40.3,68.4,40.5,68.6,40.5L68.6,40.5z"/>
		</g>
		<g>
			<path class="st9" d="M58.6,53.6c0.7-0.8,1.5-1.4,2.3-2c0.3-0.2,0-0.6-0.3-0.5c-0.9,0.6-1.7,1.3-2.4,2.1
				C57.9,53.5,58.3,53.8,58.6,53.6L58.6,53.6z"/>
		</g>
		<g>
			<path class="st9" d="M62.1,46.6c0.5-0.3,1-0.6,1.5-0.9c0.1-0.1,0.2-0.3,0.1-0.4c-0.1-0.1-0.2-0.2-0.4-0.1c-0.5,0.3-1,0.6-1.5,0.9
				c-0.1,0.1-0.2,0.3-0.1,0.4C61.8,46.6,62,46.7,62.1,46.6L62.1,46.6z"/>
		</g>
		<g>
			<path class="st9" d="M84.6,46.4c0.4,0.3,0.8,0.7,1.2,1c0.1,0.1,0.3,0.1,0.4,0c0.1-0.1,0.1-0.3,0-0.4c-0.4-0.3-0.8-0.7-1.2-1
				c-0.1-0.1-0.3-0.1-0.4,0C84.5,46.1,84.5,46.3,84.6,46.4L84.6,46.4z"/>
		</g>
		<g>
			<path class="st9" d="M86.5,52.7c0.6,1.4,0.9,2.9,1,4.4c0,0.3,0.6,0.3,0.5,0c-0.1-1.6-0.4-3.1-1-4.6
				C86.9,52.3,86.3,52.4,86.5,52.7L86.5,52.7z"/>
		</g>
		<g>
			<path class="st9" d="M84.1,57.1c0.6,1.2,1,2.5,1.5,3.8c0.1,0.3,0.6,0.2,0.5-0.2c-0.4-1.3-0.9-2.5-1.5-3.8
				c-0.1-0.1-0.2-0.2-0.3-0.2C84.1,56.8,84,57,84.1,57.1L84.1,57.1z"/>
		</g>
		<g>
			<path class="st9" d="M91.1,60.3c0-1.3,0.1-2.6,0.4-3.9c0.1-0.3-0.4-0.5-0.5-0.1c-0.3,1.3-0.4,2.7-0.4,4
				C90.5,60.6,91.1,60.6,91.1,60.3L91.1,60.3z"/>
		</g>
		<g>
			<path class="st9" d="M89.2,51.8c0-1.3,0.4-2.6,1.3-3.6c0.2-0.3-0.2-0.6-0.4-0.4c-0.9,1.1-1.4,2.5-1.4,4
				C88.7,52.2,89.2,52.2,89.2,51.8L89.2,51.8z"/>
		</g>
		<g>
			<path class="st9" d="M93.6,51.4c0.5-1,1-1.9,1.6-2.9c0.2-0.3-0.3-0.6-0.5-0.3c-0.5,1-1,1.9-1.6,2.9
				C92.9,51.5,93.4,51.7,93.6,51.4L93.6,51.4z"/>
		</g>
		<g>
			<path class="st9" d="M97.9,44.9c1.6-0.8,3.3-1.2,5-1.4c0.3,0,0.3-0.6,0-0.5c-1.8,0.1-3.6,0.6-5.2,1.4
				C97.3,44.6,97.6,45.1,97.9,44.9L97.9,44.9z"/>
		</g>
		<g>
			<path class="st9" d="M91.9,45.5c0.4-0.9,0.8-1.8,1.3-2.7c0.2-0.3-0.3-0.6-0.5-0.3c-0.5,0.9-0.9,1.8-1.3,2.7
				c-0.1,0.1,0,0.3,0.1,0.4C91.6,45.6,91.8,45.6,91.9,45.5L91.9,45.5z"/>
		</g>
		<g>
			<path class="st9" d="M89.5,42.9c-0.2-1-0.2-1.9,0.1-2.9c0.1-0.3-0.4-0.5-0.5-0.1c-0.3,1-0.4,2.1-0.1,3.2
				C89,43.4,89.6,43.2,89.5,42.9L89.5,42.9z"/>
		</g>
		<g>
			<path class="st9" d="M84.1,42.5c-0.3-1-0.6-2-0.8-3c-0.1-0.3-0.6-0.2-0.5,0.2c0.3,1,0.6,2,0.8,3C83.6,43,84.1,42.9,84.1,42.5
				L84.1,42.5z"/>
		</g>
		<g>
			<path class="st9" d="M79.1,38.3c-0.3-0.7-0.6-1.3-1.1-1.9c-0.1-0.1-0.2-0.2-0.4-0.1c-0.1,0.1-0.2,0.3-0.1,0.4
				c0.4,0.5,0.8,1.1,1,1.8c0.1,0.1,0.2,0.2,0.3,0.2C79.1,38.5,79.2,38.4,79.1,38.3L79.1,38.3z"/>
		</g>
		<g>
			<path class="st9" d="M89.4,37.8c0-0.7,0.3-1.3,0.8-1.8c0.1-0.1,0.1-0.3,0-0.4c-0.1-0.1-0.3-0.1-0.4,0c-0.6,0.6-0.9,1.4-0.9,2.2
				c0,0.1,0.1,0.3,0.3,0.3C89.3,38.1,89.4,37.9,89.4,37.8L89.4,37.8z"/>
		</g>
		<g>
			<path class="st9" d="M94.8,38.7c0.4-0.9,1.2-1.6,2.1-1.9c0.3-0.1,0.2-0.6-0.2-0.5c-1,0.3-1.9,1.1-2.4,2.1c-0.1,0.1,0,0.3,0.1,0.4
				C94.6,38.9,94.8,38.9,94.8,38.7L94.8,38.7z"/>
		</g>
		<g>
			<path class="st9" d="M100.3,39.5c1.1-0.4,2.3-0.7,3.5-0.8c0.3,0,0.3-0.6,0-0.5c-1.3,0.1-2.5,0.4-3.7,0.8
				C99.8,39.1,99.9,39.6,100.3,39.5L100.3,39.5z"/>
		</g>
		<g>
			<path class="st9" d="M107.6,43.6c1.1,0.2,2.2,0.4,3.2,0.8c0.3,0.1,0.5-0.4,0.1-0.5c-1-0.3-2.1-0.6-3.2-0.8
				C107.4,43,107.3,43.5,107.6,43.6L107.6,43.6z"/>
		</g>
		<g>
			<path class="st9" d="M115,47.8c0.6,0.3,1.1,0.6,1.7,0.9c0.1,0.1,0.3,0,0.4-0.1c0.1-0.1,0-0.3-0.1-0.4c-0.6-0.3-1.1-0.6-1.7-0.9
				c-0.1-0.1-0.3,0-0.4,0.1C114.8,47.5,114.9,47.7,115,47.8L115,47.8z"/>
		</g>
		<g>
			<path class="st9" d="M108.7,40.7c0.6,0.4,1.2,0.6,1.9,0.7c0.1,0,0.3,0,0.3-0.2c0-0.1-0.1-0.3-0.2-0.3c-0.6-0.1-1.2-0.3-1.8-0.7
				c-0.1-0.1-0.3,0-0.4,0.1C108.5,40.4,108.6,40.6,108.7,40.7L108.7,40.7z"/>
		</g>
		<g>
			<path class="st6" d="M108.2,71.1c1.2-0.6,2.6-0.9,3.9-1c0.3,0,0.3-0.6,0-0.5c-1.5,0.1-2.9,0.4-4.2,1
				C107.6,70.8,107.9,71.3,108.2,71.1L108.2,71.1z"/>
		</g>
		<g>
			<path class="st6" d="M110.2,67.6c1.2-0.4,2.4-0.6,3.7-0.6c0.3,0,0.3-0.5,0-0.5c-1.3,0-2.6,0.2-3.8,0.6
				C109.7,67.2,109.9,67.7,110.2,67.6L110.2,67.6z"/>
		</g>
		<g>
			<path class="st6" d="M113.4,63.2c1-0.2,2-0.2,2.9-0.2c0.3,0,0.3-0.5,0-0.5c-1-0.1-2.1,0-3.1,0.2c-0.1,0-0.2,0.2-0.2,0.3
				C113.1,63.2,113.3,63.2,113.4,63.2L113.4,63.2z"/>
		</g>
		<g>
			<path class="st6" d="M55.5,67.4c1.1-0.8,2.5-1.1,3.8-0.8c0.3,0.1,0.5-0.4,0.1-0.5c-1.5-0.4-3.1-0.1-4.3,0.8
				C54.9,67.2,55.2,67.6,55.5,67.4L55.5,67.4z"/>
		</g>
		<g>
			<path class="st6" d="M59.9,69.7c0.9-0.6,1.9-1,2.9-1.3c0.3-0.1,0.2-0.6-0.2-0.5c-1.1,0.3-2.1,0.8-3.1,1.4
				C59.3,69.4,59.6,69.9,59.9,69.7L59.9,69.7z"/>
		</g>
		<g>
			<path class="st6" d="M64.4,73.3c0.9-0.4,1.9-0.7,2.9-0.8c0.3,0,0.3-0.6,0-0.5c-1.1,0.1-2.1,0.4-3.1,0.9c-0.1,0.1-0.2,0.3-0.1,0.4
				C64.1,73.3,64.2,73.3,64.4,73.3L64.4,73.3z"/>
		</g>
	</g>
</g>
</svg>
