<?xml version="1.0" encoding="utf-8"?>
<!-- Generator: Adobe Illustrator 22.1.0, SVG Export Plug-In . SVG Version: 6.00 Build 0)  -->
<svg version="1.1" id="Layer_1" xmlns="http://www.w3.org/2000/svg" xmlns:xlink="http://www.w3.org/1999/xlink" x="0px" y="0px"
	 viewBox="0 0 340 530" style="enable-background:new 0 0 340 530;" xml:space="preserve">
<style type="text/css">
	.st0{fill-rule:evenodd;clip-rule:evenodd;fill:url(#SVGID_1_);}
	.st1{fill-rule:evenodd;clip-rule:evenodd;fill:url(#SVGID_2_);}
	.st2{fill-rule:evenodd;clip-rule:evenodd;fill:url(#SVGID_3_);}
	.st3{fill-rule:evenodd;clip-rule:evenodd;fill:#C61421;}
	.st4{fill-rule:evenodd;clip-rule:evenodd;fill:url(#SVGID_4_);}
	.st5{fill-rule:evenodd;clip-rule:evenodd;fill:url(#SVGID_5_);}
	.st6{fill-rule:evenodd;clip-rule:evenodd;fill:url(#SVGID_6_);}
	.st7{fill-rule:evenodd;clip-rule:evenodd;fill:url(#SVGID_7_);}
	.st8{fill-rule:evenodd;clip-rule:evenodd;fill:url(#SVGID_8_);}
	.st9{fill-rule:evenodd;clip-rule:evenodd;fill:url(#SVGID_9_);}
	.st10{fill-rule:evenodd;clip-rule:evenodd;fill:url(#SVGID_10_);}
	.st11{fill-rule:evenodd;clip-rule:evenodd;fill:url(#SVGID_11_);}
	.st12{fill-rule:evenodd;clip-rule:evenodd;fill:url(#SVGID_12_);}
	.st13{fill-rule:evenodd;clip-rule:evenodd;fill:url(#SVGID_13_);}
	.st14{fill-rule:evenodd;clip-rule:evenodd;fill:url(#SVGID_14_);}
	.st15{fill-rule:evenodd;clip-rule:evenodd;fill:url(#SVGID_15_);}
	.st16{fill-rule:evenodd;clip-rule:evenodd;fill:url(#SVGID_16_);}
	.st17{fill-rule:evenodd;clip-rule:evenodd;fill:#FFFFFF;}
	.st18{fill-rule:evenodd;clip-rule:evenodd;fill:url(#SVGID_17_);}
	.st19{fill-rule:evenodd;clip-rule:evenodd;fill:url(#SVGID_18_);}
	.st20{fill-rule:evenodd;clip-rule:evenodd;fill:url(#SVGID_19_);}
	.st21{fill-rule:evenodd;clip-rule:evenodd;fill:#CCCC33;}
	.st22{fill-rule:evenodd;clip-rule:evenodd;fill:url(#SVGID_20_);}
	.st23{fill-rule:evenodd;clip-rule:evenodd;fill:url(#SVGID_21_);}
	.st24{fill-rule:evenodd;clip-rule:evenodd;fill:url(#SVGID_22_);}
	.st25{fill-rule:evenodd;clip-rule:evenodd;fill:url(#SVGID_23_);}
	.st26{fill-rule:evenodd;clip-rule:evenodd;fill:url(#SVGID_24_);}
	.st27{fill-rule:evenodd;clip-rule:evenodd;fill:url(#SVGID_25_);}
	.st28{fill-rule:evenodd;clip-rule:evenodd;fill:url(#SVGID_26_);}
	.st29{fill-rule:evenodd;clip-rule:evenodd;fill:url(#SVGID_27_);}
	.st30{fill-rule:evenodd;clip-rule:evenodd;fill:url(#SVGID_28_);}
	.st31{fill-rule:evenodd;clip-rule:evenodd;fill:url(#SVGID_29_);}
	.st32{fill-rule:evenodd;clip-rule:evenodd;fill:url(#SVGID_30_);}
	.st33{fill-rule:evenodd;clip-rule:evenodd;fill:url(#SVGID_31_);}
	.st34{fill-rule:evenodd;clip-rule:evenodd;fill:url(#SVGID_32_);}
	.st35{fill-rule:evenodd;clip-rule:evenodd;fill:url(#SVGID_33_);}
	.st36{fill-rule:evenodd;clip-rule:evenodd;fill:url(#SVGID_34_);}
	.st37{fill-rule:evenodd;clip-rule:evenodd;fill:url(#SVGID_35_);}
	.st38{fill-rule:evenodd;clip-rule:evenodd;fill:#808080;}
	.st39{fill-rule:evenodd;clip-rule:evenodd;fill:url(#SVGID_36_);}
	.st40{fill-rule:evenodd;clip-rule:evenodd;fill:url(#SVGID_37_);}
	.st41{fill-rule:evenodd;clip-rule:evenodd;fill:url(#SVGID_38_);}
	.st42{fill-rule:evenodd;clip-rule:evenodd;fill:url(#SVGID_39_);}
	.st43{fill-rule:evenodd;clip-rule:evenodd;fill:url(#SVGID_40_);}
	.st44{fill-rule:evenodd;clip-rule:evenodd;fill:url(#SVGID_41_);}
	.st45{fill-rule:evenodd;clip-rule:evenodd;fill:url(#SVGID_42_);}
	.st46{fill-rule:evenodd;clip-rule:evenodd;fill:url(#SVGID_43_);}
	.st47{fill-rule:evenodd;clip-rule:evenodd;fill:url(#SVGID_44_);}
	.st48{fill-rule:evenodd;clip-rule:evenodd;fill:url(#SVGID_45_);}
	.st49{fill-rule:evenodd;clip-rule:evenodd;fill:url(#SVGID_46_);}
	.st50{fill-rule:evenodd;clip-rule:evenodd;fill:url(#SVGID_47_);}
	.st51{fill-rule:evenodd;clip-rule:evenodd;fill:url(#SVGID_48_);}
	.st52{fill-rule:evenodd;clip-rule:evenodd;fill:url(#SVGID_49_);}
	.st53{fill-rule:evenodd;clip-rule:evenodd;fill:url(#SVGID_50_);}
	.st54{fill-rule:evenodd;clip-rule:evenodd;fill:url(#SVGID_51_);}
	.st55{fill-rule:evenodd;clip-rule:evenodd;fill:url(#SVGID_52_);}
	.st56{fill-rule:evenodd;clip-rule:evenodd;fill:url(#SVGID_53_);}
	.st57{fill-rule:evenodd;clip-rule:evenodd;fill:url(#SVGID_54_);}
	.st58{fill-rule:evenodd;clip-rule:evenodd;fill:url(#SVGID_55_);}
	.st59{fill-rule:evenodd;clip-rule:evenodd;fill:url(#SVGID_56_);}
	.st60{fill-rule:evenodd;clip-rule:evenodd;fill:url(#SVGID_57_);}
	.st61{fill-rule:evenodd;clip-rule:evenodd;fill:url(#SVGID_58_);}
	.st62{fill-rule:evenodd;clip-rule:evenodd;fill:url(#SVGID_59_);}
	.st63{fill-rule:evenodd;clip-rule:evenodd;fill:url(#SVGID_60_);}
	.st64{fill-rule:evenodd;clip-rule:evenodd;fill:url(#SVGID_61_);}
	.st65{fill-rule:evenodd;clip-rule:evenodd;fill:url(#SVGID_62_);}
	.st66{fill-rule:evenodd;clip-rule:evenodd;fill:#999999;}
	.st67{fill-rule:evenodd;clip-rule:evenodd;fill:url(#SVGID_63_);}
	.st68{fill-rule:evenodd;clip-rule:evenodd;fill:url(#SVGID_64_);}
	.st69{fill:url(#SVGID_65_);}
	.st70{fill:url(#SVGID_66_);}
	.st71{fill-rule:evenodd;clip-rule:evenodd;fill:url(#SVGID_67_);}
	.st72{fill-rule:evenodd;clip-rule:evenodd;fill:url(#SVGID_68_);}
	.st73{fill-rule:evenodd;clip-rule:evenodd;fill:url(#SVGID_69_);}
	.st74{fill-rule:evenodd;clip-rule:evenodd;fill:url(#SVGID_70_);}
	.st75{fill-rule:evenodd;clip-rule:evenodd;fill:url(#SVGID_71_);}
	.st76{fill-rule:evenodd;clip-rule:evenodd;fill:url(#SVGID_72_);}
	.st77{fill-rule:evenodd;clip-rule:evenodd;fill:url(#SVGID_73_);}
	.st78{fill-rule:evenodd;clip-rule:evenodd;fill:url(#SVGID_74_);}
	.st79{fill-rule:evenodd;clip-rule:evenodd;fill:url(#SVGID_75_);}
	.st80{fill:#FFFFFF;}
	.st81{font-family:'Nunito-Bold';}
	.st82{font-size:18.2593px;}
	.st83{fill-rule:evenodd;clip-rule:evenodd;fill:none;}
</style>
<g>
	<g>
		<linearGradient id="SVGID_1_" gradientUnits="userSpaceOnUse" x1="55.0473" y1="526.022" x2="55.0473" y2="514.5137">
			<stop  offset="0" style="stop-color:#204954"/>
			<stop  offset="1" style="stop-color:#1B3840"/>
		</linearGradient>
		<polygon class="st0" points="25.6,514.5 84.5,514.5 74.4,526 34.5,523.9 25.6,514.5 		"/>
		<linearGradient id="SVGID_2_" gradientUnits="userSpaceOnUse" x1="284.9511" y1="526.022" x2="284.9511" y2="514.5137">
			<stop  offset="0" style="stop-color:#204954"/>
			<stop  offset="1" style="stop-color:#1B3840"/>
		</linearGradient>
		<polygon class="st1" points="314.4,514.5 255.5,514.5 265.6,526 305.5,523.9 314.4,514.5 		"/>
		<linearGradient id="SVGID_3_" gradientUnits="userSpaceOnUse" x1="170" y1="528.447" x2="170" y2="514.5137">
			<stop  offset="0" style="stop-color:#204954"/>
			<stop  offset="1" style="stop-color:#1B3840"/>
		</linearGradient>
		<polygon class="st2" points="110.8,514.5 229.2,514.5 216.9,528.4 123.1,528.4 110.8,514.5 		"/>
		<polygon class="st3" points="6.2,39.9 333.8,39.9 333.8,512.6 6.2,512.6 6.2,39.9 		"/>
		<linearGradient id="SVGID_4_" gradientUnits="userSpaceOnUse" x1="2.3862" y1="38.2262" x2="2.3862" y2="34.0988">
			<stop  offset="0" style="stop-color:#6287C9"/>
			<stop  offset="1" style="stop-color:#3B597D"/>
		</linearGradient>
		<polygon class="st4" points="0.3,37 3.2,38.2 4.5,37 3.2,34.1 0.3,37 		"/>
		<linearGradient id="SVGID_5_" gradientUnits="userSpaceOnUse" x1="4.7009" y1="39.9376" x2="4.7009" y2="37.0166">
			<stop  offset="0" style="stop-color:#6287C9"/>
			<stop  offset="1" style="stop-color:#3B597D"/>
		</linearGradient>
		<polygon class="st5" points="4.5,37 3.2,38.2 6.2,39.9 4.5,37 		"/>
		<linearGradient id="SVGID_6_" gradientUnits="userSpaceOnUse" x1="169.9985" y1="528.447" x2="169.9985" y2="515.5494">
			<stop  offset="0" style="stop-color:#204270"/>
			<stop  offset="1" style="stop-color:#335D94"/>
		</linearGradient>
		<polygon class="st6" points="335.5,515.5 4.5,515.5 3.2,518.5 31.3,518.5 34.5,523.9 74.4,526 78.8,518.5 117.3,518.5 
			123.1,528.4 216.9,528.4 222.7,518.5 261.2,518.5 265.6,526 305.5,523.9 308.7,518.5 336.8,518.5 335.5,515.5 		"/>
		<linearGradient id="SVGID_7_" gradientUnits="userSpaceOnUse" x1="169.9999" y1="515.5494" x2="169.9999" y2="512.6299">
			<stop  offset="0" style="stop-color:#87B5F5"/>
			<stop  offset="1" style="stop-color:#4E76A6"/>
		</linearGradient>
		<polygon class="st7" points="4.5,515.5 335.5,515.5 333.8,512.6 170,512.6 6.2,512.6 4.5,515.5 		"/>
		<linearGradient id="SVGID_8_" gradientUnits="userSpaceOnUse" x1="333.8372" y1="276.2838" x2="336.7549" y2="276.2838">
			<stop  offset="0" style="stop-color:#4E76A6"/>
			<stop  offset="1" style="stop-color:#87B5F5"/>
		</linearGradient>
		<polygon class="st8" points="333.8,39.9 333.8,512.6 336.8,514.3 336.8,38.2 333.8,39.9 		"/>
		<linearGradient id="SVGID_9_" gradientUnits="userSpaceOnUse" x1="3.242" y1="276.2838" x2="6.1599" y2="276.2838">
			<stop  offset="0" style="stop-color:#335D94"/>
			<stop  offset="1" style="stop-color:#204270"/>
		</linearGradient>
		<polygon class="st9" points="6.2,39.9 6.2,512.6 3.2,514.3 3.2,38.2 6.2,39.9 		"/>
		<linearGradient id="SVGID_10_" gradientUnits="userSpaceOnUse" x1="169.9999" y1="39.9376" x2="169.9999" y2="37.0166">
			<stop  offset="0" style="stop-color:#204270"/>
			<stop  offset="1" style="stop-color:#335D94"/>
		</linearGradient>
		<polygon class="st10" points="4.5,37 335.5,37 333.8,39.9 6.2,39.9 4.5,37 		"/>
		<linearGradient id="SVGID_11_" gradientUnits="userSpaceOnUse" x1="337.6137" y1="518.4688" x2="337.6137" y2="514.3414">
			<stop  offset="0" style="stop-color:#6287C9"/>
			<stop  offset="1" style="stop-color:#3B597D"/>
		</linearGradient>
		<polygon class="st11" points="339.7,515.5 336.8,514.3 335.5,515.5 336.8,518.5 339.7,515.5 		"/>
		<linearGradient id="SVGID_12_" gradientUnits="userSpaceOnUse" x1="335.2961" y1="515.5494" x2="335.2961" y2="512.6299">
			<stop  offset="0" style="stop-color:#6287C9"/>
			<stop  offset="1" style="stop-color:#3B597D"/>
		</linearGradient>
		<polygon class="st12" points="335.5,515.5 336.8,514.3 333.8,512.6 335.5,515.5 		"/>
		<linearGradient id="SVGID_13_" gradientUnits="userSpaceOnUse" x1="2.3862" y1="518.4688" x2="2.3862" y2="514.3414">
			<stop  offset="0" style="stop-color:#6287C9"/>
			<stop  offset="1" style="stop-color:#3B597D"/>
		</linearGradient>
		<polygon class="st13" points="0.3,515.5 3.2,514.3 4.5,515.5 3.2,518.5 0.3,515.5 		"/>
		<linearGradient id="SVGID_14_" gradientUnits="userSpaceOnUse" x1="4.7009" y1="515.5494" x2="4.7009" y2="512.6299">
			<stop  offset="0" style="stop-color:#6287C9"/>
			<stop  offset="1" style="stop-color:#3B597D"/>
		</linearGradient>
		<polygon class="st14" points="4.5,515.5 3.2,514.3 6.2,512.6 4.5,515.5 		"/>
		<linearGradient id="SVGID_15_" gradientUnits="userSpaceOnUse" x1="337.6137" y1="38.2262" x2="337.6137" y2="34.0988">
			<stop  offset="0" style="stop-color:#6287C9"/>
			<stop  offset="1" style="stop-color:#3B597D"/>
		</linearGradient>
		<polygon class="st15" points="339.7,37 336.8,38.2 335.5,37 336.8,34.1 339.7,37 		"/>
		<linearGradient id="SVGID_16_" gradientUnits="userSpaceOnUse" x1="335.2961" y1="39.9376" x2="335.2961" y2="37.0166">
			<stop  offset="0" style="stop-color:#6287C9"/>
			<stop  offset="1" style="stop-color:#3B597D"/>
		</linearGradient>
		<polygon class="st16" points="335.5,37 336.8,38.2 333.8,39.9 335.5,37 		"/>
		<path class="st17" d="M181.9,51.6h3.4l-3.4,3.4h3.4l3.4-3.4h13.7l1.7,1.7l23.7,0l1.7,1.7h30.9l5.7,5.7H313v44l5.7,5.7v3.4v13.5
			l3.4,3.4v47.6l-3.4,3.4v31.3v3.4l-5.7,5.7v48.5l5.7,5.7v3.4v217.7h-69.1l-1.7,1.7h-3.4l1.7-1.7h-3.4l-2.7,2.7h-3.4l2.7-2.7h-3.4
			l-3.4,3.4h-3.4l3.4-3.4h-3.4L226,501h-3.4l3.4-3.4h-3.4l-3.4,3.4h-3.4l3.4-3.4h-3.4l-3.4,3.4h-46.3h-4.7h-40.9l-2.7-2.7H87.9
			l-2.7,2.7H43.5l-3.4-3.4H21.2V309.3l-3.4-3.4V266v-11.2v-15.5v-12.7v-10l3.4-3.4v-94.6l-2.7-2.7V85.8l2.7-2.7V55h24.8h3.4l5.7,5.7
			h66.9l5.7-5.7h3.4l1.7-1.7h3.4l-1.7,1.7h3.4l2.7-2.7h3.4l-2.7,2.7h3.4l3.4-3.4h3.4l-3.4,3.4h3.4l3.4-3.4h3.4l-3.4,3.4h3.4l3.4-3.4
			h3.4l-3.4,3.4h3.4l3.4-3.4h3.4l-3.4,3.4h3.4l3.4-3.4h3.4l-3.4,3.4h3.4L181.9,51.6L181.9,51.6z M316.6,277.7v60.8L313,477V274.1
			L316.6,277.7L316.6,277.7z M316.6,476.9v18.5h-18.5l3.5-3.5H313v-11.4L316.6,476.9L316.6,476.9z M294.7,495.4H90.8l3.5-3.5h203.9
			L294.7,495.4L294.7,495.4z M87.4,495.4H41.3l-3.5-3.5H91L87.4,495.4L87.4,495.4z M37.9,495.4H23.4V311.5v-56.6v-15.5V211v-90.2
			l3.5,3.5v367.5h7.4L37.9,495.4L37.9,495.4z M23.4,117.4V57.2h24.8l3.5,3.5H27V121L23.4,117.4L23.4,117.4z M21.2,214.6v8.6
			l-2.4,2.4V217L21.2,214.6L21.2,214.6z M18.8,267.1l2.4,2.4v38.4l-2.4-2.4V267.1L18.8,267.1z M129,57.2h130.3l3.5,3.5H125.5
			L129,57.2L129,57.2z M316.6,111.7v103.7l-3.5,3.5V108.1L316.6,111.7L316.6,111.7z M29.2,62.9v426.7H170h140.8V106v-3.4V62.9h-42.4
			h-3.4H29.2L29.2,62.9z"/>
		<linearGradient id="SVGID_17_" gradientUnits="userSpaceOnUse" x1="223.8857" y1="58.9697" x2="262.8795" y2="58.9697">
			<stop  offset="0" style="stop-color:#00393D"/>
			<stop  offset="1" style="stop-color:#006E78"/>
		</linearGradient>
		<polygon class="st18" points="259.3,57.2 227.4,57.2 223.9,60.7 262.9,60.7 259.3,57.2 		"/>
		<linearGradient id="SVGID_18_" gradientUnits="userSpaceOnUse" x1="37.7608" y1="493.5979" x2="90.9782" y2="493.5979">
			<stop  offset="0" style="stop-color:#006E78"/>
			<stop  offset="1" style="stop-color:#000000"/>
		</linearGradient>
		<polygon class="st19" points="91,491.8 37.8,491.8 41.3,495.4 87.4,495.4 91,491.8 		"/>
		<linearGradient id="SVGID_19_" gradientUnits="userSpaceOnUse" x1="316.5759" y1="495.368" x2="307.3301" y2="486.1222">
			<stop  offset="0" style="stop-color:#00393D"/>
			<stop  offset="1" style="stop-color:#006E78"/>
		</linearGradient>
		<polygon class="st20" points="301.6,491.8 298.1,495.4 316.6,495.4 316.6,476.9 313,480.4 313,491.8 301.6,491.8 		"/>
		<polygon class="st21" points="318.8,273 318.8,220.1 316,222.9 316,270.2 318.8,273 		"/>
		<polygon class="st21" points="54.3,55 57.1,57.8 120.1,57.8 122.9,55 54.3,55 		"/>
		<linearGradient id="SVGID_20_" gradientUnits="userSpaceOnUse" x1="48.2262" y1="99.6949" x2="14.576" y2="66.0448">
			<stop  offset="0" style="stop-color:#006E78"/>
			<stop  offset="1" style="stop-color:#00393D"/>
		</linearGradient>
		<polygon class="st22" points="51.8,60.7 48.3,57.2 23.4,57.2 23.4,117.4 27,121 27,60.7 51.8,60.7 		"/>
		<polygon class="st21" points="277.4,55 280.3,57.8 318.1,57.8 321,55 277.4,55 		"/>
		<path class="st21" d="M11.5,477V338.6L15.9,478v3.4L11.5,477L11.5,477z M11.5,335.2v-3.4l4.4,4.4v138.4L11.5,335.2L11.5,335.2z
			 M11.5,328.5v-3.4l4.4,4.4v3.4L11.5,328.5L11.5,328.5z"/>
		<path class="st21" d="M316.6,81.7V85l4.4-4.4v-3.4L316.6,81.7L316.6,81.7z M316.6,74.9v3.4l4.4-4.4v-3.4L316.6,74.9L316.6,74.9z
			 M316.6,68.1v3.4l4.4-4.4v-3.4L316.6,68.1L316.6,68.1z"/>
		<linearGradient id="SVGID_21_" gradientUnits="userSpaceOnUse" x1="20.2504" y1="263.0849" x2="20.2504" y2="225.2401">
			<stop  offset="0" style="stop-color:#FFFFFF"/>
			<stop  offset="1" style="stop-color:#000000"/>
		</linearGradient>
		<polygon class="st23" points="21.2,225.2 19.3,227.2 19.3,261.1 21.2,263.1 21.2,225.2 		"/>
		<linearGradient id="SVGID_22_" gradientUnits="userSpaceOnUse" x1="43.4906" y1="498.5418" x2="65.1829" y2="498.5418">
			<stop  offset="0" style="stop-color:#FFFFFF"/>
			<stop  offset="1" style="stop-color:#000000"/>
		</linearGradient>
		<polygon class="st24" points="43.5,497.6 45.5,499.5 63.2,499.5 65.2,497.6 43.5,497.6 		"/>
		<linearGradient id="SVGID_23_" gradientUnits="userSpaceOnUse" x1="120.5107" y1="498.5418" x2="164.6571" y2="498.5418">
			<stop  offset="0" style="stop-color:#FFFFFF"/>
			<stop  offset="1" style="stop-color:#000000"/>
		</linearGradient>
		<polygon class="st25" points="120.5,497.6 122.5,499.5 162.7,499.5 164.7,497.6 120.5,497.6 		"/>
		<linearGradient id="SVGID_24_" gradientUnits="userSpaceOnUse" x1="166.6165" y1="498.5418" x2="181.2119" y2="498.5418">
			<stop  offset="0" style="stop-color:#FFFFFF"/>
			<stop  offset="1" style="stop-color:#000000"/>
		</linearGradient>
		<polygon class="st26" points="166.6,497.6 168.6,499.5 179.2,499.5 181.2,497.6 166.6,497.6 		"/>
		<linearGradient id="SVGID_25_" gradientUnits="userSpaceOnUse" x1="183.1683" y1="498.5418" x2="207.0345" y2="498.5418">
			<stop  offset="0" style="stop-color:#FFFFFF"/>
			<stop  offset="1" style="stop-color:#000000"/>
		</linearGradient>
		<polygon class="st27" points="183.2,497.6 185.1,499.5 205.1,499.5 207,497.6 183.2,497.6 		"/>
		<linearGradient id="SVGID_26_" gradientUnits="userSpaceOnUse" x1="169.8533" y1="37.0166" x2="169.8533" y2="1.553">
			<stop  offset="0" style="stop-color:#273F5E"/>
			<stop  offset="1" style="stop-color:#4E688C"/>
		</linearGradient>
		<path class="st28" d="M21.1,37h297.5L290.8,5.5c-2.3-2.6-5.3-4-8.8-4H57.6c-3.5,0-6.5,1.3-8.8,4L21.1,37L21.1,37z"/>
		<linearGradient id="SVGID_27_" gradientUnits="userSpaceOnUse" x1="169.9985" y1="37.0166" x2="169.9985" y2="1.553">
			<stop  offset="0" style="stop-color:#4E76A6"/>
			<stop  offset="1" style="stop-color:#87B5F5"/>
		</linearGradient>
		<path class="st29" d="M335.5,37H308H31.7H4.5l-1.2-2.9h23.5c4.3,0,7.9-2.1,10.1-5.8l13-22.4c1.6-2.8,4.4-4.3,7.6-4.3h224.9
			c3.2,0,6,1.6,7.6,4.3l13,22.4c2.2,3.7,5.8,5.8,10.1,5.8h23.8L335.5,37L335.5,37z"/>
		<linearGradient id="SVGID_28_" gradientUnits="userSpaceOnUse" x1="48.2047" y1="19.2818" x2="80.6612" y2="19.2818">
			<stop  offset="0.1747" style="stop-color:#FFFFFF"/>
			<stop  offset="0.2975" style="stop-color:#FAFBFB"/>
			<stop  offset="0.4335" style="stop-color:#EDEEF0"/>
			<stop  offset="0.5759" style="stop-color:#D7D9DD"/>
			<stop  offset="0.7226" style="stop-color:#B8BCC3"/>
			<stop  offset="0.8711" style="stop-color:#9196A2"/>
			<stop  offset="1" style="stop-color:#687080"/>
		</linearGradient>
		<polygon class="st30" points="57.2,11.6 80.7,11.6 71.7,27 48.2,27 57.2,11.6 		"/>
		<linearGradient id="SVGID_29_" gradientUnits="userSpaceOnUse" x1="259.0515" y1="19.2818" x2="291.5082" y2="19.2818">
			<stop  offset="1.100000e-07" style="stop-color:#687080"/>
			<stop  offset="0.1289" style="stop-color:#9196A2"/>
			<stop  offset="0.2774" style="stop-color:#B8BCC3"/>
			<stop  offset="0.4241" style="stop-color:#D7D9DD"/>
			<stop  offset="0.5665" style="stop-color:#EDEEF0"/>
			<stop  offset="0.7025" style="stop-color:#FAFBFB"/>
			<stop  offset="0.8253" style="stop-color:#FFFFFF"/>
		</linearGradient>
		<polygon class="st31" points="282.5,11.6 259.1,11.6 268.1,27 291.5,27 282.5,11.6 		"/>
		<linearGradient id="SVGID_30_" gradientUnits="userSpaceOnUse" x1="48.2047" y1="25.1509" x2="71.6626" y2="25.1509">
			<stop  offset="0" style="stop-color:#000000"/>
			<stop  offset="1" style="stop-color:#56788A"/>
		</linearGradient>
		<polygon class="st32" points="48.2,27 69.5,23.3 71.7,27 48.2,27 		"/>
		<linearGradient id="SVGID_31_" gradientUnits="userSpaceOnUse" x1="57.2002" y1="13.4143" x2="80.6612" y2="13.4143">
			<stop  offset="0" style="stop-color:#FFFFFF"/>
			<stop  offset="1" style="stop-color:#ADC9D9"/>
		</linearGradient>
		<polygon class="st33" points="74.2,15.3 80.7,11.6 57.2,11.6 74.2,15.3 		"/>
		<linearGradient id="SVGID_32_" gradientUnits="userSpaceOnUse" x1="75.0931" y1="27.0082" x2="75.0931" y2="11.5555">
			<stop  offset="0" style="stop-color:#739CB0"/>
			<stop  offset="1" style="stop-color:#476B96"/>
		</linearGradient>
		<polygon class="st34" points="74.2,15.3 69.5,23.3 71.7,27 80.7,11.6 74.2,15.3 		"/>
		<linearGradient id="SVGID_33_" gradientUnits="userSpaceOnUse" x1="268.05" y1="25.1509" x2="291.5082" y2="25.1509">
			<stop  offset="0" style="stop-color:#56788A"/>
			<stop  offset="1" style="stop-color:#000000"/>
		</linearGradient>
		<polygon class="st35" points="291.5,27 270.2,23.3 268.1,27 291.5,27 		"/>
		<linearGradient id="SVGID_34_" gradientUnits="userSpaceOnUse" x1="259.0515" y1="13.4143" x2="282.5096" y2="13.4143">
			<stop  offset="0" style="stop-color:#ADC9D9"/>
			<stop  offset="1" style="stop-color:#FFFFFF"/>
		</linearGradient>
		<polygon class="st36" points="265.5,15.3 259.1,11.6 282.5,11.6 265.5,15.3 		"/>
		<linearGradient id="SVGID_35_" gradientUnits="userSpaceOnUse" x1="264.6181" y1="27.0082" x2="264.6181" y2="11.5555">
			<stop  offset="0" style="stop-color:#739CB0"/>
			<stop  offset="1" style="stop-color:#476B96"/>
		</linearGradient>
		<polygon class="st37" points="265.5,15.3 270.2,23.3 268.1,27 259.1,11.6 265.5,15.3 		"/>
		<polygon class="st38" points="146,518.4 194,518.4 190.4,524.5 149.5,524.5 146,518.4 		"/>
		<radialGradient id="SVGID_36_" cx="170" cy="521.4805" r="22.5837" gradientUnits="userSpaceOnUse">
			<stop  offset="0" style="stop-color:#F8FC86"/>
			<stop  offset="1" style="stop-color:#EDCE20"/>
		</radialGradient>
		<polygon class="st39" points="148.6,519.9 191.4,519.9 189.6,523.1 150.4,523.1 148.6,519.9 		"/>
		<radialGradient id="SVGID_37_" cx="169.9998" cy="521.479" r="30.1097" gradientUnits="userSpaceOnUse">
			<stop  offset="0" style="stop-color:#EFFF57"/>
			<stop  offset="1" style="stop-color:#000000"/>
		</radialGradient>
		<path class="st40" d="M150.8,520.6h38.3c0.2,0,0.4,0.1,0.5,0.3c0.1,0.2,0.1,0.4,0,0.6l-0.2,0.3c-0.2,0.3-0.5,0.5-0.9,0.5h-37.2
			c-0.4,0-0.7-0.2-0.9-0.5l-0.2-0.3c-0.1-0.2-0.1-0.4,0-0.6C150.4,520.7,150.6,520.6,150.8,520.6L150.8,520.6z"/>
		<radialGradient id="SVGID_38_" cx="170" cy="521.4782" r="24.2289" gradientUnits="userSpaceOnUse">
			<stop  offset="0" style="stop-color:#FEFFCB"/>
			<stop  offset="1" style="stop-color:#000000"/>
		</radialGradient>
		<path class="st41" d="M151.1,521.4h37.8l0,0.1c-0.1,0.1-0.1,0.1-0.3,0.1h-37.2C151.3,521.6,151.2,521.5,151.1,521.4L151.1,521.4
			L151.1,521.4z"/>
		<linearGradient id="SVGID_39_" gradientUnits="userSpaceOnUse" x1="148.2021" y1="524.5163" x2="148.2021" y2="518.4446">
			<stop  offset="0" style="stop-color:#739CB0"/>
			<stop  offset="1" style="stop-color:#476B96"/>
		</linearGradient>
		<polygon class="st42" points="148.6,519.9 150.4,523.1 149.5,524.5 146,518.4 148.6,519.9 		"/>
		<linearGradient id="SVGID_40_" gradientUnits="userSpaceOnUse" x1="169.9985" y1="524.5163" x2="169.9985" y2="523.0573">
			<stop  offset="0" style="stop-color:#99B2BF"/>
			<stop  offset="1" style="stop-color:#9BBD67"/>
		</linearGradient>
		<polygon class="st43" points="150.4,523.1 170,523.1 189.6,523.1 190.4,524.5 170,524.5 149.5,524.5 150.4,523.1 		"/>
		<linearGradient id="SVGID_41_" gradientUnits="userSpaceOnUse" x1="170" y1="519.9036" x2="170" y2="518.4446">
			<stop  offset="0" style="stop-color:#94885C"/>
			<stop  offset="1" style="stop-color:#2C507A"/>
		</linearGradient>
		<polygon class="st44" points="194,518.4 191.4,519.9 170,519.9 148.6,519.9 146,518.4 170,518.4 194,518.4 		"/>
		<linearGradient id="SVGID_42_" gradientUnits="userSpaceOnUse" x1="191.7979" y1="524.5163" x2="191.7979" y2="518.4446">
			<stop  offset="0" style="stop-color:#739CB0"/>
			<stop  offset="1" style="stop-color:#476B96"/>
		</linearGradient>
		<polygon class="st45" points="191.4,519.9 194,518.4 190.4,524.5 189.6,523.1 191.4,519.9 		"/>
		<linearGradient id="SVGID_43_" gradientUnits="userSpaceOnUse" x1="121.43" y1="521.4805" x2="143.3943" y2="521.4805">
			<stop  offset="0.1747" style="stop-color:#FFFFFF"/>
			<stop  offset="0.2975" style="stop-color:#FAFBFB"/>
			<stop  offset="0.4335" style="stop-color:#EDEEF0"/>
			<stop  offset="0.5759" style="stop-color:#D7D9DD"/>
			<stop  offset="0.7226" style="stop-color:#B8BCC3"/>
			<stop  offset="0.8711" style="stop-color:#9196A2"/>
			<stop  offset="1" style="stop-color:#687080"/>
		</linearGradient>
		<polygon class="st46" points="125,524.5 143.4,524.5 139.9,518.4 121.4,518.4 125,524.5 		"/>
		<linearGradient id="SVGID_44_" gradientUnits="userSpaceOnUse" x1="196.6026" y1="521.4805" x2="218.57" y2="521.4805">
			<stop  offset="1.100000e-07" style="stop-color:#687080"/>
			<stop  offset="0.1289" style="stop-color:#9196A2"/>
			<stop  offset="0.2774" style="stop-color:#B8BCC3"/>
			<stop  offset="0.4241" style="stop-color:#D7D9DD"/>
			<stop  offset="0.5665" style="stop-color:#EDEEF0"/>
			<stop  offset="0.7025" style="stop-color:#FAFBFB"/>
			<stop  offset="0.8253" style="stop-color:#FFFFFF"/>
		</linearGradient>
		<polygon class="st47" points="215,524.5 196.6,524.5 200.1,518.4 218.6,518.4 215,524.5 		"/>
		<linearGradient id="SVGID_45_" gradientUnits="userSpaceOnUse" x1="121.43" y1="519.1741" x2="139.8625" y2="519.1741">
			<stop  offset="0" style="stop-color:#FFFFFF"/>
			<stop  offset="1" style="stop-color:#ADC9D9"/>
		</linearGradient>
		<polygon class="st48" points="121.4,518.4 139,519.9 139.9,518.4 121.4,518.4 		"/>
		<linearGradient id="SVGID_46_" gradientUnits="userSpaceOnUse" x1="124.9647" y1="523.7868" x2="143.3943" y2="523.7868">
			<stop  offset="0" style="stop-color:#000000"/>
			<stop  offset="1" style="stop-color:#56788A"/>
		</linearGradient>
		<polygon class="st49" points="140.9,523.1 143.4,524.5 125,524.5 140.9,523.1 		"/>
		<linearGradient id="SVGID_47_" gradientUnits="userSpaceOnUse" x1="141.2082" y1="524.5163" x2="141.2082" y2="518.4446">
			<stop  offset="0" style="stop-color:#3A6278"/>
			<stop  offset="1" style="stop-color:#273361"/>
		</linearGradient>
		<polygon class="st50" points="140.9,523.1 139,519.9 139.9,518.4 143.4,524.5 140.9,523.1 		"/>
		<linearGradient id="SVGID_48_" gradientUnits="userSpaceOnUse" x1="200.1373" y1="519.1741" x2="218.57" y2="519.1741">
			<stop  offset="0" style="stop-color:#ADC9D9"/>
			<stop  offset="1" style="stop-color:#FFFFFF"/>
		</linearGradient>
		<polygon class="st51" points="218.6,518.4 201,519.9 200.1,518.4 218.6,518.4 		"/>
		<linearGradient id="SVGID_49_" gradientUnits="userSpaceOnUse" x1="196.6026" y1="523.7868" x2="215.0353" y2="523.7868">
			<stop  offset="0" style="stop-color:#56788A"/>
			<stop  offset="1" style="stop-color:#000000"/>
		</linearGradient>
		<polygon class="st52" points="199.1,523.1 196.6,524.5 215,524.5 199.1,523.1 		"/>
		<linearGradient id="SVGID_50_" gradientUnits="userSpaceOnUse" x1="198.7903" y1="524.5163" x2="198.7903" y2="518.4446">
			<stop  offset="0" style="stop-color:#3A6278"/>
			<stop  offset="1" style="stop-color:#273361"/>
		</linearGradient>
		<polygon class="st53" points="199.1,523.1 201,519.9 200.1,518.4 196.6,524.5 199.1,523.1 		"/>
		<g>
			<radialGradient id="SVGID_51_" cx="55.0473" cy="520.3533" r="10.7362" gradientUnits="userSpaceOnUse">
				<stop  offset="0" style="stop-color:#F8FC86"/>
				<stop  offset="1" style="stop-color:#EDCE20"/>
			</radialGradient>
			<polygon class="st54" points="63.8,521.8 65.5,518.9 44.6,518.9 45.7,520.9 63.8,521.8 			"/>
			<radialGradient id="SVGID_52_" cx="55.0488" cy="520.3427" r="11.5817" gradientUnits="userSpaceOnUse">
				<stop  offset="0" style="stop-color:#EFFF57"/>
				<stop  offset="1" style="stop-color:#000000"/>
			</radialGradient>
			<polygon class="st55" points="63.4,521.1 46.2,520.2 45.8,519.6 64.3,519.6 63.4,521.1 			"/>
			<linearGradient id="SVGID_53_" gradientUnits="userSpaceOnUse" x1="43.8792" y1="522.2802" x2="43.8792" y2="517.4332">
				<stop  offset="0" style="stop-color:#739CB0"/>
				<stop  offset="1" style="stop-color:#476B96"/>
			</linearGradient>
			<polygon class="st56" points="44.9,522.3 45.7,520.9 44.6,518.9 42,517.4 44.9,522.3 			"/>
			<linearGradient id="SVGID_54_" gradientUnits="userSpaceOnUse" x1="65.9388" y1="523.3188" x2="65.9388" y2="517.4332">
				<stop  offset="0" style="stop-color:#739CB0"/>
				<stop  offset="1" style="stop-color:#476B96"/>
			</linearGradient>
			<polygon class="st57" points="63.8,521.8 64.6,523.3 68.1,517.4 65.5,518.9 63.8,521.8 			"/>
			<linearGradient id="SVGID_55_" gradientUnits="userSpaceOnUse" x1="54.745" y1="523.3188" x2="54.745" y2="520.8636">
				<stop  offset="0" style="stop-color:#99B2BF"/>
				<stop  offset="1" style="stop-color:#9BBD67"/>
			</linearGradient>
			<polygon class="st58" points="64.6,523.3 63.8,521.8 45.7,520.9 44.9,522.3 64.6,523.3 			"/>
			<linearGradient id="SVGID_56_" gradientUnits="userSpaceOnUse" x1="55.0473" y1="518.8936" x2="55.0473" y2="517.4332">
				<stop  offset="0" style="stop-color:#94885C"/>
				<stop  offset="1" style="stop-color:#2C507A"/>
			</linearGradient>
			<polygon class="st59" points="44.6,518.9 65.5,518.9 68.1,517.4 42,517.4 44.6,518.9 			"/>
		</g>
		<g>
			
				<radialGradient id="SVGID_57_" cx="182.9729" cy="520.3533" r="10.7348" gradientTransform="matrix(-1 0 0 1 467.9241 0)" gradientUnits="userSpaceOnUse">
				<stop  offset="0" style="stop-color:#F8FC86"/>
				<stop  offset="1" style="stop-color:#EDCE20"/>
			</radialGradient>
			<polygon class="st60" points="276.2,521.8 274.5,518.9 295.4,518.9 294.3,520.9 276.2,521.8 			"/>
			
				<radialGradient id="SVGID_58_" cx="182.9729" cy="520.3427" r="11.5817" gradientTransform="matrix(-1 0 0 1 467.9241 0)" gradientUnits="userSpaceOnUse">
				<stop  offset="0" style="stop-color:#EFFF57"/>
				<stop  offset="1" style="stop-color:#000000"/>
			</radialGradient>
			<polygon class="st61" points="276.6,521.1 293.8,520.2 294.2,519.6 275.7,519.6 276.6,521.1 			"/>
			
				<linearGradient id="SVGID_59_" gradientUnits="userSpaceOnUse" x1="171.8034" y1="522.2802" x2="171.8034" y2="517.4332" gradientTransform="matrix(-1 0 0 1 467.9241 0)">
				<stop  offset="0" style="stop-color:#739CB0"/>
				<stop  offset="1" style="stop-color:#476B96"/>
			</linearGradient>
			<polygon class="st62" points="295.1,522.3 294.3,520.9 295.4,518.9 298,517.4 295.1,522.3 			"/>
			
				<linearGradient id="SVGID_60_" gradientUnits="userSpaceOnUse" x1="193.8644" y1="523.3188" x2="193.8644" y2="517.4332" gradientTransform="matrix(-1 0 0 1 467.9241 0)">
				<stop  offset="0" style="stop-color:#739CB0"/>
				<stop  offset="1" style="stop-color:#476B96"/>
			</linearGradient>
			<polygon class="st63" points="276.2,521.8 275.4,523.3 271.9,517.4 274.5,518.9 276.2,521.8 			"/>
			
				<linearGradient id="SVGID_61_" gradientUnits="userSpaceOnUse" x1="182.6721" y1="523.3188" x2="182.6721" y2="520.8636" gradientTransform="matrix(-1 0 0 1 467.9241 0)">
				<stop  offset="0" style="stop-color:#99B2BF"/>
				<stop  offset="1" style="stop-color:#9BBD67"/>
			</linearGradient>
			<polygon class="st64" points="275.4,523.3 276.2,521.8 294.3,520.9 295.1,522.3 275.4,523.3 			"/>
			
				<linearGradient id="SVGID_62_" gradientUnits="userSpaceOnUse" x1="182.973" y1="518.8936" x2="182.973" y2="517.4332" gradientTransform="matrix(-1 0 0 1 467.9241 0)">
				<stop  offset="0" style="stop-color:#94885C"/>
				<stop  offset="1" style="stop-color:#2C507A"/>
			</linearGradient>
			<polygon class="st65" points="295.4,518.9 274.5,518.9 271.9,517.4 298,517.4 295.4,518.9 			"/>
		</g>
		<path class="st66" d="M90.8,7L77.6,29.7c-0.5,0.9-0.5,2,0,2.9c0.5,0.9,1.5,1.5,2.5,1.5h179.5c1.1,0,2-0.5,2.5-1.5
			c0.5-0.9,0.5-2,0-2.9L248.9,7c-0.5-0.8-1.1-1.4-1.9-1.9c-0.7-0.4-1.6-0.7-2.6-0.7H95.2c-0.9,0-1.8,0.2-2.6,0.7
			C91.9,5.6,91.3,6.2,90.8,7L90.8,7z"/>
		<path class="st3" d="M80.1,31.2L80.1,31.2h179.5l0,0L246.4,8.5c-0.4-0.7-1.1-1.1-1.9-1.1H95.2c-0.4,0-0.8,0.1-1.1,0.3
			c-0.3,0.2-0.6,0.5-0.8,0.8L80.1,31.2L80.1,31.2z"/>
		<linearGradient id="SVGID_63_" gradientUnits="userSpaceOnUse" x1="169.8549" y1="11.7097" x2="169.8549" y2="8.1221">
			<stop  offset="0" style="stop-color:#000000"/>
			<stop  offset="1" style="stop-color:#1068FF"/>
		</linearGradient>
		<path class="st67" d="M247.4,11.7l-1.7-2.9c-0.3-0.5-0.7-0.7-1.3-0.7H95.2c-0.3,0-0.5,0-0.7,0.2c-0.2,0.1-0.4,0.3-0.5,0.5
			l-1.7,2.9H247.4L247.4,11.7z"/>
		<linearGradient id="SVGID_64_" gradientUnits="userSpaceOnUse" x1="169.8563" y1="30.4461" x2="169.8563" y2="27.8733">
			<stop  offset="0" style="stop-color:#1068FF"/>
			<stop  offset="1" style="stop-color:#000000"/>
		</linearGradient>
		<path class="st68" d="M81.4,30.4h176.9C256.3,27,83.4,27,81.4,30.4L81.4,30.4z"/>
		<linearGradient id="SVGID_65_" gradientUnits="userSpaceOnUse" x1="81.6456" y1="19.3082" x2="116.5059" y2="19.3082">
			<stop  offset="1.100000e-07" style="stop-color:#0098CF"/>
			<stop  offset="1" style="stop-color:#000000"/>
		</linearGradient>
		<path class="st69" d="M93.1,9.4l23.4,0.1L93,9.7L93.1,9.4L93.1,9.4z M91.9,11.6l24.6,0.1l-24.8,0.1L91.9,11.6L91.9,11.6z
			 M90.6,13.8l25.9,0.1l-26,0.1L90.6,13.8L90.6,13.8z M89.4,15.9l27.1,0.1l-27.3,0.1L89.4,15.9L89.4,15.9z M88.1,18.1l28.4,0.1
			L88,18.3L88.1,18.1L88.1,18.1z M86.9,20.2l29.6,0.1l-29.8,0.1L86.9,20.2L86.9,20.2z M85.6,22.4l30.9,0.1l-31.1,0.1L85.6,22.4
			L85.6,22.4z M84.3,24.5l32.2,0.2l-32.3,0.2L84.3,24.5L84.3,24.5z M83.1,26.7l33.4,0.2L82.9,27L83.1,26.7L83.1,26.7z M81.8,28.8
			l34.7,0.2l-34.9,0.2L81.8,28.8L81.8,28.8z"/>
		<linearGradient id="SVGID_66_" gradientUnits="userSpaceOnUse" x1="223.5682" y1="19.3082" x2="258.4286" y2="19.3082">
			<stop  offset="1.200000e-07" style="stop-color:#000000"/>
			<stop  offset="1" style="stop-color:#0098CF"/>
		</linearGradient>
		<path class="st70" d="M246.9,9.4l-23.4,0.1l23.5,0.1L246.9,9.4L246.9,9.4z M248.2,11.6l-24.6,0.1l24.8,0.1L248.2,11.6L248.2,11.6z
			 M249.4,13.8l-25.9,0.1l26,0.1L249.4,13.8L249.4,13.8z M250.7,15.9L223.6,16l27.3,0.1L250.7,15.9L250.7,15.9z M252,18.1l-28.4,0.1
			l28.5,0.1L252,18.1L252,18.1z M253.2,20.2l-29.6,0.1l29.8,0.1L253.2,20.2L253.2,20.2z M254.5,22.4l-30.9,0.1l31.1,0.1L254.5,22.4
			L254.5,22.4z M255.7,24.5l-32.2,0.2l32.3,0.2L255.7,24.5L255.7,24.5z M257,26.7l-33.4,0.2l33.6,0.2L257,26.7L257,26.7z
			 M258.2,28.8L223.6,29l34.9,0.2L258.2,28.8L258.2,28.8z"/>
		<linearGradient id="SVGID_67_" gradientUnits="userSpaceOnUse" x1="169.7944" y1="34.0988" x2="169.7944" y2="31.1748">
			<stop  offset="0" style="stop-color:#ADC9D9"/>
			<stop  offset="1" style="stop-color:#4597ED"/>
		</linearGradient>
		<path class="st71" d="M262,32.8l-2.4-1.6H80.1l-2.5,1.5c0.5,0.9,1.5,1.5,2.5,1.5h179.5C260.6,34.1,261.5,33.6,262,32.8L262,32.8z"
			/>
		<linearGradient id="SVGID_68_" gradientUnits="userSpaceOnUse" x1="254.0525" y1="32.8213" x2="254.0525" y2="5.1346">
			<stop  offset="0" style="stop-color:#739CB0"/>
			<stop  offset="1" style="stop-color:#476B96"/>
		</linearGradient>
		<path class="st72" d="M259.6,31.2l2.4,1.6c0-0.1,0.1-0.1,0.1-0.2c0.5-0.9,0.5-2,0-2.9L248.9,7c-0.5-0.8-1.1-1.4-1.9-1.9l-1.5,2.5
			c0.3,0.2,0.6,0.5,0.8,0.8l0.6,1l0.1,0.2l1.1,1.9l0.1,0.2l1.1,1.9l0.1,0.2l1.1,1.9l0.1,0.3l1.1,1.9l0.2,0.3l1.1,1.9l0.2,0.3
			l1.1,1.9l0.2,0.3l1.1,1.9l0.2,0.3l1.1,1.9l0.2,0.3l1.1,1.8l0.2,0.3L259.6,31.2L259.6,31.2z"/>
		<linearGradient id="SVGID_69_" gradientUnits="userSpaceOnUse" x1="169.8549" y1="7.6655" x2="169.8549" y2="4.4725">
			<stop  offset="0" style="stop-color:#4680B0"/>
			<stop  offset="1" style="stop-color:#2C507A"/>
		</linearGradient>
		<path class="st73" d="M95.2,7.4h149.3c0.4,0,0.8,0.1,1.1,0.3l1.5-2.5c-0.7-0.4-1.6-0.7-2.6-0.7H95.2c-0.9,0-1.8,0.2-2.6,0.7
			l1.5,2.5C94.4,7.5,94.8,7.4,95.2,7.4L95.2,7.4z"/>
		<linearGradient id="SVGID_70_" gradientUnits="userSpaceOnUse" x1="85.6584" y1="32.6307" x2="85.6584" y2="5.1346">
			<stop  offset="0" style="stop-color:#739CB0"/>
			<stop  offset="1" style="stop-color:#476B96"/>
		</linearGradient>
		<path class="st74" d="M91.5,11.6l1.1-1.9l0.1-0.2l0.6-1c0.2-0.4,0.5-0.6,0.8-0.8l-1.5-2.5c-0.8,0.4-1.4,1.1-1.9,1.9L77.6,29.7
			c-0.5,0.9-0.5,2,0,2.9l2.5-1.5l1.2-2l0.2-0.3l1.1-1.8l0.2-0.3l1.1-1.9l0.2-0.3l1.1-1.9l0.2-0.3l1.1-1.9l0.2-0.3l1.1-1.9l0.2-0.3
			l1.1-1.9l0.1-0.3l1.1-1.9l0.1-0.2l1.1-1.9L91.5,11.6L91.5,11.6z"/>
		
			<radialGradient id="SVGID_71_" cx="191.0046" cy="-19441.5137" r="109.8799" gradientTransform="matrix(0.815 0 0 2.280000e-02 14.3312 451.3877)" gradientUnits="userSpaceOnUse">
			<stop  offset="0" style="stop-color:#00EAFF"/>
			<stop  offset="0.1286" style="stop-color:#00BDCE"/>
			<stop  offset="0.307" style="stop-color:#008490"/>
			<stop  offset="0.4782" style="stop-color:#00555D"/>
			<stop  offset="0.6376" style="stop-color:#003034"/>
			<stop  offset="0.7825" style="stop-color:#001618"/>
			<stop  offset="0.908" style="stop-color:#000606"/>
			<stop  offset="1" style="stop-color:#000000"/>
		</radialGradient>
		<path class="st75" d="M259.5,8.1c0,1.4-40.1,2.5-89.5,2.5c-49.4,0-89.5-1.1-89.5-2.5c0-1.4,40.1-2.5,89.5-2.5
			C219.4,5.6,259.5,6.7,259.5,8.1z"/>
		
			<radialGradient id="SVGID_72_" cx="602.0854" cy="211.7017" r="22.1043" gradientTransform="matrix(0.5104 0 0 1.4427 11.4655 -231.0201)" gradientUnits="userSpaceOnUse">
			<stop  offset="0" style="stop-color:#E0B700"/>
			<stop  offset="5.151123e-02" style="stop-color:#C09D00"/>
			<stop  offset="0.1335" style="stop-color:#937800"/>
			<stop  offset="0.2213" style="stop-color:#6C5800"/>
			<stop  offset="0.3139" style="stop-color:#4A3D00"/>
			<stop  offset="0.4125" style="stop-color:#2F2600"/>
			<stop  offset="0.5192" style="stop-color:#1A1500"/>
			<stop  offset="0.6384" style="stop-color:#0B0900"/>
			<stop  offset="0.7797" style="stop-color:#030200"/>
			<stop  offset="1" style="stop-color:#000000"/>
		</radialGradient>
		<path class="st76" d="M330.1,74.4c0,17.6-5.1,31.9-11.3,31.9c-6.2,0-11.3-14.3-11.3-31.9s5-31.9,11.3-31.9
			C325,42.5,330.1,56.8,330.1,74.4z"/>
		
			<radialGradient id="SVGID_73_" cx="206.451" cy="-8711.8613" r="135.974" gradientTransform="matrix(0.2522 0 0 4.380000e-02 36.5632 436.588)" gradientUnits="userSpaceOnUse">
			<stop  offset="0" style="stop-color:#CCCC14"/>
			<stop  offset="0.2009" style="stop-color:#90900E"/>
			<stop  offset="0.3983" style="stop-color:#5C5C09"/>
			<stop  offset="0.582" style="stop-color:#343405"/>
			<stop  offset="0.7491" style="stop-color:#181802"/>
			<stop  offset="0.8939" style="stop-color:#060601"/>
			<stop  offset="1" style="stop-color:#000000"/>
		</radialGradient>
		<path class="st77" d="M122.9,55c0,3.3-15.4,6-34.3,6c-18.9,0-34.3-2.7-34.3-6c0-3.3,15.4-6,34.3-6C107.6,49.1,122.9,51.7,122.9,55
			z"/>
		
			<radialGradient id="SVGID_74_" cx="1179.5243" cy="-8711.8613" r="135.9706" gradientTransform="matrix(0.1662 0 0 4.380000e-02 103.1635 436.588)" gradientUnits="userSpaceOnUse">
			<stop  offset="0" style="stop-color:#CCCC14"/>
			<stop  offset="0.2009" style="stop-color:#90900E"/>
			<stop  offset="0.3983" style="stop-color:#5C5C09"/>
			<stop  offset="0.582" style="stop-color:#343405"/>
			<stop  offset="0.7491" style="stop-color:#181802"/>
			<stop  offset="0.8939" style="stop-color:#060601"/>
			<stop  offset="1" style="stop-color:#000000"/>
		</radialGradient>
		<path class="st78" d="M321.8,55c0,3.3-10.1,6-22.6,6c-12.5,0-22.6-2.7-22.6-6c0-3.3,10.1-6,22.6-6C311.7,49.1,321.8,51.7,321.8,55
			z"/>
		
			<radialGradient id="SVGID_75_" cx="-542.5596" cy="-1262.2355" r="135.927" gradientTransform="matrix(0 0.202 -3.030000e-02 0 280.5196 356.1317)" gradientUnits="userSpaceOnUse">
			<stop  offset="0" style="stop-color:#CCCC14"/>
			<stop  offset="0.2009" style="stop-color:#90900E"/>
			<stop  offset="0.3983" style="stop-color:#5C5C09"/>
			<stop  offset="0.582" style="stop-color:#343405"/>
			<stop  offset="0.7491" style="stop-color:#181802"/>
			<stop  offset="0.8939" style="stop-color:#060601"/>
			<stop  offset="1" style="stop-color:#000000"/>
		</radialGradient>
		<path class="st79" d="M318.8,274c-2.3,0-4.1-12.3-4.1-27.5c0-15.2,1.8-27.5,4.1-27.5c2.3,0,4.1,12.3,4.1,27.5
			C322.9,261.7,321,274,318.8,274z"/>
		<text transform="matrix(1 0 0 1 100.6066 24.527)" class="st80 st81 st82">LEADERBOARD</text>
		<polygon class="st83" points="118,189.3 133.4,189.3 133.4,189.3 118,189.3 		"/>
	</g>
</g>
</svg>
