<?xml version="1.0" encoding="utf-8"?>
<!-- Generator: Adobe Illustrator 22.1.0, SVG Export Plug-In . SVG Version: 6.00 Build 0)  -->
<svg version="1.1" id="Layer_1" xmlns="http://www.w3.org/2000/svg" xmlns:xlink="http://www.w3.org/1999/xlink" x="0px" y="0px"
	 viewBox="0 0 250 515" style="enable-background:new 0 0 250 515;" xml:space="preserve">
<style type="text/css">
	.st0{fill-rule:evenodd;clip-rule:evenodd;fill:url(#SVGID_1_);}
	.st1{fill-rule:evenodd;clip-rule:evenodd;fill:url(#SVGID_2_);}
	.st2{fill-rule:evenodd;clip-rule:evenodd;fill:url(#SVGID_3_);}
	.st3{fill-rule:evenodd;clip-rule:evenodd;fill:#C61421;}
	.st4{fill-rule:evenodd;clip-rule:evenodd;fill:url(#SVGID_4_);}
	.st5{fill-rule:evenodd;clip-rule:evenodd;fill:url(#SVGID_5_);}
	.st6{fill-rule:evenodd;clip-rule:evenodd;fill:url(#SVGID_6_);}
	.st7{fill-rule:evenodd;clip-rule:evenodd;fill:url(#SVGID_7_);}
	.st8{fill-rule:evenodd;clip-rule:evenodd;fill:url(#SVGID_8_);}
	.st9{fill-rule:evenodd;clip-rule:evenodd;fill:url(#SVGID_9_);}
	.st10{fill-rule:evenodd;clip-rule:evenodd;fill:url(#SVGID_10_);}
	.st11{fill-rule:evenodd;clip-rule:evenodd;fill:url(#SVGID_11_);}
	.st12{fill-rule:evenodd;clip-rule:evenodd;fill:url(#SVGID_12_);}
	.st13{fill-rule:evenodd;clip-rule:evenodd;fill:url(#SVGID_13_);}
	.st14{fill-rule:evenodd;clip-rule:evenodd;fill:url(#SVGID_14_);}
	.st15{fill-rule:evenodd;clip-rule:evenodd;fill:url(#SVGID_15_);}
	.st16{fill-rule:evenodd;clip-rule:evenodd;fill:url(#SVGID_16_);}
	.st17{fill-rule:evenodd;clip-rule:evenodd;fill:#FFFFFF;}
	.st18{fill-rule:evenodd;clip-rule:evenodd;fill:url(#SVGID_17_);}
	.st19{fill-rule:evenodd;clip-rule:evenodd;fill:url(#SVGID_18_);}
	.st20{fill-rule:evenodd;clip-rule:evenodd;fill:url(#SVGID_19_);}
	.st21{fill-rule:evenodd;clip-rule:evenodd;fill:#CCCC33;}
	.st22{fill-rule:evenodd;clip-rule:evenodd;fill:url(#SVGID_20_);}
	.st23{fill-rule:evenodd;clip-rule:evenodd;fill:url(#SVGID_21_);}
	.st24{fill-rule:evenodd;clip-rule:evenodd;fill:url(#SVGID_22_);}
	.st25{fill-rule:evenodd;clip-rule:evenodd;fill:url(#SVGID_23_);}
	.st26{fill-rule:evenodd;clip-rule:evenodd;fill:url(#SVGID_24_);}
	.st27{fill-rule:evenodd;clip-rule:evenodd;fill:url(#SVGID_25_);}
	.st28{fill-rule:evenodd;clip-rule:evenodd;fill:url(#SVGID_26_);}
	.st29{fill-rule:evenodd;clip-rule:evenodd;fill:url(#SVGID_27_);}
	.st30{fill-rule:evenodd;clip-rule:evenodd;fill:url(#SVGID_28_);}
	.st31{fill-rule:evenodd;clip-rule:evenodd;fill:url(#SVGID_29_);}
	.st32{fill-rule:evenodd;clip-rule:evenodd;fill:url(#SVGID_30_);}
	.st33{fill-rule:evenodd;clip-rule:evenodd;fill:url(#SVGID_31_);}
	.st34{fill-rule:evenodd;clip-rule:evenodd;fill:url(#SVGID_32_);}
	.st35{fill-rule:evenodd;clip-rule:evenodd;fill:url(#SVGID_33_);}
	.st36{fill-rule:evenodd;clip-rule:evenodd;fill:url(#SVGID_34_);}
	.st37{fill-rule:evenodd;clip-rule:evenodd;fill:url(#SVGID_35_);}
	.st38{fill-rule:evenodd;clip-rule:evenodd;fill:#808080;}
	.st39{fill-rule:evenodd;clip-rule:evenodd;fill:url(#SVGID_36_);}
	.st40{fill-rule:evenodd;clip-rule:evenodd;fill:url(#SVGID_37_);}
	.st41{fill-rule:evenodd;clip-rule:evenodd;fill:url(#SVGID_38_);}
	.st42{fill-rule:evenodd;clip-rule:evenodd;fill:url(#SVGID_39_);}
	.st43{fill-rule:evenodd;clip-rule:evenodd;fill:url(#SVGID_40_);}
	.st44{fill-rule:evenodd;clip-rule:evenodd;fill:url(#SVGID_41_);}
	.st45{fill-rule:evenodd;clip-rule:evenodd;fill:url(#SVGID_42_);}
	.st46{fill-rule:evenodd;clip-rule:evenodd;fill:url(#SVGID_43_);}
	.st47{fill-rule:evenodd;clip-rule:evenodd;fill:url(#SVGID_44_);}
	.st48{fill-rule:evenodd;clip-rule:evenodd;fill:url(#SVGID_45_);}
	.st49{fill-rule:evenodd;clip-rule:evenodd;fill:url(#SVGID_46_);}
	.st50{fill-rule:evenodd;clip-rule:evenodd;fill:url(#SVGID_47_);}
	.st51{fill-rule:evenodd;clip-rule:evenodd;fill:url(#SVGID_48_);}
	.st52{fill-rule:evenodd;clip-rule:evenodd;fill:url(#SVGID_49_);}
	.st53{fill-rule:evenodd;clip-rule:evenodd;fill:url(#SVGID_50_);}
	.st54{fill-rule:evenodd;clip-rule:evenodd;fill:url(#SVGID_51_);}
	.st55{fill-rule:evenodd;clip-rule:evenodd;fill:url(#SVGID_52_);}
	.st56{fill-rule:evenodd;clip-rule:evenodd;fill:url(#SVGID_53_);}
	.st57{fill-rule:evenodd;clip-rule:evenodd;fill:url(#SVGID_54_);}
	.st58{fill-rule:evenodd;clip-rule:evenodd;fill:url(#SVGID_55_);}
	.st59{fill-rule:evenodd;clip-rule:evenodd;fill:url(#SVGID_56_);}
	.st60{fill-rule:evenodd;clip-rule:evenodd;fill:url(#SVGID_57_);}
	.st61{fill-rule:evenodd;clip-rule:evenodd;fill:url(#SVGID_58_);}
	.st62{fill-rule:evenodd;clip-rule:evenodd;fill:url(#SVGID_59_);}
	.st63{fill-rule:evenodd;clip-rule:evenodd;fill:url(#SVGID_60_);}
	.st64{fill-rule:evenodd;clip-rule:evenodd;fill:url(#SVGID_61_);}
	.st65{fill-rule:evenodd;clip-rule:evenodd;fill:url(#SVGID_62_);}
	.st66{fill-rule:evenodd;clip-rule:evenodd;fill:#999999;}
	.st67{fill-rule:evenodd;clip-rule:evenodd;fill:url(#SVGID_63_);}
	.st68{fill-rule:evenodd;clip-rule:evenodd;fill:url(#SVGID_64_);}
	.st69{fill:url(#SVGID_65_);}
	.st70{fill:url(#SVGID_66_);}
	.st71{fill-rule:evenodd;clip-rule:evenodd;fill:url(#SVGID_67_);}
	.st72{fill-rule:evenodd;clip-rule:evenodd;fill:url(#SVGID_68_);}
	.st73{fill-rule:evenodd;clip-rule:evenodd;fill:url(#SVGID_69_);}
	.st74{fill-rule:evenodd;clip-rule:evenodd;fill:url(#SVGID_70_);}
	.st75{fill-rule:evenodd;clip-rule:evenodd;fill:url(#SVGID_71_);}
	.st76{fill-rule:evenodd;clip-rule:evenodd;fill:url(#SVGID_72_);}
	.st77{fill-rule:evenodd;clip-rule:evenodd;fill:url(#SVGID_73_);}
	.st78{fill-rule:evenodd;clip-rule:evenodd;fill:url(#SVGID_74_);}
	.st79{fill-rule:evenodd;clip-rule:evenodd;fill:url(#SVGID_75_);}
	.st80{fill:#FFFFFF;}
	.st81{font-family:'Nunito-Bold';}
	.st82{font-size:15.5972px;}
</style>
<g>
	<linearGradient id="SVGID_1_" gradientUnits="userSpaceOnUse" x1="40.6542" y1="512.8934" x2="40.6542" y2="504.4493">
		<stop  offset="0" style="stop-color:#204954"/>
		<stop  offset="1" style="stop-color:#1B3840"/>
	</linearGradient>
	<polygon class="st0" points="19,504.4 62.3,504.4 54.8,512.9 25.6,511.4 19,504.4 	"/>
	<linearGradient id="SVGID_2_" gradientUnits="userSpaceOnUse" x1="209.3447" y1="512.8934" x2="209.3447" y2="504.4493">
		<stop  offset="0" style="stop-color:#204954"/>
		<stop  offset="1" style="stop-color:#1B3840"/>
	</linearGradient>
	<polygon class="st1" points="231,504.4 187.7,504.4 195.2,512.9 224.4,511.4 231,504.4 	"/>
	<linearGradient id="SVGID_3_" gradientUnits="userSpaceOnUse" x1="125" y1="514.6727" x2="125" y2="504.4493">
		<stop  offset="0" style="stop-color:#204954"/>
		<stop  offset="1" style="stop-color:#1B3840"/>
	</linearGradient>
	<polygon class="st2" points="81.5,504.4 168.5,504.4 159.4,514.7 90.6,514.7 81.5,504.4 	"/>
	<polygon class="st3" points="4.8,28.5 245.2,28.5 245.2,503.1 4.8,503.1 4.8,28.5 	"/>
	<linearGradient id="SVGID_4_" gradientUnits="userSpaceOnUse" x1="2.0144" y1="27.236" x2="2.0144" y2="24.2076">
		<stop  offset="0" style="stop-color:#6287C9"/>
		<stop  offset="1" style="stop-color:#3B597D"/>
	</linearGradient>
	<polygon class="st4" points="0.5,26.3 2.6,27.2 3.5,26.3 2.6,24.2 0.5,26.3 	"/>
	<linearGradient id="SVGID_5_" gradientUnits="userSpaceOnUse" x1="3.7128" y1="28.4918" x2="3.7128" y2="26.3485">
		<stop  offset="0" style="stop-color:#6287C9"/>
		<stop  offset="1" style="stop-color:#3B597D"/>
	</linearGradient>
	<polygon class="st5" points="3.5,26.3 2.6,27.2 4.8,28.5 3.5,26.3 	"/>
	<linearGradient id="SVGID_6_" gradientUnits="userSpaceOnUse" x1="124.9989" y1="514.6727" x2="124.9989" y2="505.2092">
		<stop  offset="0" style="stop-color:#204270"/>
		<stop  offset="1" style="stop-color:#335D94"/>
	</linearGradient>
	<polygon class="st6" points="246.5,505.2 3.5,505.2 2.6,507.4 23.3,507.4 25.6,511.4 54.8,512.9 58,507.4 86.3,507.4 90.6,514.7 
		159.4,514.7 163.7,507.4 192,507.4 195.2,512.9 224.4,511.4 226.7,507.4 247.4,507.4 246.5,505.2 	"/>
	<linearGradient id="SVGID_7_" gradientUnits="userSpaceOnUse" x1="125" y1="505.2092" x2="125" y2="503.0671">
		<stop  offset="0" style="stop-color:#87B5F5"/>
		<stop  offset="1" style="stop-color:#4E76A6"/>
	</linearGradient>
	<polygon class="st7" points="3.5,505.2 246.5,505.2 245.2,503.1 125,503.1 4.8,503.1 3.5,505.2 	"/>
	<linearGradient id="SVGID_8_" gradientUnits="userSpaceOnUse" x1="245.2145" y1="265.7794" x2="247.3554" y2="265.7794">
		<stop  offset="0" style="stop-color:#4E76A6"/>
		<stop  offset="1" style="stop-color:#87B5F5"/>
	</linearGradient>
	<polygon class="st8" points="245.2,28.5 245.2,503.1 247.4,504.3 247.4,27.2 245.2,28.5 	"/>
	<linearGradient id="SVGID_9_" gradientUnits="userSpaceOnUse" x1="2.6423" y1="265.7794" x2="4.7833" y2="265.7794">
		<stop  offset="0" style="stop-color:#335D94"/>
		<stop  offset="1" style="stop-color:#204270"/>
	</linearGradient>
	<polygon class="st9" points="4.8,28.5 4.8,503.1 2.6,504.3 2.6,27.2 4.8,28.5 	"/>
	<linearGradient id="SVGID_10_" gradientUnits="userSpaceOnUse" x1="125" y1="28.4918" x2="125" y2="26.3485">
		<stop  offset="0" style="stop-color:#204270"/>
		<stop  offset="1" style="stop-color:#335D94"/>
	</linearGradient>
	<polygon class="st10" points="3.5,26.3 246.5,26.3 245.2,28.5 4.8,28.5 3.5,26.3 	"/>
	<linearGradient id="SVGID_11_" gradientUnits="userSpaceOnUse" x1="247.9855" y1="507.3513" x2="247.9855" y2="504.3228">
		<stop  offset="0" style="stop-color:#6287C9"/>
		<stop  offset="1" style="stop-color:#3B597D"/>
	</linearGradient>
	<polygon class="st11" points="249.5,505.2 247.4,504.3 246.5,505.2 247.4,507.4 249.5,505.2 	"/>
	<linearGradient id="SVGID_12_" gradientUnits="userSpaceOnUse" x1="246.2849" y1="505.2092" x2="246.2849" y2="503.0671">
		<stop  offset="0" style="stop-color:#6287C9"/>
		<stop  offset="1" style="stop-color:#3B597D"/>
	</linearGradient>
	<polygon class="st12" points="246.5,505.2 247.4,504.3 245.2,503.1 246.5,505.2 	"/>
	<linearGradient id="SVGID_13_" gradientUnits="userSpaceOnUse" x1="2.0144" y1="507.3513" x2="2.0144" y2="504.3228">
		<stop  offset="0" style="stop-color:#6287C9"/>
		<stop  offset="1" style="stop-color:#3B597D"/>
	</linearGradient>
	<polygon class="st13" points="0.5,505.2 2.6,504.3 3.5,505.2 2.6,507.4 0.5,505.2 	"/>
	<linearGradient id="SVGID_14_" gradientUnits="userSpaceOnUse" x1="3.7128" y1="505.2092" x2="3.7128" y2="503.0671">
		<stop  offset="0" style="stop-color:#6287C9"/>
		<stop  offset="1" style="stop-color:#3B597D"/>
	</linearGradient>
	<polygon class="st14" points="3.5,505.2 2.6,504.3 4.8,503.1 3.5,505.2 	"/>
	<linearGradient id="SVGID_15_" gradientUnits="userSpaceOnUse" x1="247.9855" y1="27.236" x2="247.9855" y2="24.2076">
		<stop  offset="0" style="stop-color:#6287C9"/>
		<stop  offset="1" style="stop-color:#3B597D"/>
	</linearGradient>
	<polygon class="st15" points="249.5,26.3 247.4,27.2 246.5,26.3 247.4,24.2 249.5,26.3 	"/>
	<linearGradient id="SVGID_16_" gradientUnits="userSpaceOnUse" x1="246.2849" y1="28.4918" x2="246.2849" y2="26.3485">
		<stop  offset="0" style="stop-color:#6287C9"/>
		<stop  offset="1" style="stop-color:#3B597D"/>
	</linearGradient>
	<polygon class="st16" points="246.5,26.3 247.4,27.2 245.2,28.5 246.5,26.3 	"/>
	<path class="st17" d="M133.8,37h2.5l-2.5,2.5h2.5l2.5-2.5h10.1l1.3,1.3l17.4,0l1.3,1.3h22.7l4.2,4.2H230v32.3l4.2,4.2v2.5v9.9
		l2.5,2.5v34.9l-2.5,2.5v23v2.5l-4.2,4.2v35.6l4.2,4.2v2.5V492h-50.7l-1.3,1.3h-2.5l1.3-1.3h-2.5l-2,2h-2.5l2-2h-2.5l-2.5,2.5h-2.5
		l2.5-2.5h-2.5l-2.5,2.5h-2.5l2.5-2.5h-2.5l-2.5,2.5h-2.5l2.5-2.5h-2.5l-2.5,2.5h-34h-3.4h-30l-2-2H64.8l-2,2H32.2l-2.5-2.5H15.8
		V226.1l-2.5-2.5v-29.2v-8.2v-11.4v-9.3v-7.3l2.5-2.5V86.2l-2-2V62.2l2-2V39.6h18.2h2.5l4.2,4.2h49.1l4.2-4.2h2.5l1.3-1.3h2.5
		L99,39.6h2.5l2-2h2.5l-2,2h2.5L109,37h2.5l-2.5,2.5h2.5l2.5-2.5h2.5l-2.5,2.5h2.5l2.5-2.5h2.5l-2.5,2.5h2.5l2.5-2.5h2.5l-2.5,2.5
		h2.5l2.5-2.5h2.5l-2.5,2.5h2.5L133.8,37L133.8,37z M232.5,202.9v271.4L230,477V200.3L232.5,202.9L232.5,202.9z M232.5,476.8v13.6
		H219l2.6-2.6h8.4v-8.4L232.5,476.8L232.5,476.8z M216.5,490.4H66.9l2.6-2.6h149.6L216.5,490.4L216.5,490.4z M64.4,490.4H30.6
		l-2.6-2.6h39L64.4,490.4L64.4,490.4z M28.1,490.4H17.4V227.7v-41.6v-11.4V154V87.8l2.6,2.6v397.4h5.4L28.1,490.4L28.1,490.4z
		 M17.4,85.3V41.2h18.2l2.6,2.6H20v44.2L17.4,85.3L17.4,85.3z M15.8,156.7v6.3l-1.8,1.8v-6.3L15.8,156.7L15.8,156.7z M14.1,195.2
		l1.8,1.8v28.1l-1.8-1.8V195.2L14.1,195.2z M94.9,41.2h95.6l2.6,2.6H92.3L94.9,41.2L94.9,41.2z M232.5,81.1v76.1l-2.6,2.6V78.5
		L232.5,81.1L232.5,81.1z M21.7,45.4v440.8H125h103.3V76.9v-2.5V45.4h-31.1h-2.5H21.7L21.7,45.4z"/>
	<linearGradient id="SVGID_17_" gradientUnits="userSpaceOnUse" x1="164.5383" y1="42.4564" x2="193.1498" y2="42.4564">
		<stop  offset="0" style="stop-color:#00393D"/>
		<stop  offset="1" style="stop-color:#006E78"/>
	</linearGradient>
	<polygon class="st18" points="190.5,41.2 167.1,41.2 164.5,43.8 193.1,43.8 190.5,41.2 	"/>
	<linearGradient id="SVGID_18_" gradientUnits="userSpaceOnUse" x1="27.9703" y1="489.1024" x2="67.0182" y2="489.1024">
		<stop  offset="0" style="stop-color:#006E78"/>
		<stop  offset="1" style="stop-color:#000000"/>
	</linearGradient>
	<polygon class="st19" points="67,487.8 28,487.8 30.6,490.4 64.4,490.4 67,487.8 	"/>
	<linearGradient id="SVGID_19_" gradientUnits="userSpaceOnUse" x1="232.5491" y1="490.4012" x2="225.7651" y2="483.6172">
		<stop  offset="0" style="stop-color:#00393D"/>
		<stop  offset="1" style="stop-color:#006E78"/>
	</linearGradient>
	<polygon class="st20" points="221.6,487.8 219,490.4 232.5,490.4 232.5,476.8 230,479.4 230,487.8 221.6,487.8 	"/>
	<polygon class="st21" points="234.2,199.5 234.2,160.7 232.1,162.7 232.1,197.4 234.2,199.5 	"/>
	<polygon class="st21" points="40.1,39.6 42.2,41.6 88.4,41.6 90.5,39.6 40.1,39.6 	"/>
	<linearGradient id="SVGID_20_" gradientUnits="userSpaceOnUse" x1="35.6492" y1="72.3383" x2="10.9586" y2="47.6477">
		<stop  offset="0" style="stop-color:#006E78"/>
		<stop  offset="1" style="stop-color:#00393D"/>
	</linearGradient>
	<polygon class="st22" points="38.3,43.8 35.7,41.2 17.4,41.2 17.4,85.3 20,87.9 20,43.8 38.3,43.8 	"/>
	<polygon class="st21" points="203.8,39.6 205.9,41.6 233.7,41.6 235.8,39.6 203.8,39.6 	"/>
	<path class="st21" d="M8.7,476.9v-2.5l3.2,3.2v2.5L8.7,476.9L8.7,476.9z M8.7,472v-2.5l3.2,3.2v2.5L8.7,472L8.7,472z M8.7,467v-2.5
		l3.2,3.2v2.5L8.7,467L8.7,467z"/>
	<path class="st21" d="M232.6,59.1v2.5l3.2-3.2v-2.5L232.6,59.1L232.6,59.1z M232.6,54.1v2.5l3.2-3.2v-2.5L232.6,54.1L232.6,54.1z
		 M232.6,49.2v2.5l3.2-3.2V46L232.6,49.2L232.6,49.2z"/>
	<linearGradient id="SVGID_21_" gradientUnits="userSpaceOnUse" x1="15.1222" y1="192.2247" x2="15.1222" y2="164.4563">
		<stop  offset="0" style="stop-color:#FFFFFF"/>
		<stop  offset="1" style="stop-color:#000000"/>
	</linearGradient>
	<polygon class="st23" points="15.8,164.5 14.4,165.9 14.4,190.8 15.8,192.2 15.8,164.5 	"/>
	<linearGradient id="SVGID_22_" gradientUnits="userSpaceOnUse" x1="32.1745" y1="492.7299" x2="48.0911" y2="492.7299">
		<stop  offset="0" style="stop-color:#FFFFFF"/>
		<stop  offset="1" style="stop-color:#000000"/>
	</linearGradient>
	<polygon class="st24" points="32.2,492 33.6,493.5 46.6,493.5 48.1,492 32.2,492 	"/>
	<linearGradient id="SVGID_23_" gradientUnits="userSpaceOnUse" x1="88.6876" y1="492.7299" x2="121.0797" y2="492.7299">
		<stop  offset="0" style="stop-color:#FFFFFF"/>
		<stop  offset="1" style="stop-color:#000000"/>
	</linearGradient>
	<polygon class="st25" points="88.7,492 90.1,493.5 119.6,493.5 121.1,492 88.7,492 	"/>
	<linearGradient id="SVGID_24_" gradientUnits="userSpaceOnUse" x1="122.5173" y1="492.7299" x2="133.2267" y2="492.7299">
		<stop  offset="0" style="stop-color:#FFFFFF"/>
		<stop  offset="1" style="stop-color:#000000"/>
	</linearGradient>
	<polygon class="st26" points="122.5,492 124,493.5 131.8,493.5 133.2,492 122.5,492 	"/>
	<linearGradient id="SVGID_25_" gradientUnits="userSpaceOnUse" x1="134.6621" y1="492.7299" x2="152.1738" y2="492.7299">
		<stop  offset="0" style="stop-color:#FFFFFF"/>
		<stop  offset="1" style="stop-color:#000000"/>
	</linearGradient>
	<polygon class="st27" points="134.7,492 136.1,493.5 150.7,493.5 152.2,492 134.7,492 	"/>
	<linearGradient id="SVGID_26_" gradientUnits="userSpaceOnUse" x1="124.8924" y1="26.3485" x2="124.8924" y2="0.3273">
		<stop  offset="0" style="stop-color:#273F5E"/>
		<stop  offset="1" style="stop-color:#4E688C"/>
	</linearGradient>
	<path class="st28" d="M15.7,26.3H234L213.7,3.2c-1.7-1.9-3.9-2.9-6.4-2.9H42.6c-2.5,0-4.7,1-6.4,2.9L15.7,26.3L15.7,26.3z"/>
	<linearGradient id="SVGID_27_" gradientUnits="userSpaceOnUse" x1="124.9989" y1="26.3485" x2="124.9989" y2="0.3273">
		<stop  offset="0" style="stop-color:#4E76A6"/>
		<stop  offset="1" style="stop-color:#87B5F5"/>
	</linearGradient>
	<path class="st29" d="M246.5,26.3h-20.2H23.5h-20l-0.9-2.1h17.2c3.1,0,5.8-1.6,7.4-4.3l9.6-16.4c1.2-2,3.2-3.2,5.6-3.2h165
		c2.3,0,4.4,1.2,5.6,3.2l9.6,16.4c1.6,2.7,4.3,4.3,7.4,4.3h17.4L246.5,26.3L246.5,26.3z"/>
	<linearGradient id="SVGID_28_" gradientUnits="userSpaceOnUse" x1="35.6334" y1="13.3357" x2="59.4482" y2="13.3357">
		<stop  offset="0.1747" style="stop-color:#FFFFFF"/>
		<stop  offset="0.2975" style="stop-color:#FAFBFB"/>
		<stop  offset="0.4335" style="stop-color:#EDEEF0"/>
		<stop  offset="0.5759" style="stop-color:#D7D9DD"/>
		<stop  offset="0.7226" style="stop-color:#B8BCC3"/>
		<stop  offset="0.8711" style="stop-color:#9196A2"/>
		<stop  offset="1" style="stop-color:#687080"/>
	</linearGradient>
	<polygon class="st30" points="42.2,7.7 59.4,7.7 52.8,19 35.6,19 42.2,7.7 	"/>
	<linearGradient id="SVGID_29_" gradientUnits="userSpaceOnUse" x1="190.341" y1="13.3357" x2="214.1559" y2="13.3357">
		<stop  offset="1.100000e-07" style="stop-color:#687080"/>
		<stop  offset="0.1289" style="stop-color:#9196A2"/>
		<stop  offset="0.2774" style="stop-color:#B8BCC3"/>
		<stop  offset="0.4241" style="stop-color:#D7D9DD"/>
		<stop  offset="0.5665" style="stop-color:#EDEEF0"/>
		<stop  offset="0.7025" style="stop-color:#FAFBFB"/>
		<stop  offset="0.8253" style="stop-color:#FFFFFF"/>
	</linearGradient>
	<polygon class="st31" points="207.6,7.7 190.3,7.7 196.9,19 214.2,19 207.6,7.7 	"/>
	<linearGradient id="SVGID_30_" gradientUnits="userSpaceOnUse" x1="35.6334" y1="17.6421" x2="52.8456" y2="17.6421">
		<stop  offset="0" style="stop-color:#000000"/>
		<stop  offset="1" style="stop-color:#56788A"/>
	</linearGradient>
	<polygon class="st32" points="35.6,19 51.3,16.3 52.8,19 35.6,19 	"/>
	<linearGradient id="SVGID_31_" gradientUnits="userSpaceOnUse" x1="42.2338" y1="9.0304" x2="59.4482" y2="9.0304">
		<stop  offset="0" style="stop-color:#FFFFFF"/>
		<stop  offset="1" style="stop-color:#ADC9D9"/>
	</linearGradient>
	<polygon class="st33" points="54.7,10.4 59.4,7.7 42.2,7.7 54.7,10.4 	"/>
	<linearGradient id="SVGID_32_" gradientUnits="userSpaceOnUse" x1="55.3626" y1="19.0048" x2="55.3626" y2="7.6666">
		<stop  offset="0" style="stop-color:#739CB0"/>
		<stop  offset="1" style="stop-color:#476B96"/>
	</linearGradient>
	<polygon class="st34" points="54.7,10.4 51.3,16.3 52.8,19 59.4,7.7 54.7,10.4 	"/>
	<linearGradient id="SVGID_33_" gradientUnits="userSpaceOnUse" x1="196.9436" y1="17.6421" x2="214.1559" y2="17.6421">
		<stop  offset="0" style="stop-color:#56788A"/>
		<stop  offset="1" style="stop-color:#000000"/>
	</linearGradient>
	<polygon class="st35" points="214.2,19 198.5,16.3 196.9,19 214.2,19 	"/>
	<linearGradient id="SVGID_34_" gradientUnits="userSpaceOnUse" x1="190.341" y1="9.0304" x2="207.5532" y2="9.0304">
		<stop  offset="0" style="stop-color:#ADC9D9"/>
		<stop  offset="1" style="stop-color:#FFFFFF"/>
	</linearGradient>
	<polygon class="st36" points="195.1,10.4 190.3,7.7 207.6,7.7 195.1,10.4 	"/>
	<linearGradient id="SVGID_35_" gradientUnits="userSpaceOnUse" x1="194.4254" y1="19.0048" x2="194.4254" y2="7.6666">
		<stop  offset="0" style="stop-color:#739CB0"/>
		<stop  offset="1" style="stop-color:#476B96"/>
	</linearGradient>
	<polygon class="st37" points="195.1,10.4 198.5,16.3 196.9,19 190.3,7.7 195.1,10.4 	"/>
	<polygon class="st38" points="107.4,507.3 142.6,507.3 140,511.8 110,511.8 107.4,507.3 	"/>
	<radialGradient id="SVGID_36_" cx="125" cy="509.5611" r="16.5706" gradientUnits="userSpaceOnUse">
		<stop  offset="0" style="stop-color:#F8FC86"/>
		<stop  offset="1" style="stop-color:#EDCE20"/>
	</radialGradient>
	<polygon class="st39" points="109.3,508.4 140.7,508.4 139.4,510.7 110.6,510.7 109.3,508.4 	"/>
	<radialGradient id="SVGID_37_" cx="124.9999" cy="509.56" r="22.0928" gradientUnits="userSpaceOnUse">
		<stop  offset="0" style="stop-color:#EFFF57"/>
		<stop  offset="1" style="stop-color:#000000"/>
	</radialGradient>
	<path class="st40" d="M110.9,508.9h28.1c0.2,0,0.3,0.1,0.4,0.2c0.1,0.1,0.1,0.3,0,0.4l-0.1,0.2c-0.1,0.2-0.4,0.4-0.6,0.4h-27.3
		c-0.3,0-0.5-0.1-0.7-0.4l-0.1-0.2c-0.1-0.1-0.1-0.3,0-0.4C110.6,509,110.8,508.9,110.9,508.9L110.9,508.9z"/>
	<radialGradient id="SVGID_38_" cx="125" cy="509.5594" r="17.7778" gradientUnits="userSpaceOnUse">
		<stop  offset="0" style="stop-color:#FEFFCB"/>
		<stop  offset="1" style="stop-color:#000000"/>
	</radialGradient>
	<path class="st41" d="M111.1,509.5h27.7l0,0.1c0,0.1-0.1,0.1-0.2,0.1h-27.3C111.3,509.6,111.2,509.6,111.1,509.5L111.1,509.5
		L111.1,509.5z"/>
	<linearGradient id="SVGID_39_" gradientUnits="userSpaceOnUse" x1="109.0059" y1="511.7886" x2="109.0059" y2="507.3336">
		<stop  offset="0" style="stop-color:#739CB0"/>
		<stop  offset="1" style="stop-color:#476B96"/>
	</linearGradient>
	<polygon class="st42" points="109.3,508.4 110.6,510.7 110,511.8 107.4,507.3 109.3,508.4 	"/>
	<linearGradient id="SVGID_40_" gradientUnits="userSpaceOnUse" x1="124.9989" y1="511.7886" x2="124.9989" y2="510.7181">
		<stop  offset="0" style="stop-color:#99B2BF"/>
		<stop  offset="1" style="stop-color:#9BBD67"/>
	</linearGradient>
	<polygon class="st43" points="110.6,510.7 125,510.7 139.4,510.7 140,511.8 125,511.8 110,511.8 110.6,510.7 	"/>
	<linearGradient id="SVGID_41_" gradientUnits="userSpaceOnUse" x1="125" y1="508.4041" x2="125" y2="507.3336">
		<stop  offset="0" style="stop-color:#94885C"/>
		<stop  offset="1" style="stop-color:#2C507A"/>
	</linearGradient>
	<polygon class="st44" points="142.6,507.3 140.7,508.4 125,508.4 109.3,508.4 107.4,507.3 125,507.3 142.6,507.3 	"/>
	<linearGradient id="SVGID_42_" gradientUnits="userSpaceOnUse" x1="140.9941" y1="511.7886" x2="140.9941" y2="507.3336">
		<stop  offset="0" style="stop-color:#739CB0"/>
		<stop  offset="1" style="stop-color:#476B96"/>
	</linearGradient>
	<polygon class="st45" points="140.7,508.4 142.6,507.3 140,511.8 139.4,510.7 140.7,508.4 	"/>
	<linearGradient id="SVGID_43_" gradientUnits="userSpaceOnUse" x1="89.3621" y1="509.5611" x2="105.4782" y2="509.5611">
		<stop  offset="0.1747" style="stop-color:#FFFFFF"/>
		<stop  offset="0.2975" style="stop-color:#FAFBFB"/>
		<stop  offset="0.4335" style="stop-color:#EDEEF0"/>
		<stop  offset="0.5759" style="stop-color:#D7D9DD"/>
		<stop  offset="0.7226" style="stop-color:#B8BCC3"/>
		<stop  offset="0.8711" style="stop-color:#9196A2"/>
		<stop  offset="1" style="stop-color:#687080"/>
	</linearGradient>
	<polygon class="st46" points="92,511.8 105.5,511.8 102.9,507.3 89.4,507.3 92,511.8 	"/>
	<linearGradient id="SVGID_44_" gradientUnits="userSpaceOnUse" x1="144.5195" y1="509.5611" x2="160.6379" y2="509.5611">
		<stop  offset="1.100000e-07" style="stop-color:#687080"/>
		<stop  offset="0.1289" style="stop-color:#9196A2"/>
		<stop  offset="0.2774" style="stop-color:#B8BCC3"/>
		<stop  offset="0.4241" style="stop-color:#D7D9DD"/>
		<stop  offset="0.5665" style="stop-color:#EDEEF0"/>
		<stop  offset="0.7025" style="stop-color:#FAFBFB"/>
		<stop  offset="0.8253" style="stop-color:#FFFFFF"/>
	</linearGradient>
	<polygon class="st47" points="158,511.8 144.5,511.8 147.1,507.3 160.6,507.3 158,511.8 	"/>
	<linearGradient id="SVGID_45_" gradientUnits="userSpaceOnUse" x1="89.3621" y1="507.8688" x2="102.8868" y2="507.8688">
		<stop  offset="0" style="stop-color:#FFFFFF"/>
		<stop  offset="1" style="stop-color:#ADC9D9"/>
	</linearGradient>
	<polygon class="st48" points="89.4,507.3 102.3,508.4 102.9,507.3 89.4,507.3 	"/>
	<linearGradient id="SVGID_46_" gradientUnits="userSpaceOnUse" x1="91.9557" y1="511.2533" x2="105.4782" y2="511.2533">
		<stop  offset="0" style="stop-color:#000000"/>
		<stop  offset="1" style="stop-color:#56788A"/>
	</linearGradient>
	<polygon class="st49" points="103.6,510.7 105.5,511.8 92,511.8 103.6,510.7 	"/>
	<linearGradient id="SVGID_47_" gradientUnits="userSpaceOnUse" x1="103.8742" y1="511.7886" x2="103.8742" y2="507.3336">
		<stop  offset="0" style="stop-color:#3A6278"/>
		<stop  offset="1" style="stop-color:#273361"/>
	</linearGradient>
	<polygon class="st50" points="103.6,510.7 102.3,508.4 102.9,507.3 105.5,511.8 103.6,510.7 	"/>
	<linearGradient id="SVGID_48_" gradientUnits="userSpaceOnUse" x1="147.1131" y1="507.8688" x2="160.6379" y2="507.8688">
		<stop  offset="0" style="stop-color:#ADC9D9"/>
		<stop  offset="1" style="stop-color:#FFFFFF"/>
	</linearGradient>
	<polygon class="st51" points="160.6,507.3 147.7,508.4 147.1,507.3 160.6,507.3 	"/>
	<linearGradient id="SVGID_49_" gradientUnits="userSpaceOnUse" x1="144.5195" y1="511.2533" x2="158.0443" y2="511.2533">
		<stop  offset="0" style="stop-color:#56788A"/>
		<stop  offset="1" style="stop-color:#000000"/>
	</linearGradient>
	<polygon class="st52" points="146.4,510.7 144.5,511.8 158,511.8 146.4,510.7 	"/>
	<linearGradient id="SVGID_50_" gradientUnits="userSpaceOnUse" x1="146.1247" y1="511.7886" x2="146.1247" y2="507.3336">
		<stop  offset="0" style="stop-color:#3A6278"/>
		<stop  offset="1" style="stop-color:#273361"/>
	</linearGradient>
	<polygon class="st53" points="146.4,510.7 147.7,508.4 147.1,507.3 144.5,511.8 146.4,510.7 	"/>
	<g>
		<radialGradient id="SVGID_51_" cx="40.6542" cy="508.734" r="7.8777" gradientUnits="userSpaceOnUse">
			<stop  offset="0" style="stop-color:#F8FC86"/>
			<stop  offset="1" style="stop-color:#EDCE20"/>
		</radialGradient>
		<polygon class="st54" points="47.1,509.8 48.3,507.7 33,507.7 33.8,509.1 47.1,509.8 		"/>
		<radialGradient id="SVGID_52_" cx="40.6553" cy="508.7263" r="8.498" gradientUnits="userSpaceOnUse">
			<stop  offset="0" style="stop-color:#EFFF57"/>
			<stop  offset="1" style="stop-color:#000000"/>
		</radialGradient>
		<polygon class="st55" points="46.8,509.3 34.1,508.6 33.9,508.2 47.4,508.2 46.8,509.3 		"/>
		<linearGradient id="SVGID_53_" gradientUnits="userSpaceOnUse" x1="32.4597" y1="510.1478" x2="32.4597" y2="506.5914">
			<stop  offset="0" style="stop-color:#739CB0"/>
			<stop  offset="1" style="stop-color:#476B96"/>
		</linearGradient>
		<polygon class="st56" points="33.2,510.1 33.8,509.1 33,507.7 31.1,506.6 33.2,510.1 		"/>
		<linearGradient id="SVGID_54_" gradientUnits="userSpaceOnUse" x1="48.6457" y1="510.9099" x2="48.6457" y2="506.5914">
			<stop  offset="0" style="stop-color:#739CB0"/>
			<stop  offset="1" style="stop-color:#476B96"/>
		</linearGradient>
		<polygon class="st57" points="47.1,509.8 47.7,510.9 50.2,506.6 48.3,507.7 47.1,509.8 		"/>
		<linearGradient id="SVGID_55_" gradientUnits="userSpaceOnUse" x1="40.4323" y1="510.9099" x2="40.4323" y2="509.1085">
			<stop  offset="0" style="stop-color:#99B2BF"/>
			<stop  offset="1" style="stop-color:#9BBD67"/>
		</linearGradient>
		<polygon class="st58" points="47.7,510.9 47.1,509.8 33.8,509.1 33.2,510.1 47.7,510.9 		"/>
		<linearGradient id="SVGID_56_" gradientUnits="userSpaceOnUse" x1="40.6542" y1="507.663" x2="40.6542" y2="506.5914">
			<stop  offset="0" style="stop-color:#94885C"/>
			<stop  offset="1" style="stop-color:#2C507A"/>
		</linearGradient>
		<polygon class="st59" points="33,507.7 48.3,507.7 50.2,506.6 31.1,506.6 33,507.7 		"/>
	</g>
	<g>
		
			<radialGradient id="SVGID_57_" cx="92.5908" cy="508.734" r="7.8766" gradientTransform="matrix(-1 0 0 1 301.9355 0)" gradientUnits="userSpaceOnUse">
			<stop  offset="0" style="stop-color:#F8FC86"/>
			<stop  offset="1" style="stop-color:#EDCE20"/>
		</radialGradient>
		<polygon class="st60" points="202.9,509.8 201.7,507.7 217,507.7 216.2,509.1 202.9,509.8 		"/>
		
			<radialGradient id="SVGID_58_" cx="92.5908" cy="508.7263" r="8.498" gradientTransform="matrix(-1 0 0 1 301.9355 0)" gradientUnits="userSpaceOnUse">
			<stop  offset="0" style="stop-color:#EFFF57"/>
			<stop  offset="1" style="stop-color:#000000"/>
		</radialGradient>
		<polygon class="st61" points="203.2,509.3 215.9,508.6 216.1,508.2 202.6,508.2 203.2,509.3 		"/>
		
			<linearGradient id="SVGID_59_" gradientUnits="userSpaceOnUse" x1="84.3952" y1="510.1478" x2="84.3952" y2="506.5914" gradientTransform="matrix(-1 0 0 1 301.9355 0)">
			<stop  offset="0" style="stop-color:#739CB0"/>
			<stop  offset="1" style="stop-color:#476B96"/>
		</linearGradient>
		<polygon class="st62" points="216.8,510.1 216.2,509.1 217,507.7 218.9,506.6 216.8,510.1 		"/>
		
			<linearGradient id="SVGID_60_" gradientUnits="userSpaceOnUse" x1="100.5823" y1="510.9099" x2="100.5823" y2="506.5914" gradientTransform="matrix(-1 0 0 1 301.9355 0)">
			<stop  offset="0" style="stop-color:#739CB0"/>
			<stop  offset="1" style="stop-color:#476B96"/>
		</linearGradient>
		<polygon class="st63" points="202.9,509.8 202.3,510.9 199.8,506.6 201.7,507.7 202.9,509.8 		"/>
		
			<linearGradient id="SVGID_61_" gradientUnits="userSpaceOnUse" x1="92.3701" y1="510.9099" x2="92.3701" y2="509.1085" gradientTransform="matrix(-1 0 0 1 301.9355 0)">
			<stop  offset="0" style="stop-color:#99B2BF"/>
			<stop  offset="1" style="stop-color:#9BBD67"/>
		</linearGradient>
		<polygon class="st64" points="202.3,510.9 202.9,509.8 216.2,509.1 216.8,510.1 202.3,510.9 		"/>
		
			<linearGradient id="SVGID_62_" gradientUnits="userSpaceOnUse" x1="92.5908" y1="507.663" x2="92.5908" y2="506.5914" gradientTransform="matrix(-1 0 0 1 301.9355 0)">
			<stop  offset="0" style="stop-color:#94885C"/>
			<stop  offset="1" style="stop-color:#2C507A"/>
		</linearGradient>
		<polygon class="st65" points="217,507.7 201.7,507.7 199.8,506.6 218.9,506.6 217,507.7 		"/>
	</g>
	<path class="st66" d="M66.9,4.3L57.2,21c-0.4,0.7-0.4,1.5,0,2.1c0.4,0.7,1.1,1.1,1.9,1.1h131.7c0.8,0,1.5-0.4,1.9-1.1
		c0.4-0.7,0.4-1.5,0-2.1l-9.7-16.7c-0.3-0.6-0.8-1.1-1.4-1.4c-0.6-0.3-1.2-0.5-1.9-0.5H70.1c-0.7,0-1.3,0.2-1.9,0.5
		C67.7,3.3,67.2,3.7,66.9,4.3L66.9,4.3z"/>
	<path class="st3" d="M59.1,22.1L59.1,22.1h131.7l0,0L181,5.4c-0.3-0.5-0.8-0.8-1.4-0.8H70.1c-0.3,0-0.6,0.1-0.8,0.2
		c-0.2,0.1-0.4,0.3-0.6,0.6L59.1,22.1L59.1,22.1z"/>
	<linearGradient id="SVGID_63_" gradientUnits="userSpaceOnUse" x1="124.8935" y1="7.7797" x2="124.8935" y2="5.1473">
		<stop  offset="0" style="stop-color:#000000"/>
		<stop  offset="1" style="stop-color:#1068FF"/>
	</linearGradient>
	<path class="st67" d="M181.8,7.8l-1.2-2.1c-0.2-0.4-0.5-0.5-0.9-0.5H70.1c-0.2,0-0.4,0-0.5,0.1c-0.2,0.1-0.3,0.2-0.4,0.4L68,7.8
		H181.8L181.8,7.8z"/>
	<linearGradient id="SVGID_64_" gradientUnits="userSpaceOnUse" x1="124.8946" y1="21.5274" x2="124.8946" y2="19.6397">
		<stop  offset="0" style="stop-color:#1068FF"/>
		<stop  offset="1" style="stop-color:#000000"/>
	</linearGradient>
	<path class="st68" d="M60,21.5h129.8C188.3,19,61.4,19,60,21.5L60,21.5z"/>
	<linearGradient id="SVGID_65_" gradientUnits="userSpaceOnUse" x1="59.9053" y1="13.3551" x2="85.4839" y2="13.3551">
		<stop  offset="1.100000e-07" style="stop-color:#0098CF"/>
		<stop  offset="1" style="stop-color:#000000"/>
	</linearGradient>
	<path class="st69" d="M68.3,6.1l17.1,0.1L68.2,6.3L68.3,6.1L68.3,6.1z M67.4,7.7l18.1,0.1L67.3,7.9L67.4,7.7L67.4,7.7z M66.5,9.3
		l19,0.1L66.4,9.5L66.5,9.3L66.5,9.3z M65.6,10.9L85.5,11l-20,0.1L65.6,10.9L65.6,10.9z M64.7,12.4l20.8,0.1l-20.9,0.1L64.7,12.4
		L64.7,12.4z M63.7,14l21.8,0.1l-21.9,0.1L63.7,14L63.7,14z M62.8,15.6l22.7,0.1l-22.8,0.1L62.8,15.6L62.8,15.6z M61.9,17.2
		l23.6,0.1l-23.7,0.1L61.9,17.2L61.9,17.2z M61,18.8l24.5,0.1L60.8,19L61,18.8L61,18.8z M60,20.4l25.4,0.1l-25.6,0.1L60,20.4
		L60,20.4z"/>
	<linearGradient id="SVGID_66_" gradientUnits="userSpaceOnUse" x1="164.3053" y1="13.3551" x2="189.884" y2="13.3551">
		<stop  offset="1.200000e-07" style="stop-color:#000000"/>
		<stop  offset="1" style="stop-color:#0098CF"/>
	</linearGradient>
	<path class="st70" d="M181.5,6.1l-17.1,0.1l17.2,0.1L181.5,6.1L181.5,6.1z M182.4,7.7l-18.1,0.1l18.2,0.1L182.4,7.7L182.4,7.7z
		 M183.3,9.3l-19,0.1l19.1,0.1L183.3,9.3L183.3,9.3z M184.2,10.9L164.3,11l20,0.1L184.2,10.9L184.2,10.9z M185.1,12.4l-20.8,0.1
		l20.9,0.1L185.1,12.4L185.1,12.4z M186.1,14l-21.8,0.1l21.9,0.1L186.1,14L186.1,14z M187,15.6l-22.7,0.1l22.8,0.1L187,15.6
		L187,15.6z M187.9,17.2l-23.6,0.1l23.7,0.1L187.9,17.2L187.9,17.2z M188.8,18.8l-24.5,0.1L189,19L188.8,18.8L188.8,18.8z
		 M189.7,20.4l-25.4,0.1l25.6,0.1L189.7,20.4L189.7,20.4z"/>
	<linearGradient id="SVGID_67_" gradientUnits="userSpaceOnUse" x1="124.8491" y1="24.2076" x2="124.8491" y2="22.0621">
		<stop  offset="0" style="stop-color:#ADC9D9"/>
		<stop  offset="1" style="stop-color:#4597ED"/>
	</linearGradient>
	<path class="st71" d="M192.5,23.3l-1.8-1.2H59.1l-1.9,1.1c0.4,0.7,1.1,1.1,1.9,1.1h131.7C191.5,24.2,192.1,23.9,192.5,23.3
		L192.5,23.3z"/>
	<linearGradient id="SVGID_68_" gradientUnits="userSpaceOnUse" x1="186.673" y1="23.2702" x2="186.673" y2="2.9553">
		<stop  offset="0" style="stop-color:#739CB0"/>
		<stop  offset="1" style="stop-color:#476B96"/>
	</linearGradient>
	<path class="st72" d="M190.7,22.1l1.8,1.2c0,0,0.1-0.1,0.1-0.1c0.4-0.7,0.4-1.5,0-2.1l-9.7-16.7c-0.3-0.6-0.8-1.1-1.4-1.4l-1.1,1.9
		c0.2,0.1,0.4,0.3,0.6,0.6l0.4,0.7l0.1,0.2l0.8,1.4l0.1,0.2l0.8,1.4l0.1,0.2l0.8,1.4l0.1,0.2l0.8,1.4l0.1,0.2l0.8,1.4l0.1,0.2
		l0.8,1.4l0.1,0.2l0.8,1.4l0.1,0.2l0.8,1.4L189,19l0.8,1.4l0.1,0.2L190.7,22.1L190.7,22.1z"/>
	<linearGradient id="SVGID_69_" gradientUnits="userSpaceOnUse" x1="124.8935" y1="4.8123" x2="124.8935" y2="2.4694">
		<stop  offset="0" style="stop-color:#4680B0"/>
		<stop  offset="1" style="stop-color:#2C507A"/>
	</linearGradient>
	<path class="st73" d="M70.1,4.6h109.5c0.3,0,0.6,0.1,0.8,0.2l1.1-1.9c-0.6-0.3-1.2-0.5-1.9-0.5H70.1c-0.7,0-1.3,0.2-1.9,0.5
		l1.1,1.9C69.6,4.7,69.8,4.6,70.1,4.6L70.1,4.6z"/>
	<linearGradient id="SVGID_70_" gradientUnits="userSpaceOnUse" x1="63.1149" y1="23.1304" x2="63.1149" y2="2.9553">
		<stop  offset="0" style="stop-color:#739CB0"/>
		<stop  offset="1" style="stop-color:#476B96"/>
	</linearGradient>
	<path class="st74" d="M67.4,7.7l0.8-1.4l0.1-0.2l0.4-0.7c0.2-0.3,0.3-0.5,0.6-0.6L68.3,3c-0.6,0.3-1,0.8-1.4,1.4L57.2,21
		c-0.4,0.7-0.4,1.5,0,2.1l1.9-1.1l0.9-1.5l0.1-0.2l0.8-1.4l0.1-0.2l0.8-1.4l0.1-0.2l0.8-1.4l0.1-0.2l0.8-1.4l0.1-0.2l0.8-1.4
		l0.1-0.2l0.8-1.4l0.1-0.2l0.8-1.4l0.1-0.2l0.8-1.4L67.4,7.7L67.4,7.7z"/>
	
		<radialGradient id="SVGID_71_" cx="154.6291" cy="-9360.6641" r="80.6237" gradientTransform="matrix(0.815 0 0 2.280000e-02 -1.0227 218.5698)" gradientUnits="userSpaceOnUse">
		<stop  offset="0" style="stop-color:#00EAFF"/>
		<stop  offset="0.1286" style="stop-color:#00BDCE"/>
		<stop  offset="0.307" style="stop-color:#008490"/>
		<stop  offset="0.4782" style="stop-color:#00555D"/>
		<stop  offset="0.6376" style="stop-color:#003034"/>
		<stop  offset="0.7825" style="stop-color:#001618"/>
		<stop  offset="0.908" style="stop-color:#000606"/>
		<stop  offset="1" style="stop-color:#000000"/>
	</radialGradient>
	<path class="st75" d="M190.7,5.1c0,1-29.4,1.8-65.7,1.8C88.7,7,59.3,6.2,59.3,5.1c0-1,29.4-1.8,65.7-1.8
		C161.3,3.3,190.7,4.1,190.7,5.1z"/>
	
		<radialGradient id="SVGID_72_" cx="515.9238" cy="124.2993" r="16.2189" gradientTransform="matrix(0.5104 0 0 1.4427 -29.1685 -125.5469)" gradientUnits="userSpaceOnUse">
		<stop  offset="0" style="stop-color:#E0B700"/>
		<stop  offset="5.151123e-02" style="stop-color:#C09D00"/>
		<stop  offset="0.1335" style="stop-color:#937800"/>
		<stop  offset="0.2213" style="stop-color:#6C5800"/>
		<stop  offset="0.3139" style="stop-color:#4A3D00"/>
		<stop  offset="0.4125" style="stop-color:#2F2600"/>
		<stop  offset="0.5192" style="stop-color:#1A1500"/>
		<stop  offset="0.6384" style="stop-color:#0B0900"/>
		<stop  offset="0.7797" style="stop-color:#030200"/>
		<stop  offset="1" style="stop-color:#000000"/>
	</radialGradient>
	<path class="st76" d="M242.4,53.8c0,12.9-3.7,23.4-8.3,23.4c-4.6,0-8.3-10.5-8.3-23.4s3.7-23.4,8.3-23.4
		C238.7,30.4,242.4,40.9,242.4,53.8z"/>
	
		<radialGradient id="SVGID_73_" cx="360.0132" cy="-3863.5496" r="99.7701" gradientTransform="matrix(0.2522 0 0 4.380000e-02 -25.4999 208.7734)" gradientUnits="userSpaceOnUse">
		<stop  offset="0" style="stop-color:#CCCC14"/>
		<stop  offset="0.2009" style="stop-color:#90900E"/>
		<stop  offset="0.3983" style="stop-color:#5C5C09"/>
		<stop  offset="0.582" style="stop-color:#343405"/>
		<stop  offset="0.7491" style="stop-color:#181802"/>
		<stop  offset="0.8939" style="stop-color:#060601"/>
		<stop  offset="1" style="stop-color:#000000"/>
	</radialGradient>
	<path class="st77" d="M90.5,39.6c0,2.4-11.3,4.4-25.2,4.4c-13.9,0-25.2-2-25.2-4.4c0-2.4,11.3-4.4,25.2-4.4
		C79.2,35.2,90.5,37.1,90.5,39.6z"/>
	
		<radialGradient id="SVGID_74_" cx="1118.1539" cy="-3863.5496" r="99.7676" gradientTransform="matrix(0.1662 0 0 4.380000e-02 33.9628 208.7734)" gradientUnits="userSpaceOnUse">
		<stop  offset="0" style="stop-color:#CCCC14"/>
		<stop  offset="0.2009" style="stop-color:#90900E"/>
		<stop  offset="0.3983" style="stop-color:#5C5C09"/>
		<stop  offset="0.582" style="stop-color:#343405"/>
		<stop  offset="0.7491" style="stop-color:#181802"/>
		<stop  offset="0.8939" style="stop-color:#060601"/>
		<stop  offset="1" style="stop-color:#000000"/>
	</radialGradient>
	<path class="st78" d="M236.4,39.6c0,2.4-7.4,4.4-16.6,4.4c-9.2,0-16.6-2-16.6-4.4c0-2.4,7.4-4.4,16.6-4.4
		C229,35.2,236.4,37.1,236.4,39.6z"/>
	
		<radialGradient id="SVGID_75_" cx="224.9233" cy="-1447.1719" r="99.7356" gradientTransform="matrix(0 0.202 -3.030000e-02 0 190.3064 134.6465)" gradientUnits="userSpaceOnUse">
		<stop  offset="0" style="stop-color:#CCCC14"/>
		<stop  offset="0.2009" style="stop-color:#90900E"/>
		<stop  offset="0.3983" style="stop-color:#5C5C09"/>
		<stop  offset="0.582" style="stop-color:#343405"/>
		<stop  offset="0.7491" style="stop-color:#181802"/>
		<stop  offset="0.8939" style="stop-color:#060601"/>
		<stop  offset="1" style="stop-color:#000000"/>
	</radialGradient>
	<path class="st79" d="M234.2,200.2c-1.7,0-3-9-3-20.2c0-11.1,1.4-20.2,3-20.2c1.7,0,3,9,3,20.2
		C237.2,191.2,235.8,200.2,234.2,200.2z"/>
	<text transform="matrix(1 0 0 1 96.0464 18.5936)" class="st80 st81 st82">RESULT</text>
</g>
</svg>
