<?xml version="1.0" encoding="utf-8"?>
<!-- Generator: Adobe Illustrator 22.1.0, SVG Export Plug-In . SVG Version: 6.00 Build 0)  -->
<svg version="1.1" id="Layer_1" xmlns="http://www.w3.org/2000/svg" xmlns:xlink="http://www.w3.org/1999/xlink" x="0px" y="0px"
	 viewBox="0 0 340 170" style="enable-background:new 0 0 340 170;" xml:space="preserve">
<style type="text/css">
	.st0{fill-rule:evenodd;clip-rule:evenodd;fill:url(#SVGID_1_);}
	.st1{opacity:0.8;fill-rule:evenodd;clip-rule:evenodd;fill:url(#SVGID_2_);}
	.st2{opacity:0.8;fill-rule:evenodd;clip-rule:evenodd;fill:url(#SVGID_3_);}
	.st3{opacity:0.8;fill-rule:evenodd;clip-rule:evenodd;fill:url(#SVGID_4_);}
	.st4{fill-rule:evenodd;clip-rule:evenodd;fill:url(#SVGID_5_);}
	.st5{fill-rule:evenodd;clip-rule:evenodd;fill:url(#SVGID_6_);}
	.st6{fill-rule:evenodd;clip-rule:evenodd;fill:#ABFFED;}
	.st7{opacity:0.5;fill-rule:evenodd;clip-rule:evenodd;fill:url(#SVGID_7_);}
	.st8{opacity:0.5;fill-rule:evenodd;clip-rule:evenodd;fill:url(#SVGID_8_);}
	.st9{fill-rule:evenodd;clip-rule:evenodd;fill:#66E5FF;}
	.st10{opacity:0.5;fill-rule:evenodd;clip-rule:evenodd;fill:url(#SVGID_9_);}
	.st11{fill-rule:evenodd;clip-rule:evenodd;fill:url(#SVGID_10_);}
	.st12{opacity:0.5;fill-rule:evenodd;clip-rule:evenodd;fill:url(#SVGID_11_);}
	.st13{fill-rule:evenodd;clip-rule:evenodd;fill:url(#SVGID_12_);}
	.st14{opacity:0.5;fill-rule:evenodd;clip-rule:evenodd;fill:url(#SVGID_13_);}
	.st15{opacity:0.5;fill-rule:evenodd;clip-rule:evenodd;fill:url(#SVGID_14_);}
	.st16{opacity:0.5;fill-rule:evenodd;clip-rule:evenodd;fill:url(#SVGID_15_);}
	.st17{opacity:0.5;fill-rule:evenodd;clip-rule:evenodd;fill:url(#SVGID_16_);}
	.st18{opacity:0.5;fill-rule:evenodd;clip-rule:evenodd;fill:url(#SVGID_17_);}
	.st19{opacity:0.5;fill-rule:evenodd;clip-rule:evenodd;fill:url(#SVGID_18_);}
	.st20{opacity:0.5;fill-rule:evenodd;clip-rule:evenodd;fill:url(#SVGID_19_);}
	.st21{opacity:0.5;fill-rule:evenodd;clip-rule:evenodd;fill:url(#SVGID_20_);}
	.st22{opacity:0.5;fill-rule:evenodd;clip-rule:evenodd;fill:url(#SVGID_21_);}
	.st23{opacity:0.5;fill-rule:evenodd;clip-rule:evenodd;fill:url(#SVGID_22_);}
	.st24{opacity:0.3;fill-rule:evenodd;clip-rule:evenodd;fill:#C57539;}
	.st25{opacity:0.3;fill-rule:evenodd;clip-rule:evenodd;fill:url(#SVGID_23_);}
	.st26{opacity:0.5;fill-rule:evenodd;clip-rule:evenodd;fill:url(#SVGID_24_);}
	.st27{opacity:0.2;fill-rule:evenodd;clip-rule:evenodd;fill:#95552F;}
	.st28{opacity:0.5;fill-rule:evenodd;clip-rule:evenodd;fill:url(#SVGID_25_);}
	.st29{opacity:0.2;fill-rule:evenodd;clip-rule:evenodd;fill:#BF752F;}
	.st30{opacity:0.5;fill-rule:evenodd;clip-rule:evenodd;fill:url(#SVGID_26_);}
	.st31{opacity:0.5;fill-rule:evenodd;clip-rule:evenodd;fill:url(#SVGID_27_);}
	.st32{opacity:0.95;fill-rule:evenodd;clip-rule:evenodd;fill:#290E18;}
	.st33{opacity:0.4;fill-rule:evenodd;clip-rule:evenodd;fill:#BF752F;}
	.st34{opacity:0.5;fill-rule:evenodd;clip-rule:evenodd;fill:url(#SVGID_28_);}
	.st35{fill-rule:evenodd;clip-rule:evenodd;fill:#290E18;}
	.st36{fill-rule:evenodd;clip-rule:evenodd;fill:#380E18;}
	.st37{fill-rule:evenodd;clip-rule:evenodd;fill:#FC8395;}
	.st38{fill-rule:evenodd;clip-rule:evenodd;fill:#77342D;}
	.st39{fill-rule:evenodd;clip-rule:evenodd;fill:#81342D;}
	.st40{fill-rule:evenodd;clip-rule:evenodd;fill:url(#SVGID_29_);}
	.st41{opacity:0.5;fill-rule:evenodd;clip-rule:evenodd;fill:url(#SVGID_30_);}
	.st42{opacity:0.8;fill-rule:evenodd;clip-rule:evenodd;fill:url(#SVGID_31_);}
	.st43{opacity:0.8;fill-rule:evenodd;clip-rule:evenodd;fill:url(#SVGID_32_);}
	.st44{fill-rule:evenodd;clip-rule:evenodd;fill:#ABA7B5;}
	.st45{fill-rule:evenodd;clip-rule:evenodd;fill:#8B6F8B;}
	.st46{opacity:0.2;fill-rule:evenodd;clip-rule:evenodd;fill:url(#SVGID_33_);}
	.st47{opacity:0.5;fill-rule:evenodd;clip-rule:evenodd;fill:url(#SVGID_34_);}
	.st48{opacity:0.2;fill-rule:evenodd;clip-rule:evenodd;fill:#97542F;}
	.st49{opacity:0.2;fill-rule:evenodd;clip-rule:evenodd;fill:url(#SVGID_35_);}
	.st50{opacity:0.2;fill-rule:evenodd;clip-rule:evenodd;fill:#D9772F;}
	.st51{opacity:0.2;fill-rule:evenodd;clip-rule:evenodd;fill:url(#SVGID_36_);}
	.st52{opacity:0.6;fill-rule:evenodd;clip-rule:evenodd;fill:url(#SVGID_37_);}
	.st53{fill-rule:evenodd;clip-rule:evenodd;fill:url(#SVGID_38_);}
	.st54{fill-rule:evenodd;clip-rule:evenodd;fill:url(#SVGID_39_);}
	.st55{fill-rule:evenodd;clip-rule:evenodd;fill:url(#SVGID_40_);}
	.st56{opacity:0.8;fill-rule:evenodd;clip-rule:evenodd;fill:url(#SVGID_41_);}
	.st57{opacity:0.8;fill-rule:evenodd;clip-rule:evenodd;fill:url(#SVGID_42_);}
	.st58{opacity:0.95;fill-rule:evenodd;clip-rule:evenodd;fill:#FFFFFF;}
	.st59{opacity:0.8;fill-rule:evenodd;clip-rule:evenodd;fill:url(#SVGID_43_);}
	.st60{opacity:0.5;fill-rule:evenodd;clip-rule:evenodd;fill:url(#SVGID_44_);}
	.st61{opacity:0.5;fill-rule:evenodd;clip-rule:evenodd;fill:url(#SVGID_45_);}
</style>
<g>
	<g>
		<linearGradient id="SVGID_1_" gradientUnits="userSpaceOnUse" x1="63.1797" y1="139.8351" x2="63.1797" y2="105.8839">
			<stop  offset="0" style="stop-color:#8E4098"/>
			<stop  offset="1" style="stop-color:#721332"/>
		</linearGradient>
		<polygon class="st0" points="51,105.9 40.1,127.7 56.8,136.6 72.1,139.8 80.9,138.4 86.2,116.5 74.1,108.4 		"/>
		<linearGradient id="SVGID_2_" gradientUnits="userSpaceOnUse" x1="40.1184" y1="133.7501" x2="80.8601" y2="133.7501">
			<stop  offset="0" style="stop-color:#C77CBD"/>
			<stop  offset="1" style="stop-color:#974577"/>
		</linearGradient>
		<path class="st1" d="M40.1,127.7h11.1c0,0,22.2,4.7,29.7,10.8l-8.7,1.4l-15.4-3.2L40.1,127.7z"/>
		<linearGradient id="SVGID_3_" gradientUnits="userSpaceOnUse" x1="45.884" y1="133.7491" x2="77.0163" y2="133.7491">
			<stop  offset="0" style="stop-color:#C77CBD"/>
			<stop  offset="1" style="stop-color:#974577"/>
		</linearGradient>
		<path class="st2" d="M45.9,129.2l11,6.4l15.3,2.8l4.9-0.9C77,137.4,60,129.6,45.9,129.2z"/>
		<linearGradient id="SVGID_4_" gradientUnits="userSpaceOnUse" x1="46.1057" y1="120.1954" x2="84.6833" y2="120.1954">
			<stop  offset="0" style="stop-color:#C77CBD"/>
			<stop  offset="1" style="stop-color:#974577"/>
		</linearGradient>
		<path class="st3" d="M46.1,115.7c0,0,4-2.1,10.4-1.1c6.4,1,25,21.3,25,21.3l3.2-13l-21.5-18.3h-12L46.1,115.7z"/>
		<linearGradient id="SVGID_5_" gradientUnits="userSpaceOnUse" x1="215.657" y1="123.6925" x2="236.7434" y2="123.6925">
			<stop  offset="0" style="stop-color:#721332"/>
			<stop  offset="1" style="stop-color:#AC2752"/>
		</linearGradient>
		<path class="st4" d="M226,110.9l8.9,1.1l1.3,1.8c0,0,1.5,10.4-0.7,17.1l-7.1,5.5l-12.7-6L226,110.9z"/>
		<g>
			<g>
				<radialGradient id="SVGID_6_" cx="185.7114" cy="66.3255" r="41.3489" gradientUnits="userSpaceOnUse">
					<stop  offset="0" style="stop-color:#55DBD6"/>
					<stop  offset="1" style="stop-color:#0072CD"/>
				</radialGradient>
				<path class="st5" d="M165.2,77.5l8.5-36.1c0,0,5.5-10.8,6.9-12.4c1.4-1.6,20.3-13.3,22.3-13.6c2.1-0.4,7.2,0.8,7.7,1.2
					c0.5,0.4,2.7,23.6,2.7,24.8c0,1.1-6,36.2-6,36.2L165.2,77.5z"/>
				<path class="st6" d="M180.5,29c0,0-2.7,7.2-2.7,9c0,1.9,2.9,7.1,3.8,7.6c0.9,0.5,14.4,1.9,18.5,0.9c4.1-1,9.5-4.8,10.1-6.2
					c0.5-1.4,0.3-22.4,0.4-23.6c0.1-1.1-7.7-1.2-7.7-1.2S184.7,25.5,180.5,29z"/>
				
					<radialGradient id="SVGID_7_" cx="195.9606" cy="-2562.5127" r="20.0718" gradientTransform="matrix(1 0 0 1.4679 0 3792.7974)" gradientUnits="userSpaceOnUse">
					<stop  offset="0" style="stop-color:#000000"/>
					<stop  offset="1" style="stop-color:#FFFFFF"/>
				</radialGradient>
				<path class="st7" d="M180.5,29c0,0-2.7,7.2-2.7,9c0,1.9,2.9,7.1,3.8,7.6c0.9,0.5,14.4,1.9,18.5,0.9c4.1-1,9.5-4.8,10.1-6.2
					c0.5-1.4,0.3-22.4,0.4-23.6c0.1-1.1-7.7-1.2-7.7-1.2S184.7,25.5,180.5,29z"/>
				<path class="st6" d="M173.6,41.4l4.2-2.7c0,0,3.3,4.7,3.2,6.3c-0.1,1.6-12,15.9-12,15.9L173.6,41.4z"/>
				<linearGradient id="SVGID_8_" gradientUnits="userSpaceOnUse" x1="196.1453" y1="58.8839" x2="213.2258" y2="58.8839">
					<stop  offset="0" style="stop-color:#C77CBD"/>
					<stop  offset="1" style="stop-color:#974577"/>
				</linearGradient>
				<path class="st8" d="M200.2,46.4c-1.2,2-4,31.1-4,31.1h11.1l6-36.2l-3-1.2C210.2,40.2,206.5,44.6,200.2,46.4z"/>
				<path class="st9" d="M193.3,46.8l5.3,7.9c3.4-5,6-10.1,6-10.1S200,46.8,193.3,46.8z"/>
				
					<radialGradient id="SVGID_9_" cx="183.6918" cy="-2541.7424" r="20.4778" gradientTransform="matrix(1 0 0 1.4679 0 3792.7974)" gradientUnits="userSpaceOnUse">
					<stop  offset="0.5838" style="stop-color:#000000"/>
					<stop  offset="1" style="stop-color:#FFFFFF"/>
				</radialGradient>
				<polygon class="st10" points="196.1,77.6 198.7,54.7 193.3,46.8 181.7,45.6 169.1,60.9 165.2,77.5 				"/>
				<path class="st6" d="M210.2,40.2c0,0-14.9-16.5-20.5-17.4l1.7-1c0,0,16.3,14.7,19,17.8L210.2,40.2z"/>
				<path class="st6" d="M202.9,15.4l-1.6,14.4l-1.3-0.1l2.2,2c0,0-0.6-9.9,1.5-16.4L202.9,15.4z"/>
				<path class="st6" d="M197.2,27.1c0,0,3.5-0.4,4.7-0.9l-0.3,0.6c0,0-2.8-0.2-4.1,0.6L197.2,27.1z"/>
				<path class="st6" d="M206.2,35.9l-1.5,8.7l0.7-0.4c0,0-0.4-4.3,1.2-7.7L206.2,35.9z"/>
			</g>
			<g>
				<radialGradient id="SVGID_10_" cx="201.4755" cy="75.6783" r="14.3835" gradientUnits="userSpaceOnUse">
					<stop  offset="0" style="stop-color:#55DBD6"/>
					<stop  offset="1" style="stop-color:#0072CD"/>
				</radialGradient>
				<path class="st11" d="M182.5,77.6l6.2-10.4l2.7-2.1c0,0,18.6-3.1,20.3-2.9c1.7,0.2,8.5,15.4,8.5,15.4H182.5z"/>
				<path class="st6" d="M191.4,65c-1.3,0.4,3.7,5.6,4.8,6.2c1.1,0.6,11.3-2.2,13-4c1.6-1.8,2.5-5.1,2.5-5.1S198.4,63.7,191.4,65z"
					/>
				<path class="st6" d="M196.1,71.3l-1.9,6.3h-11.8l6.2-10.4l2.7-2.1C191.4,65,194.8,68,196.1,71.3z"/>
				<linearGradient id="SVGID_11_" gradientUnits="userSpaceOnUse" x1="208.7497" y1="69.8533" x2="220.1174" y2="69.8533">
					<stop  offset="0" style="stop-color:#C77CBD"/>
					<stop  offset="1" style="stop-color:#974577"/>
				</linearGradient>
				<path class="st12" d="M208.7,77.6l0.4-10.3c0,0,1.5-1.4,2.5-5.1c0,0,0.9-0.4,8.5,15.4H208.7z"/>
			</g>
			<linearGradient id="SVGID_12_" gradientUnits="userSpaceOnUse" x1="128.2637" y1="154.6944" x2="128.2637" y2="77.5694">
				<stop  offset="0" style="stop-color:#65337C"/>
				<stop  offset="0.2838" style="stop-color:#752E32"/>
				<stop  offset="1" style="stop-color:#4A2232"/>
			</linearGradient>
			<polygon class="st13" points="252.8,77.6 246.1,92.9 231.8,100.1 206.2,148.3 177.2,154.7 170,147 165.4,132.4 145.2,126.8 
				134.9,132.9 68.8,122.2 65.2,119.1 62.7,110.1 43.2,103.7 31.4,111.1 14.5,108.1 3.7,77.6 			"/>
			<linearGradient id="SVGID_13_" gradientUnits="userSpaceOnUse" x1="198.8562" y1="88.8438" x2="246.1316" y2="88.8438">
				<stop  offset="0" style="stop-color:#C77CBD"/>
				<stop  offset="1" style="stop-color:#974577"/>
			</linearGradient>
			<polygon class="st14" points="246.1,92.9 208.1,90.5 205.3,86.2 202.4,77.6 198.9,77.6 208.3,92 227.7,99.5 231.8,100.1 			"/>
			<linearGradient id="SVGID_14_" gradientUnits="userSpaceOnUse" x1="65.2297" y1="121.5782" x2="134.928" y2="121.5782">
				<stop  offset="0" style="stop-color:#C77CBD"/>
				<stop  offset="1" style="stop-color:#974577"/>
			</linearGradient>
			<polygon class="st15" points="108.3,116.1 134.9,132.9 68.8,122.2 65.2,119.1 78.7,110.2 97.3,112.9 			"/>
			<linearGradient id="SVGID_15_" gradientUnits="userSpaceOnUse" x1="145.175" y1="116.1319" x2="206.156" y2="116.1319">
				<stop  offset="0" style="stop-color:#C77CBD"/>
				<stop  offset="1" style="stop-color:#974577"/>
			</linearGradient>
			<polygon class="st16" points="206.2,148.3 177.2,154.7 170,147 165.4,132.4 145.2,126.8 158.4,120.8 165.5,123.7 168.4,111 
				175.5,103.9 185.5,77.6 186.9,133.1 196.1,135.8 			"/>
			<linearGradient id="SVGID_16_" gradientUnits="userSpaceOnUse" x1="14.4954" y1="94.3536" x2="43.1936" y2="94.3536">
				<stop  offset="0" style="stop-color:#C77CBD"/>
				<stop  offset="1" style="stop-color:#974577"/>
			</linearGradient>
			<polygon class="st17" points="43.2,103.7 37.2,101.3 29.9,77.6 22.6,100.1 22.6,106 14.5,108.1 31.4,111.1 			"/>
			<linearGradient id="SVGID_17_" gradientUnits="userSpaceOnUse" x1="37.1721" y1="102.8731" x2="62.6672" y2="102.8731">
				<stop  offset="0" style="stop-color:#C77CBD"/>
				<stop  offset="1" style="stop-color:#974577"/>
			</linearGradient>
			<polygon class="st18" points="62.7,110.1 61.3,103.5 53.7,95.6 43.2,98.3 37.2,101.3 			"/>
			<linearGradient id="SVGID_18_" gradientUnits="userSpaceOnUse" x1="170.0271" y1="143.9014" x2="206.156" y2="143.9014">
				<stop  offset="0" style="stop-color:#C77CBD"/>
				<stop  offset="1" style="stop-color:#974577"/>
			</linearGradient>
			<polygon class="st19" points="186.9,133.1 170,147 177.2,154.7 206.2,148.3 196.1,135.8 			"/>
			<linearGradient id="SVGID_19_" gradientUnits="userSpaceOnUse" x1="145.175" y1="121.3204" x2="169.197" y2="121.3204">
				<stop  offset="0" style="stop-color:#C77CBD"/>
				<stop  offset="1" style="stop-color:#974577"/>
			</linearGradient>
			<polygon class="st20" points="145.2,126.8 158.4,120.8 154.3,123.8 156.7,125.3 164.7,126.8 165.5,123.7 168.4,111 169.2,110.2 
				166.6,121.6 166,126.8 165.4,132.4 			"/>
			<linearGradient id="SVGID_20_" gradientUnits="userSpaceOnUse" x1="158.4348" y1="116.0391" x2="168.428" y2="116.0391">
				<stop  offset="0" style="stop-color:#C77CBD"/>
				<stop  offset="1" style="stop-color:#974577"/>
			</linearGradient>
			<polygon class="st21" points="159.1,121.1 161.5,116.5 168.4,111 160.3,116.9 158.4,120.8 			"/>
			<linearGradient id="SVGID_21_" gradientUnits="userSpaceOnUse" x1="14.4954" y1="108.3829" x2="33.0354" y2="108.3829">
				<stop  offset="0" style="stop-color:#C77CBD"/>
				<stop  offset="1" style="stop-color:#974577"/>
			</linearGradient>
			<polygon class="st22" points="33,110.1 28.8,105.6 22.6,106 14.5,108.1 31.4,111.1 			"/>
			<linearGradient id="SVGID_22_" gradientUnits="userSpaceOnUse" x1="37.1721" y1="98.5821" x2="62.6672" y2="98.5821">
				<stop  offset="0" style="stop-color:#C77CBD"/>
				<stop  offset="1" style="stop-color:#974577"/>
			</linearGradient>
			<polygon class="st23" points="53.7,95.6 58.2,87.1 62.7,100.1 61.3,103.5 62.7,110.1 43.2,103.7 37.2,100.9 43.2,98.3 			"/>
			<polygon class="st24" points="78.7,110.2 86.2,95.6 80.3,77.6 58.1,77.6 58.2,87.1 62.7,100.1 61.3,103.5 65.2,119.1 			"/>
			<linearGradient id="SVGID_23_" gradientUnits="userSpaceOnUse" x1="196.1013" y1="119.4005" x2="246.1316" y2="119.4005">
				<stop  offset="0" style="stop-color:#C77CBD"/>
				<stop  offset="1" style="stop-color:#974577"/>
			</linearGradient>
			<polygon class="st25" points="196.1,135.8 215.9,125.4 227.7,99.5 208.3,92 208.1,90.5 246.1,92.9 231.8,100.1 206.2,148.3 			
				"/>
			<linearGradient id="SVGID_24_" gradientUnits="userSpaceOnUse" x1="208.3367" y1="96.0831" x2="233.7038" y2="96.0831">
				<stop  offset="0" style="stop-color:#C77CBD"/>
				<stop  offset="1" style="stop-color:#974577"/>
			</linearGradient>
			<path class="st26" d="M231.8,100.1l-4.1-0.6L208.3,92c0,0,18.3,6.9,25.4,7L231.8,100.1z"/>
			<polygon class="st27" points="97.3,112.9 89.8,98.6 86.2,95.6 78.7,110.2 			"/>
			<linearGradient id="SVGID_25_" gradientUnits="userSpaceOnUse" x1="68.8196" y1="118.4073" x2="175.5388" y2="118.4073">
				<stop  offset="0" style="stop-color:#C77CBD"/>
				<stop  offset="1" style="stop-color:#974577"/>
			</linearGradient>
			<polygon class="st28" points="175.5,103.9 139.4,104.3 131.1,111.1 108.3,116.1 97.3,112.9 78.7,110.2 68.8,122.2 134.9,132.9 
				145.2,126.8 158.4,120.8 160.3,116.9 168.4,111 			"/>
			<polygon class="st29" points="22.6,106 22.6,100.1 6.3,85 14.5,108.1 			"/>
			<linearGradient id="SVGID_26_" gradientUnits="userSpaceOnUse" x1="165.5456" y1="100.6309" x2="186.2703" y2="100.6309">
				<stop  offset="0" style="stop-color:#C77CBD"/>
				<stop  offset="1" style="stop-color:#974577"/>
			</linearGradient>
			<polygon class="st30" points="165.5,123.7 166.6,121.6 186.3,108.1 185.5,77.6 175.5,103.9 168.4,111 			"/>
			<linearGradient id="SVGID_27_" gradientUnits="userSpaceOnUse" x1="139.4094" y1="110.4005" x2="168.428" y2="110.4005">
				<stop  offset="0" style="stop-color:#C77CBD"/>
				<stop  offset="1" style="stop-color:#974577"/>
			</linearGradient>
			<polygon class="st31" points="139.4,104.3 161.5,116.5 168.4,111 163.4,105.6 163.4,104.3 			"/>
			<path class="st32" d="M159.6,118.4l-1.1-2.9l-19.6-10.8l-14.4-14.2V85l-5-4.9l-1.4-2.5h1.4l0.4,2.4l5.1,5.4c0,0,0.3,4.4,0.6,5.5
				c0.3,1.1,16.4,13.4,16.4,13.4l19.6,12.2l-1.2,0.4L159.6,118.4z"/>
			<polygon class="st33" points="124.4,90.5 125.7,92.4 134.7,101.9 138.9,104.7 			"/>
			<linearGradient id="SVGID_28_" gradientUnits="userSpaceOnUse" x1="128.2634" y1="118.9522" x2="158.4348" y2="118.9522">
				<stop  offset="0" style="stop-color:#C77CBD"/>
				<stop  offset="1" style="stop-color:#974577"/>
			</linearGradient>
			<polygon class="st34" points="158.4,120.8 131.1,111.1 128.3,111.8 145.2,126.8 			"/>
			<polygon class="st35" points="198.9,77.6 208.3,92 211,93.1 208.1,90.5 205.3,86.2 202.4,77.6 			"/>
			<polygon class="st36" points="42.3,104.3 36.8,100.9 28.5,81.9 27.5,77.6 30.8,77.6 37.2,100.8 43.2,103.7 			"/>
			<path class="st37" d="M3.7,77.6h249.1c0,0-52.6,4.4-134.8,4.4C35.8,81.9,3.7,77.6,3.7,77.6z"/>
			<polygon class="st38" points="182.8,136.5 186.7,123.9 191.3,134.4 			"/>
			<polygon class="st39" points="47.4,97.3 55.3,92.5 54.5,96.5 			"/>
			<g>
				<linearGradient id="SVGID_29_" gradientUnits="userSpaceOnUse" x1="128.071" y1="77.5694" x2="128.071" y2="28.2441">
					<stop  offset="0" style="stop-color:#633D4C"/>
					<stop  offset="1" style="stop-color:#685C5B"/>
				</linearGradient>
				<path class="st40" d="M72.1,77.6c0,0,17.4-14.6,19.6-15.6c2.2-1,11.1,0,11.1,0l1.8,7.6c0,0,0.4-22.8,1.2-25.4
					c0.8-2.6,25.5-15.8,28.4-15.9c2.9-0.1,21.9,11.5,27.2,16.7c5.3,5.1,20.9,26.8,21.6,27.4c0.6,0.6,0.9,5.3,0.9,5.3H72.1z"/>
				<linearGradient id="SVGID_30_" gradientUnits="userSpaceOnUse" x1="149.2104" y1="77.5694" x2="149.2104" y2="64.7589">
					<stop  offset="0" style="stop-color:#C77CBD"/>
					<stop  offset="1" style="stop-color:#974577"/>
				</linearGradient>
				<path class="st41" d="M183.1,72.3c0,0-31.8,2.3-35.2,1.8c-3.5-0.5-27.9-9.4-27.9-9.4l-5.5,12.8H184
					C184,77.6,183.5,74.8,183.1,72.3z"/>
				<linearGradient id="SVGID_31_" gradientUnits="userSpaceOnUse" x1="96.7466" y1="77.5694" x2="96.7466" y2="61.9405">
					<stop  offset="0" style="stop-color:#C77CBD"/>
					<stop  offset="1" style="stop-color:#974577"/>
				</linearGradient>
				<path class="st42" d="M102.9,61.9c0,0-0.9,4.7-2.7,6.9c0,0-2.9,4.9-11.4,6.8v1.9H104l0.6-8L102.9,61.9z"/>
				<linearGradient id="SVGID_32_" gradientUnits="userSpaceOnUse" x1="165.6096" y1="77.5694" x2="165.6096" y2="72.3175">
					<stop  offset="0" style="stop-color:#C77CBD"/>
					<stop  offset="1" style="stop-color:#974577"/>
				</linearGradient>
				<polygon class="st43" points="147.2,77.3 147.9,74.1 183.1,72.3 184,77.6 				"/>
				<path class="st44" d="M183.1,72.3c0,0-30.5,2.2-35.2,0.8c-4.7-1.3-24.3-6.2-31.9-14.8c-7.7-8.6-10-14.6-9.4-15.1
					c0.6-0.5,23.4-14.7,27.7-15c4.4-0.3,25.4,14.7,27.2,16.7C163.4,46.9,183.1,72.3,183.1,72.3z"/>
				<path class="st44" d="M76.9,73.6c0,0,8.6,2.4,12.8,1.4c4.2-1.1,10.9-3.2,13.2-13c0,0-8.9-1-10.8,0
					C90.3,62.9,76.9,73.6,76.9,73.6z"/>
				<path class="st45" d="M117,59.5l2.4,6.4c0,0,3.5,2.5,13.5,2.5L117,59.5z"/>
				<path class="st45" d="M144,72.1l3.9,2.1l7.1-0.2C155,73.9,149.2,73.7,144,72.1z"/>
				<path class="st45" d="M85.5,75.1l3.3,0.5l4.1-1.7C92.9,74,89,75,85.5,75.1z"/>
				<linearGradient id="SVGID_33_" gradientUnits="userSpaceOnUse" x1="142.7988" y1="68.4108" x2="142.7988" y2="38.1971">
					<stop  offset="0" style="stop-color:#C77CBD"/>
					<stop  offset="1" style="stop-color:#974577"/>
				</linearGradient>
				<path class="st46" d="M121.4,61.9c0,0-4.8-13.3-3.4-17c1.3-3.7,22-8,31.5-6.3c9.5,1.6,18.2,20.9,18.4,23.4
					c0.2,2.5-11.3,7-17.7,6.4c-6.3-0.6-17.6-3.3-20-6.4c-2.4-3.1-3.7-12.2-2.1-14.6c1.6-2.4,15-3.6,17.1-3c2.1,0.6,5.8,3.7,6.6,5.5
					c0.9,1.8-0.4,7.5-1.3,8.2c-1,0.7-12-0.6-13.6-1.5c-1.6-1-1.5-7.3-0.9-8c0,0,1.7-0.4,3.2,0.4c0,0-2.2,3.7-1.9,5.8
					c0.3,2.1,10.3,2.9,12.3,2.2c1.9-0.7-0.9-9.1-4.3-10.9c-3.4-1.7-13.5-0.2-15.7,2.6c-2.2,2.8,0.5,12.4,3.4,14.5
					c2.9,2.1,14.1,4.2,21.3,3.7c7.1-0.5,9.9-4.5,10.3-6.4c0.4-1.9-4.7-18.1-15.3-20c-10.6-1.9-25.7,1.7-27.7,5.6
					c-2,3.8,4.9,18.8,4.9,18.8L121.4,61.9z"/>
				<linearGradient id="SVGID_34_" gradientUnits="userSpaceOnUse" x1="110.327" y1="53.337" x2="183.9944" y2="53.337">
					<stop  offset="0" style="stop-color:#000000"/>
					<stop  offset="1" style="stop-color:#005995"/>
				</linearGradient>
				<path class="st47" d="M184,77.6l-0.9-5.3c0,0-18.4-24.2-21.6-27.4c-3.1-3.2-24.5-15.8-24.5-15.8l-25.2,24.2l-1.5,24.2H184z"/>
			</g>
			<polygon class="st48" points="219.1,123.9 217.9,121.1 187,120.2 165.4,132.4 166.2,125.5 186.3,111.8 221,114.1 223.5,115.7 			
				"/>
			<linearGradient id="SVGID_35_" gradientUnits="userSpaceOnUse" x1="197.4944" y1="119.4015" x2="197.4944" y2="104.2823">
				<stop  offset="0" style="stop-color:#C77CBD"/>
				<stop  offset="1" style="stop-color:#974577"/>
			</linearGradient>
			<polygon class="st49" points="225.3,112.3 222.8,110.2 186.3,108.1 166.5,119.4 167.8,116.5 186.3,105.8 225.3,104.3 
				228.5,106.3 			"/>
			<polygon class="st50" points="33,87.1 56.2,90.9 61.5,95.6 83.4,87.1 120.8,93.1 126.3,93.1 127.1,93.8 114.4,93.1 84,88.8 
				61.7,97.3 55.3,92.5 33.7,88.1 			"/>
			<linearGradient id="SVGID_36_" gradientUnits="userSpaceOnUse" x1="100.6889" y1="112.9308" x2="100.6889" y2="98.7276">
				<stop  offset="0" style="stop-color:#C77CBD"/>
				<stop  offset="1" style="stop-color:#974577"/>
			</linearGradient>
			<polygon class="st51" points="131.7,98.7 91.6,101.9 82,103.9 62.5,108.4 63.7,112.9 81.3,105.4 93.5,105.6 138.9,104.7 			"/>
			<linearGradient id="SVGID_37_" gradientUnits="userSpaceOnUse" x1="128.9039" y1="154.6944" x2="128.9039" y2="77.5694">
				<stop  offset="0" style="stop-color:#3D56FF"/>
				<stop  offset="1" style="stop-color:#000000"/>
			</linearGradient>
			<polygon class="st52" points="252.8,77.6 246.1,92.9 231.8,100.1 206.2,148.3 177.2,154.7 170,147 165.4,132.4 145.2,126.8 
				134.9,132.9 68.8,122.2 65.2,119.1 62.7,110.1 43.2,103.7 31.4,111.1 14.5,108.1 5,81.2 			"/>
		</g>
		<g>
			<linearGradient id="SVGID_38_" gradientUnits="userSpaceOnUse" x1="135.8981" y1="123.6925" x2="135.8981" y2="85.3664">
				<stop  offset="0" style="stop-color:#722232"/>
				<stop  offset="1" style="stop-color:#AC2752"/>
			</linearGradient>
			<path class="st53" d="M122.2,90.9c0,0-5.8,8.6-6.2,11c-0.4,2.3,2.9,13,3.7,14.3c0.9,1.2,8,6.7,8,6.7l11.2,0.8
				c0,0,12.3-7.4,13.5-9.1c1.2-1.7,3.7-16.3,3.5-17.9c-0.3-1.5-9.7-10.8-11.3-11.3C142.9,85,131.6,87.1,122.2,90.9z"/>
			<linearGradient id="SVGID_39_" gradientUnits="userSpaceOnUse" x1="115.5835" y1="116.1516" x2="142.2468" y2="116.1516">
				<stop  offset="0" style="stop-color:#C77CBD"/>
				<stop  offset="1" style="stop-color:#974577"/>
			</linearGradient>
			<path class="st54" d="M116,101.9c0,0,4.2,2.1,9,2l17.2,18c0,0-4,8.1-9.7,8.6c-2.8,0.2-15.7-8.8-16.8-15.9
				C115.2,111.1,116,101.9,116,101.9z"/>
			<linearGradient id="SVGID_40_" gradientUnits="userSpaceOnUse" x1="140.407" y1="123.9379" x2="140.407" y2="85.3097">
				<stop  offset="0" style="stop-color:#9F223F"/>
				<stop  offset="1" style="stop-color:#CA2752"/>
			</linearGradient>
			<path class="st55" d="M145.2,85.3c-2.7-0.2-18,12-19.6,15.3c-1.6,3.4,0.4,21.4,2.1,22.2c1.7,0.8,9,1.4,11.2,0.8
				c2.2-0.6,11.9-7.6,13.5-9.1c1.6-1.5,3.6-15.6,3.5-17.9C155.7,94.4,146.1,85.4,145.2,85.3z"/>
			<linearGradient id="SVGID_41_" gradientUnits="userSpaceOnUse" x1="140.5142" y1="121.0766" x2="140.5142" y2="90.5004">
				<stop  offset="0" style="stop-color:#C77CBD"/>
				<stop  offset="1" style="stop-color:#974577"/>
			</linearGradient>
			<path class="st56" d="M151.8,104.7c-0.3,2.8-0.9,5.5-1.7,6.7c-1.9,2.9-12.3,9.8-14.2,9.6c-1.9-0.2-5.8-2.2-6.4-3.2
				c-0.1-0.2-0.2-1-0.4-2.1c-0.2-2.1-0.3-5.5-0.3-8.3c0-2.5,0.2-4.7,0.7-5.5c1.1-2,3.8-4.6,6.6-6.7c3.5-2.7,7.4-4.8,9.1-4.7
				c3.1,0.3,6.6,4.6,6.9,5.9C152.3,97.2,152.2,101,151.8,104.7z"/>
			<linearGradient id="SVGID_42_" gradientUnits="userSpaceOnUse" x1="128.8552" y1="98.9256" x2="152.1821" y2="98.9256">
				<stop  offset="0" style="stop-color:#C77CBD"/>
				<stop  offset="1" style="stop-color:#974577"/>
			</linearGradient>
			<path class="st57" d="M151.8,104.7c-7-4.1-14.8-2.9-14.8-2.9l-8.1,5.5c0-2.5,0.2-4.7,0.7-5.5c1.1-2,3.8-4.6,6.6-6.7
				c3.5-2.7,7.4-4.8,9.1-4.7c3.1,0.3,6.6,4.6,6.9,5.9C152.3,97.2,152.2,101,151.8,104.7z"/>
			<path class="st58" d="M137,104.3c-0.3,4.9-2.9,9.3-5.3,10.5c-0.9,0.4-1.8,0.7-2.5,0.9c-0.4-4-0.5-12.2,0.4-13.8
				c1.1-2,3.8-4.6,6.6-6.7C136.4,96.8,137.2,100.5,137,104.3z"/>
		</g>
		<linearGradient id="SVGID_43_" gradientUnits="userSpaceOnUse" x1="215.657" y1="122.295" x2="234.9714" y2="122.295">
			<stop  offset="0" style="stop-color:#C77CBD"/>
			<stop  offset="1" style="stop-color:#974577"/>
		</linearGradient>
		<path class="st59" d="M235,112c0,0-9.3,9.9-12.5,21.6l-6.8-3.2l10.4-19.5L235,112z"/>
	</g>
	<radialGradient id="SVGID_44_" cx="127.1543" cy="106.3741" r="26.7128" gradientUnits="userSpaceOnUse">
		<stop  offset="0" style="stop-color:#FF0095"/>
		<stop  offset="1" style="stop-color:#000000"/>
	</radialGradient>
	<path class="st60" d="M153.9,106.4c0,14.8-12,26.7-26.7,26.7c-14.8,0-26.7-12-26.7-26.7c0-14.8,12-26.7,26.7-26.7
		C141.9,79.7,153.9,91.6,153.9,106.4z"/>
	<linearGradient id="SVGID_45_" gradientUnits="userSpaceOnUse" x1="129.155" y1="116.9582" x2="336.2668" y2="116.9582">
		<stop  offset="0" style="stop-color:#8459D6"/>
		<stop  offset="1" style="stop-color:#000000"/>
	</linearGradient>
	<path class="st61" d="M129.2,115.7c0,0,24.2-4.5,37.4-2.8c13.2,1.7,0.7,8.9,2.5,12.6c1.9,3.7,29.8-6.9,75.4-1.6
		c45.6,5.3,58.9,16.1,71.8,15.9c12.8-0.2,20-4,20-4s-14.7,7.9-29.4-2c-14.8-9.9-43.2-41.6-70.1-39.5c-26.9,2.1-50.9,22.1-54.4,20.1
		c-3.5-2-39.5-25.9-46.2-19.3C133.2,102.7,129.2,115.7,129.2,115.7z"/>
</g>
</svg>
