<?xml version="1.0" encoding="utf-8"?>
<!-- Generator: Adobe Illustrator 22.1.0, SVG Export Plug-In . SVG Version: 6.00 Build 0)  -->
<svg version="1.1" id="Layer_1" xmlns="http://www.w3.org/2000/svg" xmlns:xlink="http://www.w3.org/1999/xlink" x="0px" y="0px"
	 viewBox="0 0 340 170" style="enable-background:new 0 0 340 170;" xml:space="preserve">
<style type="text/css">
	.st0{fill-rule:evenodd;clip-rule:evenodd;fill:url(#SVGID_1_);}
	.st1{fill-rule:evenodd;clip-rule:evenodd;fill:url(#SVGID_2_);}
	.st2{opacity:0.5;fill-rule:evenodd;clip-rule:evenodd;fill:url(#SVGID_3_);}
	.st3{opacity:0.5;fill-rule:evenodd;clip-rule:evenodd;fill:url(#SVGID_4_);}
	.st4{opacity:0.5;fill-rule:evenodd;clip-rule:evenodd;fill:url(#SVGID_5_);}
	.st5{opacity:0.5;fill-rule:evenodd;clip-rule:evenodd;fill:url(#SVGID_6_);}
	.st6{opacity:0.5;fill-rule:evenodd;clip-rule:evenodd;fill:url(#SVGID_7_);}
	.st7{opacity:0.5;fill-rule:evenodd;clip-rule:evenodd;fill:url(#SVGID_8_);}
	.st8{opacity:0.7;fill-rule:evenodd;clip-rule:evenodd;fill:url(#SVGID_9_);}
	.st9{opacity:0.3;fill-rule:evenodd;clip-rule:evenodd;fill:#C57539;}
	.st10{opacity:0.2;fill-rule:evenodd;clip-rule:evenodd;fill:#C57539;}
	.st11{fill-rule:evenodd;clip-rule:evenodd;fill:#77342D;}
	.st12{opacity:0.2;fill-rule:evenodd;clip-rule:evenodd;fill:#D9772F;}
	.st13{opacity:0.3;fill-rule:evenodd;clip-rule:evenodd;fill:url(#SVGID_10_);}
	.st14{opacity:0.3;fill-rule:evenodd;clip-rule:evenodd;fill:url(#SVGID_11_);}
	.st15{fill-rule:evenodd;clip-rule:evenodd;fill:#FC8395;}
	.st16{opacity:0.6;fill-rule:evenodd;clip-rule:evenodd;fill:url(#SVGID_12_);}
	.st17{fill-rule:evenodd;clip-rule:evenodd;fill:url(#SVGID_13_);}
	.st18{fill-rule:evenodd;clip-rule:evenodd;fill:url(#SVGID_14_);}
	.st19{opacity:0.8;fill-rule:evenodd;clip-rule:evenodd;fill:url(#SVGID_15_);}
	.st20{opacity:0.8;fill-rule:evenodd;clip-rule:evenodd;fill:url(#SVGID_16_);}
	.st21{opacity:0.8;fill-rule:evenodd;clip-rule:evenodd;fill:url(#SVGID_17_);}
	.st22{fill-rule:evenodd;clip-rule:evenodd;fill:#FFFFFF;}
	.st23{fill-rule:evenodd;clip-rule:evenodd;fill:url(#SVGID_18_);}
	.st24{fill-rule:evenodd;clip-rule:evenodd;fill:url(#SVGID_19_);}
	.st25{opacity:0.8;fill-rule:evenodd;clip-rule:evenodd;fill:url(#SVGID_20_);}
	.st26{opacity:0.8;fill-rule:evenodd;clip-rule:evenodd;fill:url(#SVGID_21_);}
	.st27{opacity:0.8;fill-rule:evenodd;clip-rule:evenodd;fill:url(#SVGID_22_);}
	.st28{fill-rule:evenodd;clip-rule:evenodd;fill:url(#SVGID_23_);}
	.st29{fill-rule:evenodd;clip-rule:evenodd;fill:#ABFFED;}
	.st30{opacity:0.5;fill-rule:evenodd;clip-rule:evenodd;fill:url(#SVGID_24_);}
	.st31{opacity:0.5;fill-rule:evenodd;clip-rule:evenodd;fill:url(#SVGID_25_);}
	.st32{fill-rule:evenodd;clip-rule:evenodd;fill:url(#SVGID_26_);}
	.st33{fill-rule:evenodd;clip-rule:evenodd;fill:url(#SVGID_27_);}
	.st34{opacity:0.6;fill-rule:evenodd;clip-rule:evenodd;fill:url(#SVGID_28_);}
	.st35{opacity:0.6;fill-rule:evenodd;clip-rule:evenodd;fill:url(#SVGID_29_);}
	.st36{opacity:0.6;fill-rule:evenodd;clip-rule:evenodd;fill:url(#SVGID_30_);}
	.st37{fill-rule:evenodd;clip-rule:evenodd;fill:#ABA7B5;}
	.st38{opacity:0.2;fill-rule:evenodd;clip-rule:evenodd;fill:url(#SVGID_31_);}
	.st39{fill-rule:evenodd;clip-rule:evenodd;fill:#8B6F8B;}
	.st40{opacity:0.4;fill-rule:evenodd;clip-rule:evenodd;fill:url(#SVGID_32_);}
	.st41{opacity:0.5;fill-rule:evenodd;clip-rule:evenodd;fill:url(#SVGID_33_);}
</style>
<g>
	<g>
		<linearGradient id="SVGID_1_" gradientUnits="userSpaceOnUse" x1="167.181" y1="146.9843" x2="167.181" y2="72.5839">
			<stop  offset="0" style="stop-color:#65337C"/>
			<stop  offset="0.2838" style="stop-color:#752E32"/>
			<stop  offset="1" style="stop-color:#4A2232"/>
		</linearGradient>
		<polygon class="st0" points="105.4,73 229,72.6 225.7,82.7 220.7,87.3 206.6,133.1 197.5,144.4 186.3,147 169.3,139.7 162.2,127 
			159.3,126.4 149.7,124.6 140,119.2 122.1,105.7 115.5,84 109.2,81.2 		"/>
		<linearGradient id="SVGID_2_" gradientUnits="userSpaceOnUse" x1="209.6522" y1="85.0331" x2="225.6669" y2="85.0331">
			<stop  offset="0" style="stop-color:#864A90"/>
			<stop  offset="1" style="stop-color:#974577"/>
		</linearGradient>
		<polygon class="st1" points="225.7,82.7 220.4,83.8 209.7,84.8 215.6,86.5 220.7,87.3 		"/>
		<linearGradient id="SVGID_3_" gradientUnits="userSpaceOnUse" x1="169.2948" y1="122.0917" x2="217.6356" y2="122.0917">
			<stop  offset="0" style="stop-color:#C77CBD"/>
			<stop  offset="1" style="stop-color:#974577"/>
		</linearGradient>
		<polygon class="st2" points="217.6,97.2 211.8,106.8 205.8,110.6 198.6,129.4 181.1,135.6 169.3,139.7 186.3,147 197.5,144.4 
			206.6,133.1 		"/>
		<linearGradient id="SVGID_4_" gradientUnits="userSpaceOnUse" x1="132.2909" y1="117.581" x2="174.9325" y2="117.581">
			<stop  offset="0" style="stop-color:#C77CBD"/>
			<stop  offset="1" style="stop-color:#974577"/>
		</linearGradient>
		<polygon class="st3" points="162.2,127 169.3,124.4 174.9,113 174.9,108.2 146.5,116.1 132.3,113.4 140,119.2 149.7,124.6 		"/>
		<linearGradient id="SVGID_5_" gradientUnits="userSpaceOnUse" x1="174.9325" y1="90.3739" x2="190.6903" y2="90.3739">
			<stop  offset="0" style="stop-color:#C77CBD"/>
			<stop  offset="1" style="stop-color:#974577"/>
		</linearGradient>
		<polygon class="st4" points="180.8,78.7 181.7,89.6 177.6,99.6 174.9,108.2 179.2,98.4 183.6,89.3 190.7,72.6 180,72.7 		"/>
		<linearGradient id="SVGID_6_" gradientUnits="userSpaceOnUse" x1="109.2079" y1="78.4188" x2="137.1376" y2="78.4188">
			<stop  offset="0" style="stop-color:#C77CBD"/>
			<stop  offset="1" style="stop-color:#974577"/>
		</linearGradient>
		<polygon class="st5" points="109.2,81.2 121,77.3 130.5,72.9 137.1,72.9 121.9,78.7 115.5,84 		"/>
		<linearGradient id="SVGID_7_" gradientUnits="userSpaceOnUse" x1="146.4901" y1="117.581" x2="174.9325" y2="117.581">
			<stop  offset="0" style="stop-color:#C77CBD"/>
			<stop  offset="1" style="stop-color:#974577"/>
		</linearGradient>
		<polygon class="st6" points="146.5,116.1 149.7,124.6 162.2,127 169.3,124.4 174.9,113 174.9,108.2 		"/>
		<linearGradient id="SVGID_8_" gradientUnits="userSpaceOnUse" x1="169.2948" y1="138.2079" x2="206.577" y2="138.2079">
			<stop  offset="0" style="stop-color:#C77CBD"/>
			<stop  offset="1" style="stop-color:#974577"/>
		</linearGradient>
		<polygon class="st7" points="169.3,139.7 186.3,147 197.5,144.4 206.6,133.1 198.6,129.4 		"/>
		<linearGradient id="SVGID_9_" gradientUnits="userSpaceOnUse" x1="200.0429" y1="91.4286" x2="222.4638" y2="91.4286">
			<stop  offset="0" style="stop-color:#C77CBD"/>
			<stop  offset="1" style="stop-color:#974577"/>
		</linearGradient>
		<polygon class="st8" points="205.8,110.6 200,102 201.8,72.3 222.5,72.9 220.4,83.8 209.7,84.8 215.6,86.5 220.7,87.3 217.6,97.2 
			211.8,106.8 		"/>
		<polygon class="st9" points="174.9,108.2 174.9,111.5 195.4,104.1 200,102 201.8,72.3 190.7,72.6 		"/>
		<polygon class="st9" points="109.2,81.2 121,77.3 130.5,72.9 105.4,73 		"/>
		<polygon class="st10" points="122.1,105.7 128.9,100.7 137.9,84 137.1,72.9 121.9,78.7 115.5,84 		"/>
		<polygon class="st11" points="192.2,131.7 200,125.7 201.8,130.9 		"/>
		<polygon class="st11" points="142.9,115.4 150.2,115.1 147,117.6 		"/>
		<polygon class="st10" points="128.9,100.7 118.9,95.2 122.1,105.7 		"/>
		<polygon class="st12" points="218.3,95.2 200.7,91.4 180.8,95.2 134.9,89.6 117.3,89.6 117.9,91.4 134.5,90.4 172.4,95.9 
			180,96.7 200.8,92.7 217.3,98.4 		"/>
		<linearGradient id="SVGID_10_" gradientUnits="userSpaceOnUse" x1="118.9266" y1="100.0604" x2="216.5585" y2="100.0604">
			<stop  offset="0" style="stop-color:#C77CBD"/>
			<stop  offset="1" style="stop-color:#974577"/>
		</linearGradient>
		<polygon class="st13" points="216.6,100.7 200.4,95.9 179.2,98.4 132.3,94.4 118.9,95.2 120.1,99.5 130.2,98.4 171.7,103 
			177.2,103 200.1,100.4 213.7,103.7 215,105.7 		"/>
		<linearGradient id="SVGID_11_" gradientUnits="userSpaceOnUse" x1="165.661" y1="127.0312" x2="210.872" y2="127.0312">
			<stop  offset="0" style="stop-color:#C77CBD"/>
			<stop  offset="1" style="stop-color:#974577"/>
		</linearGradient>
		<polygon class="st14" points="165.7,133.1 202.5,119.2 210.9,119.2 210,122.1 201.8,121 167.2,134.9 		"/>
		<polygon class="st12" points="163.6,129.4 190.7,120.8 204.9,113.1 212.1,115.1 211.8,116.3 205,114 190.1,122.1 164.2,130.5 		
			"/>
		<path class="st15" d="M105.4,73c0,0,51.3,7.6,123.6-0.4L105.4,73z"/>
		<linearGradient id="SVGID_12_" gradientUnits="userSpaceOnUse" x1="167.181" y1="146.9843" x2="167.181" y2="72.5839">
			<stop  offset="0" style="stop-color:#3D56FF"/>
			<stop  offset="1" style="stop-color:#000000"/>
		</linearGradient>
		<polygon class="st16" points="105.4,73 229,72.6 225.7,82.7 220.7,87.3 206.6,133.1 197.5,144.4 186.3,147 169.3,139.7 162.2,127 
			159.3,126.4 149.7,124.6 140,119.2 122.1,105.7 115.5,84 109.2,81.2 		"/>
	</g>
	<g>
		<linearGradient id="SVGID_13_" gradientUnits="userSpaceOnUse" x1="127.2723" y1="120.9765" x2="127.2723" y2="81.2929">
			<stop  offset="0" style="stop-color:#722232"/>
			<stop  offset="1" style="stop-color:#AC2752"/>
		</linearGradient>
		<path class="st17" d="M121.8,81.3l-15.2,10.1l31.4,29.5l10.1-14.1c0,0-3-13.9-4.1-15.1c-1.1-1.2-5.4-6.8-8.3-7.8
			C132.7,82.9,121.8,81.3,121.8,81.3z"/>
		<linearGradient id="SVGID_14_" gradientUnits="userSpaceOnUse" x1="122.0423" y1="121.664" x2="122.0423" y2="91.0518">
			<stop  offset="0" style="stop-color:#9F223F"/>
			<stop  offset="1" style="stop-color:#CA2752"/>
		</linearGradient>
		<path class="st18" d="M106.5,91.4c-1.5,1,0.8,17.4,2.7,20.3c1.9,2.9,13.3,8.5,15.5,9.3c2.2,0.8,12.4,1.1,13.2,0
			c0.8-1.1-1.3-13.3-3.3-16.9c-2-3.6-11.2-9.5-15.6-11C114.5,91.5,108.1,90.5,106.5,91.4z"/>
		<linearGradient id="SVGID_15_" gradientUnits="userSpaceOnUse" x1="122.0304" y1="118.1175" x2="122.0304" y2="95.1816">
			<stop  offset="0" style="stop-color:#C77CBD"/>
			<stop  offset="1" style="stop-color:#974577"/>
		</linearGradient>
		<path class="st19" d="M134.3,117.6c-0.9,0.3-8.3,1.1-11.1,0c-2.9-1.1-11.6-6.5-12.3-8.9c-0.8-2.4-1.8-12.6-1.1-13.5
			c0,0,4.4,0,8.1,0.7c2.6,0.5,7.4,3.4,10.6,6.1c1.5,1.2,2.7,2.4,3.1,3.3c0.5,1,1.1,2.6,1.6,4.5v0
			C134.3,113.3,134.9,117.4,134.3,117.6z"/>
		<linearGradient id="SVGID_16_" gradientUnits="userSpaceOnUse" x1="109.5163" y1="101.915" x2="128.5487" y2="101.915">
			<stop  offset="0" style="stop-color:#C77CBD"/>
			<stop  offset="1" style="stop-color:#974577"/>
		</linearGradient>
		<path class="st20" d="M128.5,102c-7.8,0.2-17.7,6.6-17.7,6.6c-0.8-2.4-1.8-12.6-1.1-13.5c0,0,4.4,0,8.1,0.7
			C120.5,96.4,125.3,99.3,128.5,102z"/>
		<linearGradient id="SVGID_17_" gradientUnits="userSpaceOnUse" x1="134.5751" y1="102.6483" x2="157.3593" y2="102.6483">
			<stop  offset="0" style="stop-color:#C77CBD"/>
			<stop  offset="1" style="stop-color:#974577"/>
		</linearGradient>
		<path class="st21" d="M134.6,104.1c0,0,8.6-8.6,9.3-12.3c0,0-4.8-6.5-7.5-7.4c0,0,10.6,6.2,13.8,10.9c3.2,4.7,7.2,17.9,7.2,17.9
			l-9.3,7.1l-8.6-1.4l-1.6,2.2C137.9,121,137.3,109.3,134.6,104.1z"/>
		<path class="st22" d="M133.3,109.8L133.3,109.8c-9.2-1.8-15.4-13.9-15.4-13.9c3.7,0.7,12.2,6.6,13.8,9.4
			C132.2,106.3,132.8,108,133.3,109.8z"/>
	</g>
	<g>
		<linearGradient id="SVGID_18_" gradientUnits="userSpaceOnUse" x1="222.9075" y1="117.1015" x2="222.9075" y2="86.8929">
			<stop  offset="0" style="stop-color:#722232"/>
			<stop  offset="1" style="stop-color:#AC2752"/>
		</linearGradient>
		<path class="st23" d="M218.3,86.9c0,0-6.6,4.9-7.9,8.3c-1.2,3.3,1.1,16.8,1.7,17.3c0.7,0.5,13.5,4.6,13.5,4.6l10.1-29.3
			C235.8,87.8,221.2,86.7,218.3,86.9z"/>
		<linearGradient id="SVGID_19_" gradientUnits="userSpaceOnUse" x1="231.0234" y1="117.1538" x2="231.0234" y2="87.8044">
			<stop  offset="0" style="stop-color:#9F223F"/>
			<stop  offset="1" style="stop-color:#CA2752"/>
		</linearGradient>
		<path class="st24" d="M235.8,87.8c-2-0.1-7.9,7.2-8.9,9.4c-1,2.2-2.1,8-2.3,10.3c-0.2,2.3,0.2,8.9,1.1,9.6
			c0.9,0.7,7.4-5.3,8.6-7.3c1.2-2,3.2-7.7,3.2-10.7C237.5,95.3,236.9,87.9,235.8,87.8z"/>
		<linearGradient id="SVGID_20_" gradientUnits="userSpaceOnUse" x1="231.45" y1="113.9364" x2="231.45" y2="90.3101">
			<stop  offset="0" style="stop-color:#C77CBD"/>
			<stop  offset="1" style="stop-color:#974577"/>
		</linearGradient>
		<path class="st25" d="M236.2,97.2c0,0.8-0.1,1.8-0.3,2.9c-0.5,3.2-1.6,7.2-2.9,9.1c-1.8,2.5-5.3,5.6-6,4.6
			c-0.7-1,0.4-12.4,1.5-15.3c0.1-0.4,0.3-0.8,0.5-1.2c1.6-3.1,5-7.5,6-6.8C235.7,90.9,236.2,94.3,236.2,97.2z"/>
		<linearGradient id="SVGID_21_" gradientUnits="userSpaceOnUse" x1="228.9257" y1="95.1785" x2="236.1747" y2="95.1785">
			<stop  offset="0" style="stop-color:#C77CBD"/>
			<stop  offset="1" style="stop-color:#974577"/>
		</linearGradient>
		<path class="st26" d="M236.2,97.2c0,0.8-0.1,1.8-0.3,2.9c-1.2-1.6-4-2.4-7-2.8c1.6-3.1,5-7.5,6-6.8
			C235.7,90.9,236.2,94.3,236.2,97.2z"/>
		<linearGradient id="SVGID_22_" gradientUnits="userSpaceOnUse" x1="208.4298" y1="110.4569" x2="225.6669" y2="110.4569">
			<stop  offset="0" style="stop-color:#C77CBD"/>
			<stop  offset="1" style="stop-color:#974577"/>
		</linearGradient>
		<path class="st27" d="M210.4,95.2c0,0-3.1,13.9-1.5,30.6l4-12.9l12.8,4.3c0,0-2-3.9-0.5-13.1L210.4,95.2z"/>
	</g>
	<g>
		<radialGradient id="SVGID_23_" cx="134.1314" cy="71.0094" r="34.939" gradientUnits="userSpaceOnUse">
			<stop  offset="0" style="stop-color:#55DBD6"/>
			<stop  offset="1" style="stop-color:#0072CD"/>
		</radialGradient>
		<path class="st28" d="M115.5,72.9c0,0,5-10,6.6-10.3c1.6-0.4,20.6-0.4,22.7,0c2.1,0.4,14.4,10.3,14.4,10.3L115.5,72.9z"/>
		<path class="st29" d="M122,62.6c0,0,5.2,4.8,7.2,5.1c1.9,0.3,13.7-1.1,14.4-1.6c0.7-0.4,1.2-3.5,1.2-3.5S127.5,62.1,122,62.6z"/>
		<radialGradient id="SVGID_24_" cx="133.3954" cy="65.061" r="8.2589" gradientUnits="userSpaceOnUse">
			<stop  offset="0" style="stop-color:#000000"/>
			<stop  offset="1" style="stop-color:#FFFFFF"/>
		</radialGradient>
		<path class="st30" d="M122,62.6c0,0,5.2,4.8,7.2,5.1c1.9,0.3,13.7-1.1,14.4-1.6c0.7-0.4,1.2-3.5,1.2-3.5S127.5,62.1,122,62.6z"/>
		<path class="st29" d="M129.2,67.7l-1.9,5.2h-11.8c0,0,3.8-8.4,6.6-10.3L129.2,67.7z"/>
		<linearGradient id="SVGID_25_" gradientUnits="userSpaceOnUse" x1="143.6073" y1="67.7645" x2="159.1737" y2="67.7645">
			<stop  offset="0" style="stop-color:#C77CBD"/>
			<stop  offset="1" style="stop-color:#974577"/>
		</linearGradient>
		<path class="st31" d="M143.6,66.1l10,6.8l5.6,0c0,0-9.5-7.7-14.4-10.3C144.8,62.6,144.4,65.2,143.6,66.1z"/>
		<polygon class="st29" points="140.9,66.7 144.2,65.1 145.7,67.5 		"/>
	</g>
	<g>
		<linearGradient id="SVGID_26_" gradientUnits="userSpaceOnUse" x1="199.579" y1="72.8808" x2="199.579" y2="23.0203">
			<stop  offset="0" style="stop-color:#633D4C"/>
			<stop  offset="1" style="stop-color:#685C5B"/>
		</linearGradient>
		<path class="st32" d="M183.8,72.9l3.8-12.6l0.8-3.6l-1-17.2c0,0,3.6-14.1,4.4-15.3c0.9-1.2,4.6-1.5,5.6-1.1
			c1,0.5,11.9,17.8,13.8,23c1.9,5.2,4.1,26.5,4.1,26.5L183.8,72.9z"/>
		<linearGradient id="SVGID_27_" gradientUnits="userSpaceOnUse" x1="218.6069" y1="72.8808" x2="218.6069" y2="49.7947">
			<stop  offset="0" style="stop-color:#633D4C"/>
			<stop  offset="1" style="stop-color:#685C5B"/>
		</linearGradient>
		<path class="st33" d="M229,72.6c0,0,1.4-6.5,0.9-9.2c-0.5-2.7-4.2-12.9-5.3-13.4c-1.1-0.5-7.2-0.1-8,0c-0.8,0.1-9.3,22.8-9.3,22.8
			L229,72.6z"/>
		<linearGradient id="SVGID_28_" gradientUnits="userSpaceOnUse" x1="200.4188" y1="72.8808" x2="200.4188" y2="39.5585">
			<stop  offset="0" style="stop-color:#C77CBD"/>
			<stop  offset="1" style="stop-color:#974577"/>
		</linearGradient>
		<path class="st34" d="M211.3,46.2c0,0-2.1,5-2.8,5.9c-0.7,0.9-6.6,2.8-6.6,2.8l-14.4-15.3l1,17.2l2.3-3.9l5.5,3.1l1.3,16.7
			l9.7,0.3l6.2-16C213.4,56.9,211.5,48.3,211.3,46.2z"/>
		<linearGradient id="SVGID_29_" gradientUnits="userSpaceOnUse" x1="223.0598" y1="72.7089" x2="223.0598" y2="50.0312">
			<stop  offset="0" style="stop-color:#C77CBD"/>
			<stop  offset="1" style="stop-color:#974577"/>
		</linearGradient>
		<path class="st35" d="M224.6,50c0,0,2.1,5.3,2.2,9.4c0.1,4.1-1.9,8.2-3.8,9.2c-1.9,1.1-6.1,2.2-6.1,2.2l-0.8,1.8l12.9-0.1
			c0,0,1.6-6.7,0.9-9.2C229.2,60.9,227,52.9,224.6,50z"/>
		<linearGradient id="SVGID_30_" gradientUnits="userSpaceOnUse" x1="210.9218" y1="60.3886" x2="210.9218" y2="46.1874">
			<stop  offset="0" style="stop-color:#C77CBD"/>
			<stop  offset="1" style="stop-color:#974577"/>
		</linearGradient>
		<path class="st36" d="M208.4,52l3.6,8.3l1.3-3.5l-2.2-10.7C211.3,46.2,209.7,51.3,208.4,52z"/>
		<path class="st37" d="M187.4,39.6l14.4,15.3c0,0,5.2-1.9,6.6-2.8c1.4-1,2.8-5.9,2.8-5.9s-12.5-22.4-13.8-23
			c-1.3-0.5-4.7,0-5.6,1.1C190.9,25.3,187.4,39.6,187.4,39.6z"/>
		<path class="st37" d="M190.7,52.8l-2.3,3.9c0,0-2.1,10.3-1.9,10.8s5.8-2.2,7-4.2c1.2-1.9,2.7-7.5,2.7-7.5L190.7,52.8z"/>
		<path class="st37" d="M209.2,67.8c0,0,6.1,3.6,7.7,3.1c1.5-0.5,5.6-1.3,8.3-4.7c2.7-3.5,1.1-12.7-0.5-16.1c0,0-3.6-0.6-8,0
			C216.6,50,212,59.7,209.2,67.8z"/>
		<linearGradient id="SVGID_31_" gradientUnits="userSpaceOnUse" x1="200.9559" y1="47.205" x2="200.9559" y2="30.5634">
			<stop  offset="0" style="stop-color:#C77CBD"/>
			<stop  offset="1" style="stop-color:#974577"/>
		</linearGradient>
		<path class="st38" d="M211.3,46.2c0,0-12.1-14.9-15.1-15.6c-2.9-0.7-4.9,4.7-5.5,7.3c-0.6,2.6,6.7,7.3,8.9,7.7
			c2.2,0.4,4-3.1,4.1-4.1c0.1-1.1-4.3-7.1-6.3-7.4c-2.1-0.4-3.2,3.1-3.2,4.3c0,1.2,4.7,2.9,4.7,2.9l0.5-0.6c0,0-3.7-0.8-4.3-2.3
			c-0.6-1.5,0.9-3.5,2-3.8c1.1-0.3,4.7,4.4,4.9,6.3c0.2,2-1.3,3.6-2.5,3.8c-1.2,0.3-8.1-4.1-8-7.2s3.3-6.1,4.9-6.1
			c1.6,0,14.7,15.7,14.7,15.7L211.3,46.2z"/>
		<polygon class="st39" points="197,49.8 204.4,54 201.8,54.9 		"/>
		<polygon class="st39" points="213.4,70 219.8,70 216.4,71.9 		"/>
		<polygon class="st39" points="186.6,66.3 188.9,66.7 186.5,68.8 		"/>
		<linearGradient id="SVGID_32_" gradientUnits="userSpaceOnUse" x1="193.4774" y1="64.4091" x2="204.3993" y2="64.4091">
			<stop  offset="0" style="stop-color:#C77CBD"/>
			<stop  offset="1" style="stop-color:#974577"/>
		</linearGradient>
		<path class="st40" d="M193.5,63.4l2.7,9.3l8.2,0.2l-8.2-17C196.2,55.9,194.6,62.3,193.5,63.4z"/>
	</g>
	<linearGradient id="SVGID_33_" gradientUnits="userSpaceOnUse" x1="55.3468" y1="120.3525" x2="284.6532" y2="120.3525">
		<stop  offset="0" style="stop-color:#8459D6"/>
		<stop  offset="1" style="stop-color:#000000"/>
	</linearGradient>
	<path class="st41" d="M122.3,101.6c0,0-9.5,13.3-45.4,13.3c-35.9,0-27.9,17.4,30.3,23.1s52.5-11.8,87.8-12.9
		c35.3-1.1,57.6,9.7,70.6,10.1c13,0.4,19-5.7,19-5.7s-14.4,7.7-24.7,2.3c-10.3-5.5-26.6-21.9-58-20.5
		c-31.3,1.4-36.6,39.1-109.6,21.7c-24-5.7,33.2-27.8,33.2-27.8L122.3,101.6z"/>
</g>
</svg>
