<?xml version="1.0" encoding="utf-8"?>
<!-- Generator: Adobe Illustrator 22.1.0, SVG Export Plug-In . SVG Version: 6.00 Build 0)  -->
<svg version="1.1" id="Layer_1" xmlns="http://www.w3.org/2000/svg" xmlns:xlink="http://www.w3.org/1999/xlink" x="0px" y="0px"
	 viewBox="0 0 340 170" style="enable-background:new 0 0 340 170;" xml:space="preserve">
<style type="text/css">
	.st0{opacity:0.5;fill-rule:evenodd;clip-rule:evenodd;fill:url(#SVGID_1_);}
	.st1{fill-rule:evenodd;clip-rule:evenodd;fill:url(#SVGID_2_);}
	.st2{opacity:0.5;fill-rule:evenodd;clip-rule:evenodd;fill:url(#SVGID_3_);}
	.st3{opacity:0.5;fill-rule:evenodd;clip-rule:evenodd;fill:url(#SVGID_4_);}
	.st4{opacity:0.5;fill-rule:evenodd;clip-rule:evenodd;fill:url(#SVGID_5_);}
	.st5{opacity:0.7;fill-rule:evenodd;clip-rule:evenodd;fill:url(#SVGID_6_);}
	.st6{opacity:0.5;fill-rule:evenodd;clip-rule:evenodd;fill:url(#SVGID_7_);}
	.st7{opacity:0.5;fill-rule:evenodd;clip-rule:evenodd;fill:url(#SVGID_8_);}
	.st8{opacity:0.5;fill-rule:evenodd;clip-rule:evenodd;fill:url(#SVGID_9_);}
	.st9{opacity:0.5;fill-rule:evenodd;clip-rule:evenodd;fill:url(#SVGID_10_);}
	.st10{opacity:0.5;fill-rule:evenodd;clip-rule:evenodd;fill:url(#SVGID_11_);}
	.st11{opacity:0.5;fill-rule:evenodd;clip-rule:evenodd;fill:url(#SVGID_12_);}
	.st12{opacity:0.5;fill-rule:evenodd;clip-rule:evenodd;fill:url(#SVGID_13_);}
	.st13{opacity:0.5;fill-rule:evenodd;clip-rule:evenodd;fill:url(#SVGID_14_);}
	.st14{opacity:0.5;fill-rule:evenodd;clip-rule:evenodd;fill:url(#SVGID_15_);}
	.st15{opacity:0.2;fill-rule:evenodd;clip-rule:evenodd;fill:#95552F;}
	.st16{opacity:0.5;fill-rule:evenodd;clip-rule:evenodd;fill:url(#SVGID_16_);}
	.st17{opacity:0.3;fill-rule:evenodd;clip-rule:evenodd;fill:#C57539;}
	.st18{fill-rule:evenodd;clip-rule:evenodd;fill:#290E18;}
	.st19{opacity:0.2;fill-rule:evenodd;clip-rule:evenodd;fill:#D9772F;}
	.st20{fill-rule:evenodd;clip-rule:evenodd;fill:#77342D;}
	.st21{opacity:0.5;fill-rule:evenodd;clip-rule:evenodd;fill:url(#SVGID_17_);}
	.st22{opacity:0.3;fill-rule:evenodd;clip-rule:evenodd;fill:url(#SVGID_18_);}
	.st23{fill-rule:evenodd;clip-rule:evenodd;fill:#FC8395;}
	.st24{opacity:0.6;fill-rule:evenodd;clip-rule:evenodd;fill:url(#SVGID_19_);}
	.st25{fill-rule:evenodd;clip-rule:evenodd;fill:url(#SVGID_20_);}
	.st26{opacity:0.8;fill-rule:evenodd;clip-rule:evenodd;fill:url(#SVGID_21_);}
	.st27{fill-rule:evenodd;clip-rule:evenodd;fill:url(#SVGID_22_);}
	.st28{opacity:0.8;fill-rule:evenodd;clip-rule:evenodd;fill:url(#SVGID_23_);}
	.st29{opacity:0.8;fill-rule:evenodd;clip-rule:evenodd;fill:url(#SVGID_24_);}
	.st30{fill-rule:evenodd;clip-rule:evenodd;fill:#FFFFFF;}
	.st31{fill-rule:evenodd;clip-rule:evenodd;fill:url(#SVGID_25_);}
	.st32{fill-rule:evenodd;clip-rule:evenodd;fill:url(#SVGID_26_);}
	.st33{opacity:0.8;fill-rule:evenodd;clip-rule:evenodd;fill:url(#SVGID_27_);}
	.st34{opacity:0.8;fill-rule:evenodd;clip-rule:evenodd;fill:url(#SVGID_28_);}
	.st35{opacity:0.8;fill-rule:evenodd;clip-rule:evenodd;fill:url(#SVGID_29_);}
	.st36{fill-rule:evenodd;clip-rule:evenodd;fill:url(#SVGID_30_);}
	.st37{fill-rule:evenodd;clip-rule:evenodd;fill:#ABFFED;}
	.st38{opacity:0.5;fill-rule:evenodd;clip-rule:evenodd;fill:url(#SVGID_31_);}
	.st39{opacity:0.5;fill-rule:evenodd;clip-rule:evenodd;fill:url(#SVGID_32_);}
	.st40{opacity:0.5;fill-rule:evenodd;clip-rule:evenodd;fill:url(#SVGID_33_);}
	.st41{fill-rule:evenodd;clip-rule:evenodd;fill:url(#SVGID_34_);}
	.st42{opacity:0.5;fill-rule:evenodd;clip-rule:evenodd;fill:url(#SVGID_35_);}
	.st43{opacity:0.5;fill-rule:evenodd;clip-rule:evenodd;fill:url(#SVGID_36_);}
	.st44{fill-rule:evenodd;clip-rule:evenodd;fill:url(#SVGID_37_);}
	.st45{opacity:0.8;fill-rule:evenodd;clip-rule:evenodd;fill:url(#SVGID_38_);}
	.st46{opacity:0.8;fill-rule:evenodd;clip-rule:evenodd;fill:url(#SVGID_39_);}
	.st47{fill-rule:evenodd;clip-rule:evenodd;fill:url(#SVGID_40_);}
	.st48{opacity:0.8;fill-rule:evenodd;clip-rule:evenodd;fill:url(#SVGID_41_);}
	.st49{fill-rule:evenodd;clip-rule:evenodd;fill:#ABA7B5;}
	.st50{opacity:0.2;fill-rule:evenodd;clip-rule:evenodd;fill:url(#SVGID_42_);}
	.st51{fill-rule:evenodd;clip-rule:evenodd;fill:#8B6F8B;}
	.st52{opacity:0.2;fill-rule:evenodd;clip-rule:evenodd;fill:url(#SVGID_43_);}
	.st53{opacity:0.5;fill-rule:evenodd;clip-rule:evenodd;fill:url(#SVGID_44_);}
	.st54{opacity:0.5;fill-rule:evenodd;clip-rule:evenodd;fill:url(#SVGID_45_);}
	.st55{opacity:0.5;fill-rule:evenodd;clip-rule:evenodd;fill:url(#SVGID_46_);}
</style>
<g>
	<linearGradient id="SVGID_1_" gradientUnits="userSpaceOnUse" x1="122.5429" y1="72.7772" x2="293.7139" y2="72.7772">
		<stop  offset="0" style="stop-color:#8459D6"/>
		<stop  offset="1" style="stop-color:#000000"/>
	</linearGradient>
	<path class="st0" d="M122.5,60.3c0,0,18.7-19.6,41.3-18.7c22.6,0.9,12.8,21.8,52.1,24.7c39.2,2.8,73.7,19.8,77.5,28.3
		c3.8,8.5-27.9,9.4-27.9,9.4s21.7-7,4.7-16.8c-17-9.8-26.1-14.1-66.4-20c-40.3-5.8-79.8,2.9-79.8,2.9L122.5,60.3z"/>
	<g>
		<linearGradient id="SVGID_2_" gradientUnits="userSpaceOnUse" x1="149.1944" y1="130.9991" x2="149.1944" y2="65.9581">
			<stop  offset="0" style="stop-color:#65337C"/>
			<stop  offset="0.2838" style="stop-color:#752E32"/>
			<stop  offset="1" style="stop-color:#4A2232"/>
		</linearGradient>
		<polygon class="st1" points="257.8,66 247.8,79.3 233.9,81.8 228.4,87.8 224.9,89 221.8,92.3 216.6,95.2 211.7,114.9 205.1,118.1 
			203,118.9 202.9,118.9 202.9,118.9 173,129.5 141.1,131 134.6,129.3 121.3,116.8 112.3,121.2 102.1,119.3 96.2,119.3 93.7,111.4 
			87.3,109.4 51.4,91.3 50.4,84.7 45,80.3 40.6,66 		"/>
		<linearGradient id="SVGID_3_" gradientUnits="userSpaceOnUse" x1="45.0348" y1="75.3546" x2="104.609" y2="75.3546">
			<stop  offset="0" style="stop-color:#C77CBD"/>
			<stop  offset="1" style="stop-color:#974577"/>
		</linearGradient>
		<polygon class="st2" points="45,80.3 52.9,81.4 82.9,71.6 89,66 104.6,66 84.6,76.8 50.4,84.7 		"/>
		<linearGradient id="SVGID_4_" gradientUnits="userSpaceOnUse" x1="51.3766" y1="101.3566" x2="98.4596" y2="101.3566">
			<stop  offset="0" style="stop-color:#C77CBD"/>
			<stop  offset="1" style="stop-color:#974577"/>
		</linearGradient>
		<polygon class="st3" points="51.4,91.3 59.8,94 98.5,94 98.5,94 93.1,103.3 93.7,111.4 87.3,109.4 		"/>
		<linearGradient id="SVGID_5_" gradientUnits="userSpaceOnUse" x1="96.1539" y1="113.7989" x2="173.024" y2="113.7989">
			<stop  offset="0" style="stop-color:#C77CBD"/>
			<stop  offset="1" style="stop-color:#974577"/>
		</linearGradient>
		<polygon class="st4" points="96.2,119.3 104.6,115.4 122.3,111.4 155.2,96.6 137.9,109.4 146.5,116.8 173,129.5 141.1,131 
			134.6,129.3 121.3,116.8 112.3,121.2 102.1,119.3 		"/>
		<linearGradient id="SVGID_6_" gradientUnits="userSpaceOnUse" x1="159.7642" y1="92.4249" x2="247.7808" y2="92.4249">
			<stop  offset="0" style="stop-color:#C77CBD"/>
			<stop  offset="1" style="stop-color:#974577"/>
		</linearGradient>
		<polygon class="st5" points="247.8,79.3 233.9,81.8 228.4,87.8 224.9,89 221.8,92.3 216.6,95.2 211.7,114.9 203,118.9 
			202.9,118.9 199.5,118.9 192.6,103.1 185.9,75.4 171.3,86.2 166.9,91.3 159.8,95 165.6,90.3 169.4,85.4 177.1,66 200.8,66 
			211.7,79.4 220.2,81.6 		"/>
		<linearGradient id="SVGID_7_" gradientUnits="userSpaceOnUse" x1="96.1539" y1="116.298" x2="122.2896" y2="116.298">
			<stop  offset="0" style="stop-color:#C77CBD"/>
			<stop  offset="1" style="stop-color:#974577"/>
		</linearGradient>
		<polygon class="st6" points="96.2,119.3 104.6,115.4 122.3,111.4 121.3,116.8 112.3,121.2 102.1,119.3 		"/>
		<linearGradient id="SVGID_8_" gradientUnits="userSpaceOnUse" x1="59.8316" y1="102.6867" x2="98.4596" y2="102.6867">
			<stop  offset="0" style="stop-color:#C77CBD"/>
			<stop  offset="1" style="stop-color:#974577"/>
		</linearGradient>
		<polygon class="st7" points="59.8,95.4 59.8,94 87.2,94 98.5,94 98.5,94 93.1,103.3 93.7,111.4 87.3,109.4 		"/>
		<linearGradient id="SVGID_9_" gradientUnits="userSpaceOnUse" x1="52.9137" y1="73.6886" x2="104.609" y2="73.6886">
			<stop  offset="0" style="stop-color:#C77CBD"/>
			<stop  offset="1" style="stop-color:#974577"/>
		</linearGradient>
		<polygon class="st8" points="52.9,81.4 72.9,79.5 84.6,76.8 104.6,66 89,66 82.9,71.6 		"/>
		<linearGradient id="SVGID_10_" gradientUnits="userSpaceOnUse" x1="134.5885" y1="123.9044" x2="173.024" y2="123.9044">
			<stop  offset="0" style="stop-color:#C77CBD"/>
			<stop  offset="1" style="stop-color:#974577"/>
		</linearGradient>
		<polygon class="st9" points="146.5,116.8 134.6,129.3 141.1,131 173,129.5 		"/>
		<linearGradient id="SVGID_11_" gradientUnits="userSpaceOnUse" x1="169.4342" y1="76.09" x2="200.7584" y2="76.09">
			<stop  offset="0" style="stop-color:#C77CBD"/>
			<stop  offset="1" style="stop-color:#974577"/>
		</linearGradient>
		<polygon class="st10" points="177.1,66 200.8,66 190,71.9 185.9,75.4 171.3,86.2 169.4,85.4 		"/>
		<linearGradient id="SVGID_12_" gradientUnits="userSpaceOnUse" x1="187.9752" y1="89.5577" x2="221.8365" y2="89.5577">
			<stop  offset="0" style="stop-color:#C77CBD"/>
			<stop  offset="1" style="stop-color:#974577"/>
		</linearGradient>
		<polygon class="st11" points="216.6,95.2 199.2,94 188,83.9 206.3,90.7 221.8,92.3 		"/>
		<linearGradient id="SVGID_13_" gradientUnits="userSpaceOnUse" x1="215.6226" y1="88.3976" x2="228.3707" y2="88.3976">
			<stop  offset="0" style="stop-color:#C77CBD"/>
			<stop  offset="1" style="stop-color:#974577"/>
		</linearGradient>
		<polygon class="st12" points="224.9,89 215.6,88 228.4,87.8 		"/>
		<linearGradient id="SVGID_14_" gradientUnits="userSpaceOnUse" x1="220.2379" y1="81.6095" x2="247.7808" y2="81.6095">
			<stop  offset="0" style="stop-color:#C77CBD"/>
			<stop  offset="1" style="stop-color:#974577"/>
		</linearGradient>
		<polygon class="st13" points="233.9,81.8 225.6,83.9 220.2,81.6 247.8,79.3 		"/>
		<linearGradient id="SVGID_15_" gradientUnits="userSpaceOnUse" x1="122.2896" y1="103.9982" x2="155.1519" y2="103.9982">
			<stop  offset="0" style="stop-color:#C77CBD"/>
			<stop  offset="1" style="stop-color:#974577"/>
		</linearGradient>
		<polygon class="st14" points="122.3,111.4 137.9,109.4 155.2,96.6 		"/>
		<polygon class="st15" points="96.2,119.3 93.7,111.4 93.1,103.3 98.5,94 104.6,66 124.8,66 124.8,66 107.3,92.6 106.1,102.7 
			104.6,115.4 		"/>
		<linearGradient id="SVGID_16_" gradientUnits="userSpaceOnUse" x1="104.609" y1="90.6954" x2="124.7877" y2="90.6954">
			<stop  offset="0" style="stop-color:#C77CBD"/>
			<stop  offset="1" style="stop-color:#974577"/>
		</linearGradient>
		<polygon class="st16" points="124.8,66 122.3,98.5 122.3,111.4 104.6,115.4 107.3,92.6 		"/>
		<polygon class="st17" points="50.4,84.7 84.6,76.8 74.9,91.6 59.8,94 51.4,91.3 		"/>
		<polygon class="st18" points="123.5,118.9 124.8,111.4 128.9,110.5 137.9,109.4 124.8,110.3 122.3,107.6 122.4,97.5 121.1,111.4 
			120,111.9 121.3,116.8 		"/>
		<polygon class="st18" points="197.4,66 190.4,70.2 182.7,76.8 174.4,83.9 191.5,71 201.8,67.3 212.4,66 		"/>
		<polygon class="st19" points="51.4,91.3 79.1,85.4 99.4,89.6 110.9,87.1 123,89 171,81.4 175.5,82.9 174.4,83.9 170.7,82.3 
			122.9,90.7 110.5,87.8 99.2,90.7 77.8,87.1 55.5,92.6 		"/>
		<polygon class="st20" points="109.6,89 106.6,98.5 105.7,93.8 		"/>
		<linearGradient id="SVGID_17_" gradientUnits="userSpaceOnUse" x1="183.4205" y1="114.4454" x2="199.5445" y2="114.4454">
			<stop  offset="0" style="stop-color:#C77CBD"/>
			<stop  offset="1" style="stop-color:#974577"/>
		</linearGradient>
		<polygon class="st21" points="192.6,103.1 183.4,125.8 199.5,118.9 		"/>
		<linearGradient id="SVGID_18_" gradientUnits="userSpaceOnUse" x1="93.0787" y1="100.0958" x2="215.6226" y2="100.0958">
			<stop  offset="0" style="stop-color:#C77CBD"/>
			<stop  offset="1" style="stop-color:#974577"/>
		</linearGradient>
		<polygon class="st22" points="93.1,103.3 106.1,102.7 122.3,104 153.8,97.2 190.1,92.6 215.6,99.2 214.4,104 191.8,99.7 
			146.9,102.7 143.6,101.7 121.6,105.8 106.1,104.4 93.4,107.6 		"/>
		<polygon class="st19" points="207.4,116.8 196.7,112.5 188,114.4 150.9,118.9 138.7,130.4 141.1,131 152.7,119.9 187.6,115.4 
			197.3,113.8 205.1,118.1 		"/>
		<path class="st23" d="M40.6,66h217.2c0,0-48.9,4.6-112.9,4.6C80.9,70.5,40.6,66,40.6,66z"/>
		<polygon class="st17" points="93.1,103.3 105.7,93.8 122,70.2 103.7,70.2 99.2,90.7 		"/>
		<linearGradient id="SVGID_19_" gradientUnits="userSpaceOnUse" x1="149.1944" y1="130.9991" x2="149.1944" y2="65.9581">
			<stop  offset="0" style="stop-color:#3D56FF"/>
			<stop  offset="1" style="stop-color:#000000"/>
		</linearGradient>
		<polygon class="st24" points="257.8,66 247.8,79.3 233.9,81.8 228.4,87.8 224.9,89 221.8,92.3 216.6,95.2 211.7,114.9 
			205.1,118.1 203,118.9 202.9,118.9 202.9,118.9 173,129.5 141.1,131 134.6,129.3 121.3,116.8 112.3,121.2 102.1,119.3 96.2,119.3 
			93.7,111.4 87.3,109.4 51.4,91.3 50.4,84.7 45,80.3 40.6,66 		"/>
	</g>
	<g>
		<linearGradient id="SVGID_20_" gradientUnits="userSpaceOnUse" x1="209.3332" y1="112.4854" x2="209.3332" y2="76.8058">
			<stop  offset="0" style="stop-color:#722232"/>
			<stop  offset="1" style="stop-color:#AC2752"/>
		</linearGradient>
		<path class="st25" d="M200.8,87c0,0-1.7,8.7-1.2,11.5c0.5,2.8,7.9,14,7.9,14l11.8-1.1l-4-34.6C215.2,76.8,204,83.7,200.8,87z"/>
		<linearGradient id="SVGID_21_" gradientUnits="userSpaceOnUse" x1="197.0463" y1="105.296" x2="219.2105" y2="105.296">
			<stop  offset="0" style="stop-color:#C77CBD"/>
			<stop  offset="1" style="stop-color:#974577"/>
		</linearGradient>
		<path class="st26" d="M200,91.3c0,0-4,12.7-2.7,22.5c0.2,1.4,2.2,5.1,2.2,5.1l2.3,0.4l9.8-4.4l0.7-2.8l6.8-0.6
			c0,0-8.2-1.9-11.8-12.9h-7.9L200,91.3z"/>
		<linearGradient id="SVGID_22_" gradientUnits="userSpaceOnUse" x1="218.5931" y1="111.4837" x2="218.5931" y2="76.8058">
			<stop  offset="0" style="stop-color:#9F223F"/>
			<stop  offset="1" style="stop-color:#CA2752"/>
		</linearGradient>
		<path class="st27" d="M216.3,76.8c-1.7,0-5.8,3.8-6.9,7.1c-1.1,3.3-2.3,10.1-1.9,14.6c0.4,4.5,6.3,12.6,7.4,12.9
			c1.1,0.3,9-0.2,10.9-1.8c2.8-2.4,4.8-19.5,3.9-24.9C228.8,79.3,217.5,76.8,216.3,76.8z"/>
		<linearGradient id="SVGID_23_" gradientUnits="userSpaceOnUse" x1="218.6718" y1="108.7717" x2="218.6718" y2="79.1913">
			<stop  offset="0" style="stop-color:#C77CBD"/>
			<stop  offset="1" style="stop-color:#974577"/>
		</linearGradient>
		<path class="st28" d="M227.3,89.6c0,5.1-1.1,12-1.9,14.4c-1.3,3.7-6.6,5.7-8.9,4.4c-2.3-1.3-6.9-10.7-6.3-15.8
			c0.1-0.6,0.2-1.2,0.3-1.9c0.8-4.7,2.7-10.2,5.9-11.5c1.8-0.7,8,1.9,10,4.6C227,84.8,227.3,87,227.3,89.6z"/>
		<linearGradient id="SVGID_24_" gradientUnits="userSpaceOnUse" x1="210.3834" y1="86.5845" x2="227.279" y2="86.5845">
			<stop  offset="0" style="stop-color:#C77CBD"/>
			<stop  offset="1" style="stop-color:#974577"/>
		</linearGradient>
		<path class="st29" d="M227.3,89.6c0,0-10-1.9-14.8,4.4l-2.1-3.2c0.8-4.7,2.7-10.2,5.9-11.5c1.8-0.7,8,1.9,10,4.6
			C227,84.8,227.3,87,227.3,89.6z"/>
		<path class="st30" d="M211,87.8c0,0,6.7,5.2,3,17.7c0,0-3.3-6.1-4-9.7C209.4,92.2,211,87.8,211,87.8z"/>
	</g>
	<g>
		<linearGradient id="SVGID_25_" gradientUnits="userSpaceOnUse" x1="137.9714" y1="138.3964" x2="137.9714" y2="108.3858">
			<stop  offset="0" style="stop-color:#722232"/>
			<stop  offset="1" style="stop-color:#AC2752"/>
		</linearGradient>
		<path class="st31" d="M139.2,108.4l-14.9,6.1c0,0-2.7,4.3-3.4,8.2c-0.8,3.8,6.4,13.3,9.2,15c2.7,1.7,11,0.2,12.8-1.3
			c1.8-1.4,12.3-12.5,12.3-12.5s-2.2-9.3-3.9-11.4C147.9,108.4,139.2,108.4,139.2,108.4z"/>
		<linearGradient id="SVGID_26_" gradientUnits="userSpaceOnUse" x1="131.8032" y1="138.6461" x2="131.8032" y2="114.0491">
			<stop  offset="0" style="stop-color:#9F223F"/>
			<stop  offset="1" style="stop-color:#CA2752"/>
		</linearGradient>
		<path class="st32" d="M124.3,114.4c1.3-1.5,14.1,1.7,16.4,3.6c2.3,1.9,2.5,18.7,1.8,18.9c-0.7,0.2-7.5,2.6-11.4,1.3
			c-3.9-1.3-10.2-11.2-10.2-14.4C120.8,120.4,123.1,115.9,124.3,114.4z"/>
		<linearGradient id="SVGID_27_" gradientUnits="userSpaceOnUse" x1="131.3195" y1="136.982" x2="131.3195" y2="116.5467">
			<stop  offset="0" style="stop-color:#C77CBD"/>
			<stop  offset="1" style="stop-color:#974577"/>
		</linearGradient>
		<path class="st33" d="M139.3,134.4c-0.9,2.2-5.5,3.2-7.5,2.3c-1.5-0.7-5.9-6.4-8-9.9c-0.6-1.1-1.1-2-1.1-2.4
			c-0.1-1.8,1.2-7.1,2.4-7.6c2.2-0.9,10.5,0.8,12.7,2.5c0.5,0.4,0.9,1.2,1.2,2.2C140.1,125.3,140.1,132.6,139.3,134.4z"/>
		<linearGradient id="SVGID_28_" gradientUnits="userSpaceOnUse" x1="122.7686" y1="121.6548" x2="139.0318" y2="121.6548">
			<stop  offset="0" style="stop-color:#C77CBD"/>
			<stop  offset="1" style="stop-color:#974577"/>
		</linearGradient>
		<path class="st34" d="M139,121.5l-1.1,2.4c-4.6-2.8-14.1,2.9-14.1,2.9c-0.6-1.1-1.1-2-1.1-2.4c-0.1-1.8,1.2-7.1,2.4-7.6
			c2.2-0.9,10.5,0.8,12.7,2.5C138.3,119.6,138.7,120.4,139,121.5z"/>
		<path class="st30" d="M134.6,117.8c0,0,1.1,7.3,5.2,9.7c0,0-0.5-6.2-1.5-7.7C137.3,118.4,134.6,117.8,134.6,117.8z"/>
		<linearGradient id="SVGID_29_" gradientUnits="userSpaceOnUse" x1="140.6422" y1="122.6827" x2="168.4273" y2="122.6827">
			<stop  offset="0" style="stop-color:#C77CBD"/>
			<stop  offset="1" style="stop-color:#974577"/>
		</linearGradient>
		<path class="st35" d="M140.6,118l11.3-4.2c0,0-1.2-3.6-7.6-4.8c0,0,5.9,0.2,10.8,4.5c4.9,4.3,13.3,16.2,13.3,16.2l-19.8,1
			l-5.8,5.7C142.8,136.4,143.7,125.9,140.6,118z"/>
	</g>
	<g>
		<radialGradient id="SVGID_30_" cx="64.9065" cy="56.4162" r="30.1133" gradientUnits="userSpaceOnUse">
			<stop  offset="0" style="stop-color:#55DBD6"/>
			<stop  offset="1" style="stop-color:#0072CD"/>
		</radialGradient>
		<path class="st36" d="M63,66c0,0-8.4-12.3-8.9-13.3c-0.6-1-3.7-30.2-3.7-30.2s5.2-8.5,6.3-9.3c1.1-0.8,20.5,18.6,21.3,19.8
			c0.8,1.2,6.3,33,6.3,33H63z"/>
		<path class="st37" d="M50.4,22.4c0,0,8.1,15.9,9.9,17.1c1.8,1.2,8.5,3.7,11.1,3.2c2.5-0.6,4.7-1.7,5.2-3.4
			c0.5-1.7,1.4-6.4,1.4-6.4S58.2,12.5,56.7,13.1C55.2,13.7,50.4,22.4,50.4,22.4z"/>
		<radialGradient id="SVGID_31_" cx="64.2315" cy="27.9488" r="14.3322" gradientUnits="userSpaceOnUse">
			<stop  offset="0" style="stop-color:#000000"/>
			<stop  offset="1" style="stop-color:#FFFFFF"/>
		</radialGradient>
		<path class="st38" d="M50.4,22.4c0,0,8.1,15.9,9.9,17.1c1.8,1.2,8.5,3.7,11.1,3.2c2.5-0.6,4.7-1.7,5.2-3.4
			c0.5-1.7,1.4-6.4,1.4-6.4S58.2,12.5,56.7,13.1C55.2,13.7,50.4,22.4,50.4,22.4z"/>
		<path class="st37" d="M77.9,51.3c0,0,4.3,7.4,5.7,8c1.4,0.6,8.5,1.6,10.3,1.7c1.8,0.1,12.6-1.7,12.6-1.7S90,46.7,87.1,46
			C85.5,45.6,77.9,51.3,77.9,51.3z"/>
		<path class="st37" d="M60.3,39.5l-6.2,13.1c0,0-3.2-21-3.7-30.2L60.3,39.5z"/>
		
			<radialGradient id="SVGID_32_" cx="63.6864" cy="-2547.7817" r="9.6534" gradientTransform="matrix(1 0 0 1.4679 0 3792.7974)" gradientUnits="userSpaceOnUse">
			<stop  offset="0.5838" style="stop-color:#000000"/>
			<stop  offset="1" style="stop-color:#FFFFFF"/>
		</radialGradient>
		<polygon class="st39" points="74.8,66 70.3,42.8 60.3,39.5 54.1,52.6 63,66 		"/>
		<linearGradient id="SVGID_33_" gradientUnits="userSpaceOnUse" x1="76.6412" y1="48.6124" x2="84.3355" y2="48.6124">
			<stop  offset="0" style="stop-color:#C77CBD"/>
			<stop  offset="1" style="stop-color:#974577"/>
		</linearGradient>
		<path class="st40" d="M76.6,39.3l7.7,25L78,32.9C78,32.9,77.2,38.3,76.6,39.3z"/>
		<polygon class="st37" points="65.6,41.9 73,42.3 70.8,45.1 		"/>
		<polygon class="st37" points="54.6,29.7 74.8,31.9 75.7,30.6 78,32.9 74.8,32.3 55.7,30.3 55.2,30.6 		"/>
		<radialGradient id="SVGID_34_" cx="89.3939" cy="62.3528" r="27.641" gradientUnits="userSpaceOnUse">
			<stop  offset="0" style="stop-color:#55DBD6"/>
			<stop  offset="1" style="stop-color:#0072CD"/>
		</radialGradient>
		<path class="st41" d="M108.9,66c0,0-1.9-5.3-2.4-6.7C106,57.9,88.2,46.1,87.1,46c-1-0.1-8.3,4.4-9.2,5.3
			C77.1,52.2,74.8,66,74.8,66H108.9z"/>
		<radialGradient id="SVGID_35_" cx="92.2217" cy="53.4922" r="11.4167" gradientUnits="userSpaceOnUse">
			<stop  offset="0" style="stop-color:#000000"/>
			<stop  offset="1" style="stop-color:#FFFFFF"/>
		</radialGradient>
		<path class="st42" d="M77.9,51.3c0,0,4.3,7.4,5.7,8c1.4,0.6,8.5,1.6,10.3,1.7c1.8,0.1,12.6-1.7,12.6-1.7S90,46.7,87.1,46
			C85.5,45.6,77.9,51.3,77.9,51.3z"/>
		<path class="st37" d="M83.7,59.3L82,66h-7.2l3.1-14.7C77.9,51.3,82.4,58.3,83.7,59.3z"/>
		<linearGradient id="SVGID_36_" gradientUnits="userSpaceOnUse" x1="93.9312" y1="62.6281" x2="108.9332" y2="62.6281">
			<stop  offset="0" style="stop-color:#C77CBD"/>
			<stop  offset="1" style="stop-color:#974577"/>
		</linearGradient>
		<path class="st43" d="M93.9,61l4.5,4.9h10.5l-2.4-6.7C106.5,59.3,97.2,60.8,93.9,61z"/>
		<polygon class="st37" points="91.3,60.7 96.7,60.7 94.7,61.8 		"/>
	</g>
	<g>
		<linearGradient id="SVGID_37_" gradientUnits="userSpaceOnUse" x1="206.1851" y1="65.9601" x2="206.1851" y2="30.9433">
			<stop  offset="0" style="stop-color:#633D4C"/>
			<stop  offset="1" style="stop-color:#685C5B"/>
		</linearGradient>
		<path class="st44" d="M171.1,66c0,0,7.7-5.2,10.7-6.7c3-1.5,15.3-0.7,15.3-0.7s17.8-23.3,21.8-25.7c4-2.4,20.5-2.2,21.8-1.6
			c1.3,0.5,0,34.7,0,34.7L171.1,66z"/>
		<linearGradient id="SVGID_38_" gradientUnits="userSpaceOnUse" x1="233.8359" y1="65.9483" x2="233.8359" y2="31.3058">
			<stop  offset="0" style="stop-color:#C77CBD"/>
			<stop  offset="1" style="stop-color:#974577"/>
		</linearGradient>
		<path class="st45" d="M240.7,31.3c0,0-9.7,12.8-10.2,13.9c-0.5,1.1-4,20.8-4,20.8h13.1C239.5,65.9,242.4,44.1,240.7,31.3z"/>
		<linearGradient id="SVGID_39_" gradientUnits="userSpaceOnUse" x1="189.984" y1="65.9483" x2="189.984" y2="58.4561">
			<stop  offset="0" style="stop-color:#C77CBD"/>
			<stop  offset="1" style="stop-color:#974577"/>
		</linearGradient>
		<polygon class="st46" points="193.4,58.5 190.9,61.8 182.9,64.8 182.9,65.9 192.1,65.9 197,58.6 		"/>
		<linearGradient id="SVGID_40_" gradientUnits="userSpaceOnUse" x1="239.5167" y1="65.9601" x2="239.5167" y2="52.4463">
			<stop  offset="0" style="stop-color:#633D4C"/>
			<stop  offset="1" style="stop-color:#685C5B"/>
		</linearGradient>
		<path class="st47" d="M253.9,66c0,0-4.5-11.9-5.6-12.8s-9.3-1-11.1,0c-1.9,1-11.9,12.8-11.9,12.8L253.9,66z"/>
		<linearGradient id="SVGID_41_" gradientUnits="userSpaceOnUse" x1="249.0455" y1="65.9601" x2="249.0455" y2="53.1671">
			<stop  offset="0" style="stop-color:#C77CBD"/>
			<stop  offset="1" style="stop-color:#974577"/>
		</linearGradient>
		<path class="st48" d="M248.2,53.2c0,0,0.8,1.9,0.7,2.7c-0.1,0.9-4.7,5.8-4.7,5.8V66l9.6,0C253.9,66,249.4,54.8,248.2,53.2z"/>
		<path class="st49" d="M230.5,45.2c-2.6,2.1-6.7,4.2-10.2,4.6c-3.6,0.4-12.5-0.9-12.9-2.3c-0.4-1.4,8.7-12.7,11.5-14.6
			c2.8-1.9,16.7-2.5,21.8-1.6L230.5,45.2z"/>
		<path class="st49" d="M182.9,58.9c-2.4,0.4-7.6,4.5-7.7,5c-0.1,0.5,6.9,1.2,7.7,0.9c0.8-0.3,7.3-2.1,8-3c0.7-0.9,2.5-3.4,2.5-3.4
			S187.2,58.2,182.9,58.9z"/>
		<path class="st49" d="M229.8,60.6c0,0,10.6,2.7,13.4,0.9c2.8-1.8,5.7-5.2,5.7-6.2c-0.1-1-0.4-1.7-1.1-2.1c-0.7-0.4-7.7-0.9-10.3,0
			C234.9,54.1,229.8,60.6,229.8,60.6z"/>
		<linearGradient id="SVGID_42_" gradientUnits="userSpaceOnUse" x1="220.3903" y1="47.0792" x2="220.3903" y2="33.7384">
			<stop  offset="0" style="stop-color:#C77CBD"/>
			<stop  offset="1" style="stop-color:#974577"/>
		</linearGradient>
		<path class="st50" d="M207.4,46c0,0,4.6-7.9,11.8-9.9c7.2-2,13.5-2.6,14.2-2.2c0.6,0.3-1.2,9.2-5.1,11c-3.9,1.9-13.1,1.9-14.2,0.1
			c-1.1-1.8,3-6,5.3-7.2c2.2-1.2,7.9-0.9,8.6-0.2c0.7,0.7-0.4,4.2-1.5,4.7c-1.2,0.5-6.8,0.4-6.9-0.8c-0.1-1.2,0.9-2.3,0.9-2.3l2-0.1
			c0,0-1.2,0.7-1.3,1.7c-0.1,1,3.8,1.6,5.1,1c1.3-0.6,1.5-3.6,0.4-3.9c-1.1-0.4-5.1-0.4-7.2,0.5c-2.1,0.9-4.5,5.5-4.1,6.3
			c0.4,0.8,9.4,1.7,13.1-1c3.8-2.7,3.2-8.4,2.3-8.7c-0.8-0.4-9.1-0.1-14.5,2.9c-5.4,3-8.8,9.1-8.8,9.1L207.4,46z"/>
		<path class="st51" d="M222.5,49.4l6.9,0.6l2.9-7.5C232.3,42.4,226.4,47.6,222.5,49.4z"/>
		<path class="st51" d="M239.4,62.1l4.9,1.5l2.2-4.4C246.5,59.2,244,61.3,239.4,62.1z"/>
		<linearGradient id="SVGID_43_" gradientUnits="userSpaceOnUse" x1="220.9322" y1="65.9601" x2="220.9322" y2="49.3507">
			<stop  offset="0" style="stop-color:#C77CBD"/>
			<stop  offset="1" style="stop-color:#974577"/>
		</linearGradient>
		<polygon class="st52" points="222.5,49.4 212.4,66 226.4,65.9 227.4,63.6 229.4,49.9 		"/>
	</g>
	<radialGradient id="SVGID_44_" cx="134.5889" cy="123.4952" r="25.1755" gradientUnits="userSpaceOnUse">
		<stop  offset="0" style="stop-color:#FF0095"/>
		<stop  offset="1" style="stop-color:#000000"/>
	</radialGradient>
	<path class="st53" d="M159.8,123.5c0,13.9-11.3,25.2-25.2,25.2c-13.9,0-25.2-11.3-25.2-25.2s11.3-25.2,25.2-25.2
		C148.5,98.3,159.8,109.6,159.8,123.5z"/>
	<radialGradient id="SVGID_45_" cx="213.9703" cy="94.4542" r="23.9863" gradientUnits="userSpaceOnUse">
		<stop  offset="0" style="stop-color:#FF0095"/>
		<stop  offset="1" style="stop-color:#000000"/>
	</radialGradient>
	<circle class="st54" cx="214" cy="94.5" r="24"/>
	<linearGradient id="SVGID_46_" gradientUnits="userSpaceOnUse" x1="18.6625" y1="137.6653" x2="321.3375" y2="137.6653">
		<stop  offset="0" style="stop-color:#8459D6"/>
		<stop  offset="1" style="stop-color:#000000"/>
	</linearGradient>
	<path class="st55" d="M138,123.9c0,0-11.2,5.4-33.2,1.9s-64.3-7-82.9-2.9c-18.6,4.1,46.4,32.9,102.9,34c56.4,1,45-14.3,90.8-21.6
		c45.9-7.3,91.5,3.5,102.9-1.4c11.3-4.9-12.7-13.6-42.3-15.4c0,0,20.6,2.2,25.6,7.3c5,5.2-57.9-3.9-92.4,1
		c-34.5,4.9-45.7,25.4-80.4,26.1c-34.7,0.7-4.5-17.1,0-19c4.5-1.9,10.9-6.3,10.9-6.3L138,123.9z"/>
</g>
</svg>
